<?xml version="1.0" encoding="utf-8"?>
<!-- Generator: Adobe Illustrator 22.0.1, SVG Export Plug-In . SVG Version: 6.00 Build 0)  -->
<svg version="1.1" xmlns="http://www.w3.org/2000/svg" xmlns:xlink="http://www.w3.org/1999/xlink" x="0px" y="0px"
	 viewBox="0 0 220 200" style="enable-background:new 0 0 220 200;" xml:space="preserve">
<style type="text/css">
	.st0{display:none;}
	.st1{display:inline;}
	.st2{opacity:0.25;}
	.st3{fill:#9A9B9C;}
	.st4{fill:none;stroke:#9A9B9C;stroke-miterlimit:10;}
	.st5{display:none;fill:url(#SVGID_3_);}
	.st6{display:none;fill:#599F46;}
	.st7{display:inline;fill:#007D85;}
	.st8{display:inline;fill:#35b37a;}
	.st9{display:inline;fill:#797777;}
	.st10{fill:#35b37a;}
	.st11{display:none;opacity:0.65;fill:#F6F9D1;}
	.st12{fill:#00BCF1;}
	.st13{fill:#FFFFFF;}
	.st14{fill:#717073;}
	.st15{fill:none;stroke:#FFFFFF;stroke-width:1.8559;stroke-miterlimit:10;}
	.st16{fill:none;stroke:#B0ACAA;stroke-miterlimit:10;}
	.st17{fill:none;stroke:#616365;stroke-width:0.9947;stroke-miterlimit:10;}
	.st18{fill:none;stroke:#FFFFFF;stroke-width:0.9947;stroke-miterlimit:10;}
	.st19{fill:#616365;}
	.st20{fill:none;stroke:#9A9B9C;stroke-width:0.5;stroke-miterlimit:10;}
	.st21{fill:#49BA52;}
	.st22{fill:#20C4F3;}
	.st23{fill:none;}
	.st24{fill:#50BD61;}
	.st25{fill:#44BAEE;}
	.st26{fill:url(#SVGID_4_);}
	.st27{fill:#636466;}
	.st28{fill:#ECEA66;stroke:#ECEA66;stroke-width:3.1809;}
	.st29{fill:#59AD40;}
	.st30{fill:#35b37a;stroke:#FFFFFF;stroke-width:0.5;stroke-miterlimit:10;}
	.st31{display:none;fill:#403016;}
	.st32{display:none;fill:#21333A;}
	.st33{display:none;fill:#36A8DF;}
	.st34{fill:#2EAA66;}
	.st35{display:none;fill:#D50C51;}
	.st36{display:none;fill:#662582;}
	.st37{display:none;fill:#00BCF1;}
	.st38{opacity:0.5;}
	.st39{fill:none;stroke:#FFFFFF;stroke-width:2.2549;stroke-miterlimit:10;}
	.st40{fill:none;stroke:#616365;stroke-miterlimit:10;}
	.st41{fill:none;stroke:#FFFFFF;stroke-miterlimit:10;}
	.st42{fill:#797777;}
	.st43{fill:none;stroke:#35b37a;stroke-width:15;stroke-miterlimit:10;}
	.st44{fill:none;stroke:#35b37a;stroke-width:15;stroke-miterlimit:10;stroke-dasharray:6,6;}
	.st45{display:none;fill:none;stroke:#9A9B9C;stroke-miterlimit:10;}
	.st46{display:none;fill:#FFFFFF;}
	.st47{fill:url(#SVGID_5_);}
	.st48{fill:url(#SVGID_6_);}
	.st49{fill:url(#SVGID_7_);}
	.st50{opacity:0.25;fill:#007D85;}
	.st51{display:inline;fill:#D8F0CB;}
	.st52{display:inline;opacity:0.25;fill:#FFE617;}
	.st53{display:inline;opacity:0.25;fill:#EB8A35;}
	.st54{display:inline;opacity:0.25;fill:#4C7E77;}
	.st55{display:inline;opacity:0.25;fill:#D4505A;}
	.st56{display:inline;opacity:0.25;fill:#007D85;}
	.st57{display:inline;fill:#EDF6A3;}
	.st58{display:inline;fill:#D5E7D1;}
	.st59{fill:none;stroke:#43587F;stroke-width:3;stroke-linejoin:round;stroke-miterlimit:10;}
	.st60{fill:none;stroke:#43587F;stroke-width:3;stroke-miterlimit:10;}
	.st61{fill:#43587F;}
	.st62{display:inline;fill:#DBED48;}
	.st63{display:inline;fill:none;stroke:#B0ACAA;stroke-width:1.0299;stroke-miterlimit:10;}
	.st64{display:inline;fill:none;stroke:#B0ACAA;stroke-width:1.1118;stroke-miterlimit:10;}
	.st65{fill:none;stroke:#43587F;stroke-width:2.3234;stroke-linejoin:round;stroke-miterlimit:10;}
	.st66{fill:none;stroke:#43587F;stroke-width:2.3234;stroke-miterlimit:10;}
	.st67{fill:none;stroke:#43587F;stroke-width:2.55;stroke-miterlimit:10;}
	.st68{display:inline;fill:#406E55;}
	.st69{display:inline;fill:#43587F;}
	.st70{display:inline;fill:#D4505A;}
	.st71{display:inline;fill:#9C4364;}
	.st72{display:inline;fill:#00A9A1;}
	.st73{display:inline;fill:#EB8A35;}
	.st74{fill:#00A9A1;}
	.st75{display:inline;fill:#EBEAEA;}
	.st76{display:inline;fill:none;stroke:#B0ACAA;stroke-width:0.9947;stroke-miterlimit:10;}
	.st77{display:inline;fill:none;stroke:#FFFFFF;stroke-width:0.9947;stroke-miterlimit:10;}
	.st78{display:inline;fill:none;stroke:#B0ACAA;stroke-miterlimit:10;}
	.st79{display:inline;fill:none;stroke:#FFFFFF;stroke-miterlimit:10;}
	.st80{display:inline;fill:none;stroke:#62C530;stroke-width:2;stroke-miterlimit:10;}
	.st81{display:inline;fill:#89D464;}
	.st82{display:inline;fill:none;stroke:#43587F;stroke-miterlimit:10;}
	.st83{display:inline;fill:none;stroke:#FFFFFF;stroke-width:0.5;stroke-miterlimit:10;}
	.st84{display:inline;fill:none;stroke:#C4C1BF;stroke-width:0.5;stroke-miterlimit:10;}
	.st85{fill:url(#SVGID_8_);}
	.st86{fill:none;stroke:#62C530;stroke-width:2;stroke-miterlimit:10;}
	.st87{fill:none;stroke:#62C530;stroke-width:2;stroke-linecap:round;stroke-miterlimit:10;}
	.st88{fill:#62C530;}
	.st89{fill:none;stroke:#62C530;stroke-width:2;stroke-miterlimit:10;stroke-dasharray:1.9913,2.9869;}
	.st90{fill:none;stroke:#43587F;stroke-linejoin:round;stroke-miterlimit:10;}
	.st91{display:inline;fill:none;stroke:#B0ACAA;stroke-width:0.8872;stroke-miterlimit:10;}
	.st92{display:inline;fill:none;stroke:#62C530;stroke-width:1.8269;stroke-miterlimit:10;}
	.st93{display:inline;fill:#FFFFFF;}
	.st94{fill:url(#SVGID_9_);}
	.st95{display:inline;fill:#35b37a;stroke:#FFFFFF;stroke-width:0.8803;stroke-miterlimit:10;}
	.st96{fill:#403016;}
	.st97{fill:#21333A;}
	.st98{fill:#36A8DF;}
	.st99{display:inline;fill:#2EAA66;}
	.st100{fill:#D50C51;}
	.st101{fill:#662582;}
	.st102{fill:none;stroke:#35b37a;stroke-width:28.1467;stroke-miterlimit:10;}
	.st103{display:inline;fill:none;stroke:#35b37a;stroke-width:28.1467;stroke-miterlimit:10;stroke-dasharray:11.2587,11.2587;}
	.st104{fill:none;stroke:#00BCF1;stroke-width:28.1467;stroke-miterlimit:10;}
	.st105{display:inline;fill:none;stroke:#00BCF1;stroke-width:28.1467;stroke-miterlimit:10;stroke-dasharray:11.2587,11.2587;}
	.st106{display:inline;opacity:0.25;}
	.st107{display:none;fill:#35b37a;}
	.st108{fill:none;stroke:#FFFFFF;stroke-width:1.9653;stroke-miterlimit:10;}
	.st109{fill:#616365;stroke:#717073;stroke-miterlimit:10;}
	.st110{fill:#616365;stroke:#616365;stroke-miterlimit:10;}
	.st111{fill:#616365;stroke:#616365;stroke-width:2;stroke-miterlimit:10;}
	.st112{fill:none;stroke:#616365;stroke-width:4;stroke-miterlimit:10;}
	.st113{fill:none;stroke:#616365;stroke-width:3.5;stroke-miterlimit:10;}
	.st114{fill:none;stroke:#616365;stroke-width:2.9605;stroke-miterlimit:10;}
	.st115{fill:none;stroke:#616365;stroke-width:4;}
	.st116{fill:none;stroke:#616365;stroke-width:3;stroke-miterlimit:10;}
	.st117{fill:none;stroke:#616365;stroke-width:1.0095;stroke-miterlimit:10;}
	.st118{fill:none;stroke:#616365;stroke-width:3.5325;stroke-linecap:round;stroke-miterlimit:10;}
	.st119{fill:none;stroke:#616365;stroke-width:4;stroke-linecap:round;stroke-miterlimit:10;}
	.st120{fill:#616365;stroke:#616365;stroke-width:4;stroke-miterlimit:10;}
	.st121{display:inline;fill:#616365;}
	.st122{display:none;fill:#616365;}
</style>
<g id="Layer_1">
</g>
<g id="Layer_4">
</g>
<g id="Layer_6">
</g>
<g id="Layer_2" class="st0">
</g>
<g id="Layer_3" class="st0">
</g>
<g id="Layer_5">
</g>
<g id="Layer_7">
	<g class="st0">
		<path class="st8" d="M194.5,70.6c-6.5,0-11.8,5.3-11.8,11.8c0,6.5,5.3,11.8,11.8,11.8c6.5,0,11.8-5.3,11.8-11.8
			C206.3,75.9,201,70.6,194.5,70.6z M24.7,70.6c-6.5,0-11.8,5.3-11.8,11.8c0,6.5,5.3,11.8,11.8,11.8c6.5,0,11.8-5.3,11.8-11.8
			C36.5,75.9,31.2,70.6,24.7,70.6z M159.3,49.1c-9.7,0-17.6,7.9-17.6,17.6c0,9.7,7.9,17.6,17.6,17.6c9.7,0,17.6-7.9,17.6-17.6
			C176.9,57,169,49.1,159.3,49.1z M213.9,156h-20v-36.9c0-6.3-1.9-12.2-4.9-17.3c1.8-0.5,3.6-0.9,5.5-0.9c10.7,0,19.4,8.7,19.4,19.4
			L213.9,156z M59.8,49.1c-9.7,0-17.6,7.9-17.6,17.6c0,9.7,7.9,17.6,17.6,17.6c9.7,0,17.6-7.9,17.6-17.6
			C77.4,57,69.5,49.1,59.8,49.1z M24.7,101c1.9,0,3.7,0.4,5.5,0.9c-3,5.1-4.9,11-4.9,17.3V156h-20v-35.7C5.2,109.7,14,101,24.7,101z
			 M109.6,14c-14.3,0-26,11.7-26,26c0,14.3,11.7,26,26,26c14.3,0,26-11.7,26-26C135.6,25.7,123.9,14,109.6,14z M187.4,169.8h-30.7
			v-56.1c0-7.7-2-14.9-5.3-21.3c2.5-0.7,5.2-1.3,7.9-1.3c15.5,0,28.1,12.6,28.1,28.1V169.8z M62.4,113.7v56.1H31.7v-50.6
			c0-15.5,12.6-28.1,28.1-28.1c2.8,0,5.4,0.5,7.9,1.3C64.4,98.8,62.4,106,62.4,113.7z M68.8,186h81.5v-72.3
			c0-22.5-18.3-40.8-40.8-40.8c-22.5,0-40.8,18.3-40.8,40.8V186z"/>
	</g>
	<g class="st0">
		<path class="st8" d="M201.3,179.7v11.4h-183V8.2h11.4v171.5H201.3z M100.2,71.7l46.7,11.7L163,56.4l14.7,8.8l0.8-45.6l-39.9,22.1
			l14.7,8.8l-11.8,19.7L96.7,59l-48,48l8.1,8.1L100.2,71.7z M87,168.3h22.9V85.9l-6.2-1.5L87,101V168.3z M52.7,127.3v41h22.9v-55.8
			l-18.8,18.8L52.7,127.3z M155.6,91.1v77.2h22.9V79L167,72.1L155.6,91.1z M144.2,168.3V94.5l-22.9-5.7v79.5H144.2z"/>
	</g>
	<g class="st0">
		<path class="st8" d="M205.4,78.9l-65.5-49.4c-1.7-1.3-4.1-1.3-5.9,0l-10.8,8.1l-10.8-8.1c-1.7-1.3-4.1-1.3-5.9,0l-10.5,7.9
			l-10.5-7.9c-1.7-1.3-4.1-1.3-5.9,0L14.3,78.9c-1.2,0.9-1.9,2.4-1.9,3.9v83.1c0,2.7,2.2,4.9,4.9,4.9h26.9h27.4h76.6H175h27.4
			c2.7,0,4.9-2.2,4.9-4.9V82.8C207.3,81.3,206.6,79.8,205.4,78.9L205.4,78.9z M197.5,161h-17.6V82.8c0-1.5-0.7-3-1.9-3.9l-46.6-35.1
			l5.6-4.2l60.6,45.7V161z M153,161V82.8c0-1.5-0.7-3-1.9-3.9l-46.8-35.3l5.3-4l60.6,45.7V161L153,161L153,161z M90.7,161H76.4h-1.7
			v-35.5h16L90.7,161z M100.5,161v-40.3c0-2.7-2.2-4.9-4.9-4.9H69.8c-2.7,0-4.9,2.2-4.9,4.9V161H22.1V85.2l60.6-45.7l60.6,45.7V161
			H100.5z"/>
	</g>
	<g>
		<g>
			<path class="st10" d="M84.3,127c-0.9-0.7-7.9-6-27.5-7.3c-1.1-0.1-2.2-0.9-3.1-1.5c-1.2-0.8-2.5-1.7-3.4-2.8
				c-1.5-1.8-3.2-3.3-4.6-5.3c-9.5-13.3-18.8-15.9-20.2-16.5c-1.9-0.9-9,0.2-5.6,4.9c0.2,0,10.9,15,11.6,16.2c1.2,2.1,2.6,3,3.9,4.5
				c1.2,1.4,2.5,2.6,3.7,3.9c0,0-6.8-4-8.5-5.8c-0.7-0.8-1.1-1.9-1.7-2.9c-0.7-1.1-1.4-2.1-2.1-3.2c-0.9-1.3-1.8-2.6-2.8-3.9
				c-1.2-1.6-2.5-3.2-3.8-4.8c-0.8-1-1.7-1.9-2.3-3c-3.2-5.1,0.5-8.1,4-8.5c-0.2-0.6-1.8-16-2.1-18.6c-0.8-7.4-1.6-12.9-5.9-14.4
				c-1.1-0.4-1.9-0.3-2.7,0.6c-1,1-1.5,6.4-1.8,9.8c0,0-1.9,18.3-1.4,26.8c0.2,4.6,14.5,36.1,18.6,41c4.1,4.9,36.1,23.3,36.1,23.3
				c1.1,0.9,7,5.4,7,11.4v13l34.5,0l0-11.9c0.1-2.2,0.5-4.4,0.7-6.6c0.8-2.5,0.1-7.2-0.2-9.1C100.7,138.8,86,128.3,84.3,127z"/>
			<path class="st10" d="M210.2,68.7c-0.3-3.4-0.9-8.8-1.8-9.8c-0.8-0.9-1.6-1-2.7-0.6c-4.3,1.5-5.1,7-5.9,14.4
				c-0.3,2.6-1.9,18-2.1,18.6c3.5,0.4,7.2,3.4,4,8.5c-0.7,1-1.5,2-2.3,3c-1.3,1.6-2.6,3.2-3.8,4.8c-1,1.3-1.9,2.6-2.8,3.9
				c-0.7,1-1.4,2.1-2.1,3.2c-0.6,0.9-0.9,2.1-1.7,2.9c-1.6,1.8-8.5,5.8-8.5,5.8c1.2-1.3,2.5-2.6,3.7-3.9c1.3-1.5,2.7-2.3,3.9-4.5
				c0.7-1.2,11.4-16.2,11.6-16.2c3.4-4.7-3.7-5.8-5.6-4.9c-1.4,0.5-10.7,3.2-20.2,16.5c-1.4,2-3.1,3.5-4.6,5.3
				c-0.9,1.1-2.2,1.9-3.4,2.8c-1,0.6-2,1.4-3.1,1.5c-19.6,1.3-26.6,6.6-27.5,7.3c-1.6,1.2-16.4,11.8-20.4,29.7
				c-0.4,1.8-1,6.6-0.2,9.1c0.3,2.2,0.6,4.4,0.7,6.6l0,11.9l34.5,0v-13c0-6,5.9-10.5,7-11.4c0,0,32-18.4,36.1-23.3
				c4.1-4.9,18.3-36.4,18.6-41C212,87,210.2,68.7,210.2,68.7z"/>
			<path class="st10" d="M164.4,28.5c-5.8-7.6-14.6-11.9-26.9-13.3c-1.2-0.1-2.3-0.2-3.3-0.2c-8.7,0-17.5,3.2-24.3,8.7
				c-6.8-5.5-15.6-8.7-24.3-8.7c-1.1,0-2.2,0.1-3.3,0.2c-12.3,1.3-21.1,5.7-26.9,13.3c-5.7,7.5-7.6,17.4-5.7,29.4
				c2.8,17,23.1,36.1,39.4,51.5c0,0,8.2,8.2,10.6,10.3c1.8,1.6,5.8,4.8,10.2,4.8c4.3,0,8.3-3.2,10.2-4.8
				c2.4-2.1,10.6-10.3,10.6-10.3C147,94,167.3,74.9,170.1,57.9C172,45.9,170.1,36,164.4,28.5z M127.5,56.2c2.7,0,4.8,2.2,4.8,4.8
				s-2.2,4.8-4.8,4.8c-2.7,0-4.8-2.2-4.8-4.8S124.8,56.2,127.5,56.2z M99.3,27.1C99.3,27.1,99.3,27.1,99.3,27.1
				C99.3,27.1,99.3,27.1,99.3,27.1c4.2,0,7.6,3.4,7.6,7.6s-3.4,7.6-7.6,7.6c0,0,0,0,0,0c0,0,0,0,0,0c-4.2,0-7.6-3.4-7.6-7.6
				C91.7,30.5,95.1,27.1,99.3,27.1z M135,80.1c-1,0-1.7-0.8-1.7-1.7c0-1.9-0.4-3.3-0.8-4.3c-0.1-0.2-0.3-0.3-0.4,0
				c-0.1,0.4,0.1,25.1,0.1,25.1c0,1.2-1,2.2-2.2,2.2c-1.2,0-2.2-1-2.2-2.2c0,0,0-11.9,0-12.4c0-0.5-0.7-0.5-0.7,0
				c0,0.8,0,12.4,0,12.4c0,1.2-1,2.2-2.2,2.2c-1.2,0-2.2-1-2.2-2.2c0,0-0.2-25.7-0.2-26.1c0-0.4-0.4-0.2-0.6-0.2
				c-0.5,0.2-1.1,0.2-1.7,0.2c-1.6,0-4.7-0.7-6.2-3.6c-0.5,0.3-1,0.4-1.6,0.4c-1.9,0-3.4-1.5-3.4-3.4c0-4.2,0.1-6.5-1.2-10
				c-0.3-0.6-0.8-0.3-0.7,0.5c0.1,0.6,0.1,2.2,0.1,5.7c0,3.5,2.9,18.5,3.8,23.6c0.2,1.2,0.1,2-0.9,2.4c-1,0.4-2.1,0.7-3.1,1v8.2
				c0,1.9-1.5,3.5-3.3,3.5c0,0,0,0,0,0c-1.8,0-3.3-1.6-3.3-3.5v-7.7c0,0-0.1,0-0.6,0c-0.6,0-0.6,0-0.6,0v7.7c0,1.9-1.5,3.5-3.3,3.5
				c0,0,0,0,0,0c-1.8,0-3.3-1.6-3.3-3.5v-8.2c-1.1-0.2-2.1-0.6-3.1-1c-1-0.4-1.1-1.3-0.9-2.4c0.9-5.2,3.8-20,3.8-23.5
				s0.1-4.9,0.1-5.8c0-0.9-0.6-0.9-0.8-0.5c-0.9,2.4-1.1,5.5-1.1,9.6c0,1.9-1.5,3.4-3.4,3.4c-1.9,0-3.4-1.5-3.4-3.4
				c0-3.4,0-8.4,1.9-12.8c1.7-4,5.6-8.8,14.3-8.8c6.9,0,11.9,3.2,14.4,9.3c1.9,4.5,1.9,9.7,1.9,12.7c0,0.1,0,0.3,0,0.4
				c0.6-0.1,1.1,0.1,1.9,0.9c2.1,2.1,5.7,0.4,7.1-0.3c2.4-1.2,6.1-0.5,8.2,1c1.3,0.9,4,2.9,4,9.8C136.7,79.3,135.9,80.1,135,80.1z"
				/>
		</g>
	</g>
	<g class="st0">
		<path class="st8" d="M187.9,139.4c-0.9,0.1-1.8,0.2-2.7,0.3c-3,0.4-5.9,0.7-8.9,1.1c-3.4,0.4-6.7,0.7-10.1,1c-3,0.3-6,0.6-9,0.8
			c-3.6,0.3-7.2,0.6-10.8,0.8c-4.6,0.3-9.2,0.6-13.8,0.8c-4.3,0.2-8.6,0.4-12.9,0.5c-9.2,0.2-18.4,0.1-27.5-0.2
			c-1.9-0.1-3.7-0.2-5.6-0.3c-3.4-0.2-6.8-0.4-10.2-0.6c-2.4-0.2-4.8-0.3-7.2-0.6c-3.1-0.3-6.2-0.6-9.3-0.9
			c-2.6-0.3-5.3-0.5-7.9-0.8c-3-0.3-6.1-0.7-9.1-1.1c-2.8-0.4-5.7-0.7-8.5-1.1c-0.5-0.1-0.9-0.2-1.4-0.1c-0.1,0.1-0.3,0.3-0.4,0.4
			c-4.4,4.4-8.8,8.8-13.2,13.3c-0.2,0.2-0.4,0.4-0.6,0.6c-0.7,0.9-0.6,2.1,0.3,2.9c0.3,0.2,0.6,0.4,0.9,0.6c2.5,1.6,4.9,3.2,7.4,4.7
			c13.8,8.1,28.3,14.8,43.3,20.3c8.3,3,16.7,5.5,25.5,7c3.8,0.6,7.6,1.1,11.4,1.1c1.5,0,3.1-0.1,4.6-0.2c3.9-0.2,7.8-0.7,11.7-1.3
			c6.1-1,12.1-2.4,18-4.1c12.6-3.6,24.9-8.2,36.8-13.8c7.2-3.4,14.2-7.1,21-11.3c0.3-0.2,0.7-0.4,1-0.7c1-0.8,1.1-1.9,0.4-3
			c-0.2-0.2-0.4-0.4-0.6-0.6c-1.2-1.3-2.4-2.5-3.6-3.8c-2.2-2.4-4.3-4.8-6.5-7.2c-1.1-1.3-1.9-2.7-2.2-4.4
			C188,139.7,188,139.6,187.9,139.4z M92.1,16.6c0.2,0.5,0.6,0.7,1,0.8c0.7,0.3,1.5,0.5,2.3,0.7c3.8,0.9,7.7,1.3,11.6,1.4
			c4,0.1,8,0.1,12-0.2c2.5-0.2,5-0.5,7.4-1c1-0.2,1.9-0.5,2.8-0.9c0.4-0.1,0.9-0.3,1.1-0.8c-0.1-0.6-0.5-0.9-0.9-1.2
			c-0.8-0.7-1.7-1.3-2.6-1.9c-6.9-3.9-14.3-5.3-22.2-3.7c-3.2,0.7-6.2,1.8-9,3.5c-1,0.6-1.9,1.2-2.8,2
			C92.5,15.7,92.2,16.1,92.1,16.6z"/>
		<g class="st1">
			<path class="st10" d="M113.7,42.6c2.8-1.1,4.4,0.4,5.6,2.6c3.1-0.6,3.7-0.3,5.8,3c0.3-1,0.6-1.8,0.8-2.5c1.1-3.9-1.2-7-5.3-7.1
				c-2.4,0-4.8,0-7.2,0c-0.5,0-1.2,0.3-1.5,0.7c-0.2,0.3,0.2,1,0.4,1.5C112.8,41.3,113.3,41.9,113.7,42.6z"/>
			<path class="st10" d="M99.2,45.2c1.2-2.3,2.9-3.6,5.6-2.6c0.4-0.6,0.8-1.1,1-1.5c0.3-0.6,0.5-1.2,0.8-1.9c-0.7-0.2-1.3-0.6-2-0.7
				c-2.3-0.1-4.7-0.2-7,0c-1.2,0.1-2.6,0.5-3.6,1.3c-2.3,1.8-2.4,4.8-0.5,8.1C94.7,45.3,96.5,44.2,99.2,45.2z"/>
			<path class="st10" d="M187.2,135.1c-0.2-2.3-0.3-4.7-0.5-7c-0.1-1.4-0.1-2.8-0.3-4.2c-0.3-3.8-0.7-7.5-1.1-11.3
				c-0.4-3.2-0.8-6.5-1.4-9.7c-0.7-4.2-1.5-8.4-2.2-12.5c-1-5.2-2.1-10.4-3.6-15.4c-1.7-5.7-3.3-11.4-5.2-17
				c-1.5-4.3-3.2-8.5-5.5-12.5c-4.3-7.5-9.9-13.8-17.2-18.5c-5.7-3.7-11.9-6.3-18.4-8.2c-0.2-0.1-0.4-0.1-0.7-0.2
				c-0.4,1.1-1.3,1.5-2.2,1.9c-0.4,0.2-0.7,0.3-1.1,0.4c-1.3,0.3-2.7,0.7-4.1,0.9c-3.9,0.6-7.9,0.9-11.9,0.9
				c-3.7,0.1-7.4-0.1-11.1-0.5c-2.2-0.2-4.4-0.5-6.6-1.1c-1.6-0.4-3.2-0.9-4.2-2.4c-0.2,0-0.3,0.1-0.4,0.1c-0.3,0.1-0.5,0.2-0.8,0.2
				c-8.3,2.7-15.6,7-22,12.9c-5.1,4.7-9.2,10.1-12.5,16.1c-3.5,6.3-6.2,12.9-8.1,19.8c-0.9,3.1-1.5,6.2-2.3,9.2
				c-1.3,5.3-2.8,10.6-3.8,16c-1,5.2-2,10.4-3,15.7c-0.7,3.7-1.2,7.4-1.8,11.1c-0.4,2.6-0.7,5.2-1,7.8c-0.3,2.3-0.6,4.7-0.8,7
				c0,0.4-0.1,0.7-0.1,1.2c0.4,0.1,0.6,0.1,0.8,0.2c1.3,0.2,2.7,0.4,4,0.5c5,0.6,9.9,1.3,14.9,1.8c4.5,0.5,9,0.9,13.5,1.3
				c4.7,0.4,9.4,0.8,14.1,1.1c4.9,0.3,9.8,0.6,14.6,0.7c6,0.2,12,0.3,18,0.2c3.3-0.1,6.6-0.1,9.9-0.2c4.4-0.2,8.9-0.4,13.3-0.6
				c3.1-0.2,6.3-0.3,9.4-0.6c4.4-0.3,8.9-0.7,13.3-1.1c3.7-0.3,7.4-0.7,11.2-1.1c4.7-0.5,9.5-1.1,14.2-1.7c0.9-0.1,1.7-0.1,2.6-0.5
				C187.2,135.8,187.2,135.5,187.2,135.1z M149.9,92.7c-2,1-4,1.8-6,2.6c-6.6,2.7-9.7,10.1-7.1,16.7c0.8,2.1,1.8,4.1,2.5,6.3
				c0.3,0.8,0.2,2-0.3,2.5c-0.4,0.4-1.7,0.4-2.4,0.1c-2.1-0.7-4-1.7-6.1-2.5c-7-2.7-14.5,0.7-17.2,7.7c-0.7,1.9-1.4,3.7-2.3,5.5
				c-0.3,0.7-1.2,1.5-1.9,1.5c-0.6,0-1.6-0.8-1.9-1.5c-1-2-1.7-4-2.5-6.1c-2.8-6.7-10.4-9.9-17.1-7.1c-1.9,0.8-3.7,1.7-5.7,2.3
				c-0.9,0.3-2.3,0.3-2.7-0.2c-0.5-0.5-0.4-1.9-0.1-2.7c0.6-1.9,1.6-3.8,2.3-5.7c2.8-6.8-0.2-14-6.9-17c-1.9-0.9-4-1.6-5.9-2.5
				C68.1,92.5,67,91.5,67,91c0.1-0.8,1-1.7,1.8-2.1c1.6-0.9,3.4-1.4,5.1-2.1c7.7-3.2,10.6-10.4,7.3-18.1c-0.7-1.8-1.6-3.5-2.2-5.3
				c-0.2-0.7-0.2-1.9,0.3-2.4c0.5-0.4,1.7-0.5,2.4-0.2c2,0.7,3.9,1.6,5.9,2.4c2.7,1.1,5.4,1.3,8.8,0.5c-1.9-0.5-2-1.1-1.9-2.5
				c0.2-1.9,0.7-4.4-1.7-5.8c-0.3-0.1-0.6-0.6-0.5-0.8c1.1-3.3-1.3-6-1.7-9c-0.2-1.4-0.2-2.9,0.2-4.2c0.9-2.8,3.1-4.3,6-4.5
				c1.7-0.1,3.4-0.2,5.1,0c2.5,0.3,4.7-0.2,6-2.4c-0.4-0.5-1.2-1.3-1.2-1.4c0.7-0.8,1.5-2,2.3-2.1c0.7-0.1,1.5,1.2,2.1,2
				c0.1,0.1-0.7,0.9-1.1,1.4c1.3,2.4,3.6,2.6,6.1,2.4c1.6-0.1,3.3-0.1,4.9,0c4.4,0.3,7.5,4.3,6.4,8.7c-0.5,2-1.2,3.9-1.8,5.9
				c-0.2,0.8,0,1.7,0,2.5c0,0.5-0.1,1.3-0.4,1.5c-2.5,1.4-1.7,3.8-1.8,5.8c-0.1,1.8,0.3,1.8-1.4,2.7c3,0.6,5.6,0.6,8.2-0.5
				c2.1-0.9,4.1-1.8,6.3-2.6c0.7-0.2,1.8-0.1,2.4,0.3c0.4,0.4,0.5,1.5,0.2,2.2c-0.7,2-1.6,3.9-2.4,5.9c-2.9,7.1,0.2,14.6,7.3,17.5
				c1.9,0.8,3.8,1.5,5.7,2.4c0.7,0.3,1.5,1.2,1.5,1.9C151.5,91.5,150.6,92.4,149.9,92.7z"/>
			<path class="st10" d="M109.3,72.7c-10.2,0-18.2,8.1-18.2,18.3c0,10,8.2,18.2,18.2,18.2c10.2,0,18.3-8.2,18.3-18.4
				C127.5,80.8,119.3,72.7,109.3,72.7z"/>
		</g>
	</g>
	<g class="st0">
		<path class="st8" d="M104.3,68.4l-6.9-7.1c3.8-13.7,0.4-29.1-10.4-39.9C76.3,10.7,61.1,7.2,47.4,10.9L70.6,34l-6.1,22.7l-22.7,6.1
			L18.7,39.6C15,53.3,18.5,68.5,29.2,79.2c11.2,11.3,27.5,14.6,41.6,9.9l0.1,0.1l6.7,6.7 M115.7,133.3l50.5,51.2
			c3.8,3.8,8.7,5.7,13.6,5.7c4.9,0,9.9-1.9,13.6-5.7c7.5-7.5,7.5-19.7,0-27.3l-51-51.2 M181.5,181.3c-4.1,0-7.3-3.3-7.3-7.4
			c0-4.1,3.3-7.4,7.3-7.4c4.1,0,7.4,3.3,7.4,7.4C188.8,178,185.5,181.3,181.5,181.3z"/>
		<g class="st1">
			<path class="st10" d="M37.3,144.5L149.3,32.4l29.9,29.9L67.1,174.3L37.3,144.5z"/>
			<path class="st10" d="M192,49.5l4.3-4.3c4-4,6.2-9.3,6.2-14.9s-2.2-10.9-6.2-14.9c-4-4-9.3-6.2-14.9-6.2
				c-5.6,0-10.9,2.2-14.9,6.2l-4.3,4.3L192,49.5z"/>
			<path class="st10" d="M33.8,149.6l-12.2,36.6c-0.4,1.1-0.1,2.3,0.7,3.1c0.6,0.6,1.3,0.9,2.1,0.9c0.3,0,0.6-0.1,1-0.2L62,177.8
				L33.8,149.6z"/>
			<path class="st10" d="M153.6,28.1l4.3-4.3l29.9,29.9l-4.3,4.3L153.6,28.1z"/>
		</g>
	</g>
	<g class="st0">
		<g class="st1">
			<g>
				<path class="st10" d="M109.8,131.4c-7.9,0-14.4,6.4-14.4,14.4c0,8,6.4,14.4,14.4,14.4c7.6,0,14.4-6.4,14.4-14.4
					C124.2,137.8,117.8,131.4,109.8,131.4z M109.8,154.1c-4.6,0-8.2-3.4-8.2-8s3.7-8.3,8.2-8.3c4.3,0,8.2,3.4,8.2,8
					S114.4,154.1,109.8,154.1z"/>
				<path class="st10" d="M109.8,121.9c-12.5,0-22.9,10.1-22.9,23c0,12.9,22.9,47.3,22.9,47.3s22.9-34.4,22.9-47.3
					C132.8,132,122.4,121.9,109.8,121.9L109.8,121.9z M93.1,144.9c0-9.2,7.3-16.9,16.8-16.9s16.8,7.7,16.8,16.9
					c0,7.4-10.7,25.8-16.8,35.9C103.7,170.7,93.1,152.3,93.1,144.9z"/>
			</g>
		</g>
		<g class="st1">
			<path class="st10" d="M56.1,35.8h3.6v21.5h-3.6c-2,0-3.6-1.6-3.6-3.6V39.4C52.5,37.4,54.1,35.8,56.1,35.8z M163.6,35.8H160v21.5
				h3.6c2,0,3.6-1.6,3.6-3.6V39.4C167.2,37.4,165.6,35.8,163.6,35.8z M152.8,28.6v64.5c0,4-3.2,7.2-7.2,7.2v7.2c0,4-3.2,7.2-7.2,7.2
				h-7.2c-4,0-7.2-3.2-7.2-7.2v-7.2H95.5v7.2c0,4-3.2,7.2-7.2,7.2h-7.2c-4,0-7.2-3.2-7.2-7.2v-7.2c-4,0-7.2-3.2-7.2-7.2V28.6
				c0-11.9,9.6-21.5,21.5-21.5h43C143.2,7.2,152.8,16.8,152.8,28.6z M95.5,21.5h28.7v-7.2H95.5V21.5z M88.4,86c0-4-3.2-7.2-7.2-7.2
				c-4,0-7.2,3.2-7.2,7.2c0,4,3.2,7.2,7.2,7.2C85.2,93.1,88.4,89.9,88.4,86z M145.7,86c0-4-3.2-7.2-7.2-7.2c-4,0-7.2,3.2-7.2,7.2
				c0,4,3.2,7.2,7.2,7.2C142.5,93.1,145.7,89.9,145.7,86z M145.7,28.6H74v43h71.6V28.6L145.7,28.6z"/>
		</g>
	</g>
	<g class="st0">
		<g class="st1">
			<path class="st10" d="M65.1,175.1c2.1,0,4.1-0.6,5.8-1.5v12h3.9v-12.8c2,1.5,4.4,2.4,7.1,2.4c5.7,0,10.5-4,11.7-9.4
				c2.2-0.4,4.2-1.3,5.8-2.6v-5.2c-2.7,0.8-5.5,1.2-8.3,1.2c-8.3,0-16.1-3.3-22-9.3c-11.5-4.7-19.1-15.8-19.3-28.2
				c-2,1.8-3.4,4.4-3.8,7.3c-0.4,2.9,0.4,5.6,1.8,7.8c-2.5,2.2-4.1,5.4-4.1,8.9c0,4.3,2.2,8,5.5,10.1c-0.5,1.3-0.8,2.7-0.8,4.2
				c0,5.2,3.3,9.6,7.9,11.2C58.5,173.5,61.6,175.1,65.1,175.1z"/>
			<path class="st10" d="M175,142.3c0-4.5-2.5-8.4-6.2-10.4c-3.4,2.7-7.3,4.7-11.6,5.8c-4,12.6-16,21.4-29.4,21.4
				c-2.4,0-4.7-0.3-7-0.9c-0.1,0.6-0.2,1.1-0.2,1.7c0,5.2,3.3,9.6,7.9,11.2c2.2,2.4,5.3,3.9,8.8,3.9c2.1,0,4.1-0.6,5.8-1.5v12h3.9
				v-12.8c2,1.5,4.4,2.4,7.1,2.4c5.8,0,10.5-4,11.7-9.4c5.7-0.9,10.1-5.8,10.1-11.8c0-2.5-0.8-4.8-2-6.7
				C174.6,145.6,175,144,175,142.3z"/>
			<path class="st10" d="M112.2,147.1c4.4,3.2,9.8,5.2,15.6,5.2c12.7,0,23.2-8.9,25.8-20.8c12.6-2,22.3-12.8,22.3-26
				c0-5.5-1.7-10.5-4.5-14.7c1.5-3.3,2.3-6.9,2.3-10.8c0-11.4-7.2-21-17.3-24.7c2.1-3.8,3.4-8.1,3.4-12.7
				c0-14.6-11.8-26.5-26.5-26.5c-5.2,0-10.1,1.6-14.2,4.2c-4.6-7.8-13-13.1-22.7-13.1c-12.5,0-22.9,8.7-25.7,20.4
				c-11.4,1.8-20.7,10.8-22.2,22.8c-0.8,6.3,0.8,12.3,4,17.3c-5.5,4.8-9,11.8-9,19.7c0,9.4,4.9,17.5,12.2,22.3
				c-1.1,2.9-1.8,6.1-1.8,9.4c0,11.4,7.3,21.1,17.4,24.8c4.9,5.3,11.7,8.7,19.5,8.7c4.6,0,8.9-1.3,12.7-3.4v38.6H53.1v4.7h109.8
				v-4.7h-50.7L112.2,147.1L112.2,147.1z"/>
		</g>
	</g>
	<g class="st0">
		<path class="st95" d="M88.1,157c0.4-0.3,0.7-0.6,1-0.8c1.2-1,2.4-2,3.7-3.1c0.3-0.3,0.7-0.6,1-0.9c1.7-1.6,3.4-3.2,5-4.9
			c0.5-0.5,0.9-1,1.3-1.6c0.2-0.3,0.4-0.5,0.7-0.7c1.2-1,2.4-2,3.6-3c1.2-1,2.4-2,3.6-3.1c0.5-0.5,1-1,1.5-1.5
			c0.3-0.4,0.7-0.8,1.1-1.2c1.3-1.4,2.5-2.8,3.8-4.2c1.2-1.4,2.5-2.7,3.7-4.1c0.7-0.8,1.5-1.6,2.2-2.4c0.3-0.3,0.6-0.6,1-0.8
			c1.3-0.8,2.4-1.7,3.5-2.8c0.7-0.7,1.4-1.5,1.9-2.4c0,0,0,0,0,0c0.1-0.2,0.2-0.2,0.3,0c0.4,0.5,0.8,1.1,1.2,1.6
			c1.3,1.8,2.7,3.6,4,5.4c0.1,0.1,0.2,0.2,0.2,0.3c0.1,0.1,0.2,0.1,0.2,0c0-0.1,0.1-0.1,0.1-0.2c0.7-1,1.5-2.1,2.3-3
			c0.5-0.6,1.1-1.2,1.8-1.7c0.2-0.1,0.4-0.3,0.6-0.4c0.2-0.1,0.3-0.1,0.3,0.2c0,0.1,0,0.3,0,0.4c0,1,0.1,2,0.1,3.1
			c0.1,1.4,0.3,2.7,0.5,4.1c0.3,2,0.8,3.9,1.5,5.8c0.3,0.9,0.7,1.8,1.2,2.7c0.2,0.3,0.4,0.6,0.7,0.9c0.2,0.2,0.4,0.3,0.6,0.3
			c1.2,0.1,2.3,0.2,3.5,0.1c1.7-0.1,3.3-0.6,4.7-1.5c1-0.6,1.9-1.2,2.8-1.8c0.7-0.4,1.4-0.8,2.2-1.1c0.1,0,0.2-0.1,0.3-0.1
			c0.1,0,0.1,0,0.2,0.1c0,0.1,0,0.1,0,0.2c0,0.5,0.1,0.9,0.1,1.4c0.1,0.9,0.1,1.8,0.2,2.7c0.1,0.9,0.2,1.8,0.3,2.6
			c0.1,0.8,0.2,1.5,0.4,2.3c0.1,0.5,0.3,0.9,0.4,1.3c0,0.1,0.1,0.2,0.1,0.3c0,0.1,0,0.2-0.1,0.2c-0.1,0.1-0.1,0-0.2,0
			c-0.2-0.2-0.5-0.3-0.7-0.4c-0.6-0.3-1.3-0.5-2-0.7c-1.3-0.3-2.6-0.5-4-0.7c-1-0.1-2-0.2-3-0.3c0,0-0.1,0-0.1,0
			c-1.5,0-3-0.2-4.5-0.1c-0.8,0-1.6,0.1-2.4,0.1c-0.4,0-0.7,0.1-1.1,0.2c-1,0.3-1.9,0.6-2.8,1.1c-1.4,0.8-2.2,1.9-2.6,3.4
			c-0.2,0.8-0.3,1.7-0.5,2.5c-0.2,1.5-0.6,2.9-1.2,4.2c-0.2,0.5-0.5,0.9-0.8,1.3c-0.1,0.2-0.1,0.3-0.1,0.5c0.2,1.2,0.4,2.4,0.6,3.6
			c0.1,0.9,0.3,1.8,0.4,2.7c0.1,0.8,0.3,1.6,0.4,2.4c0.1,0.9,0.3,1.8,0.4,2.7c0.1,0.8,0.3,1.6,0.4,2.5c0.1,0.9,0.3,1.8,0.4,2.6
			c0.2,1,0.3,2,0.5,3c0.2,1.1,0.3,2.2,0.4,3.3c0.1,1.3,0.2,2.6,0.2,4c0,0.2,0,0.5,0.1,0.7c0,0.2-0.1,0.3-0.2,0.4
			c-1.1,0.7-2.2,1.2-3.4,1.4c-0.3,0-0.6,0.1-0.8,0.1c-0.9,0.1-1.8,0.4-2.6,0.8c-0.5,0.2-1.1,0.5-1.6,0.7c-0.2,0.1-0.4,0.1-0.6,0.2
			c-0.3,0.1-0.6,0-0.8-0.2c-0.4-0.3-0.8-0.6-1.2-1c-0.9-0.8-1.7-1.6-2.6-2.4c-0.8-0.7-1.5-1.4-2.3-2.1c-0.1-0.1-0.2-0.2-0.3-0.3
			c-0.1-0.1-0.1-0.2,0-0.2c0.1-0.1,0.2-0.2,0.4-0.3c0.9-0.6,1.7-1.2,2.6-1.8c0.1-0.1,0.2-0.1,0.3-0.2c0.1-0.1,0.1-0.2,0-0.3
			c-0.3-0.2-0.6-0.5-0.9-0.7c-1.7-1.2-3.3-2.5-5-3.9c-0.3-0.3-0.6-0.5-0.9-0.8c-0.6-0.6-1.2-1.2-1.7-1.9c-1.1-1.6-2.2-3.2-3.3-4.8
			c-0.5-0.7-1-1.3-1.5-1.9c-0.1-0.1-0.2-0.2-0.2-0.3c-0.3-0.3-0.6-0.5-1.1-0.4c-0.4,0-0.7,0.1-1.1,0.2c-1.4,0.3-2.8,0.8-4.2,1.2
			c-0.8,0.3-1.6,0.5-2.4,0.8c-0.3,0.1-0.6,0.2-0.9,0.2c-0.3,0-0.6-0.2-0.7-0.5c0-0.1-0.1-0.1-0.1-0.2c-0.5-1.5-1.1-2.9-1.7-4.3
			c-0.3-0.8-0.6-1.5-1-2.2c-0.1-0.3-0.3-0.5-0.6-0.6c-0.6-0.2-1.2-0.4-1.8-0.7c-0.3-0.1-0.5-0.2-0.8-0.2c-0.6,0-1.1,0-1.7,0
			c-0.3,0-0.5-0.1-0.7-0.2c-0.6-0.4-1.1-0.8-1.7-1.2C88.3,157.1,88.2,157.1,88.1,157z"/>
		<path class="st95" d="M157.1,11.6c-0.1,1.7-0.1,3.4-0.1,5.1c0,0.8-0.1,0.7,0.7,0.7c8.1,0,16.1,0,24.2,0c0.2,0,0.3,0,0.5,0
			c0.3,0,0.6,0.1,0.8,0.4c0.3,0.3,0.4,0.7,0.4,1.2c0,1.3,0,2.5-0.2,3.8c-0.2,2.1-0.5,4.2-0.9,6.3c-0.1,0.6-0.3,1.3-0.4,1.9
			c0,0.2-0.1,0.3-0.3,0.3c-0.4,0.2-0.8,0.4-1.1,0.5c-1.3,0.6-2.6,1.2-3.9,1.8c-2.6,1.2-5.1,2.4-7.7,3.6c-1.2,0.5-2.3,1.1-3.5,1.6
			c-2.5,1.2-5,2.3-7.5,3.5c-0.4,0.2-0.8,0.4-1.1,0.5c-0.6,0.3-0.6,0.3-1.1-0.1c-0.4-0.3-0.7-0.6-1.1-0.8c-1.5-1.2-2.8-2.6-4.1-4
			c-0.4-0.5-0.8-1-1.2-1.5c-0.5-0.8-1.1-1.6-1.7-2.3c-1.5-1.8-3.1-3.5-4.8-5.1c-0.5-0.4-0.8-1-0.9-1.6c-0.3-1-0.4-2.1-0.3-3.1
			c0-0.2,0.1-0.5,0.2-0.7c0.3-0.6,0.4-1.3,0.5-2c0.2-1.2,0.2-2.4,0.2-3.7c0-0.6,0-0.5,0.4-0.8c1.3-0.9,2.7-1.7,4.1-2.5
			c1.6-0.9,3.2-1.8,4.8-2.6c1.5-0.7,3-1.5,4.6-2c0.1,0,0.2-0.1,0.4-0.1c0.2-0.1,0.3,0,0.3,0.2C157.1,10.5,157.1,11,157.1,11.6z"/>
		<path class="st8" d="M79.8,41.8c-0.1,0.1-0.1,0.2-0.2,0.2c-0.3,0.4-0.7,0.7-1,1.1c-0.3,0.4-0.4,0.3-0.3,1c0.3,1.3,0.5,2.7,0.7,4
			c0,0.1,0,0.1,0,0.2c0,0.7,0.1,1.4,0.1,2.1c0,1.1,0.1,2.3,0.2,3.4c0.1,0.9,0.2,1.8,0.3,2.8c0,0.2,0.1,0.3,0.1,0.5
			c0,0.1-0.1,0.2-0.2,0.3c-0.2,0.1-0.4,0.1-0.6,0.1c-2.7,0.6-5.3,1.6-7.8,2.8c-0.2,0.1-0.5,0.2-0.7,0.4c-0.3,0.2-0.5,0.1-0.7,0
			c-1.4-0.9-2.8-1.8-4.2-2.7c-1.7-1.1-3.5-2.3-5.2-3.4c-0.4-0.2-0.7-0.5-1-0.8c-0.3-0.3-0.7-0.6-1.1-0.8c-0.4-0.2-0.8-0.2-1.3,0
			c-0.1,0.1-0.2,0.1-0.3,0.3c-0.1,0.7-0.6,1.2-1.1,1.7c-0.7,0.8-1.5,1.5-2.4,2.1c-0.5,0.4-1,0.7-1.4,1.1c-0.1,0.1-0.3,0.2-0.5,0.3
			c-0.2,0.1-0.2,0.1-0.4,0c-0.1-0.1-0.1-0.1-0.2-0.2c-1.5-1.5-3-3.1-4.5-4.6c-0.8-0.9-1.7-1.7-2.5-2.6c-0.1-0.1-0.1-0.1-0.2-0.2
			c-0.1-0.1,0-0.2,0-0.2c0.4-0.2,0.9-0.4,1.3-0.7c0.1,0,0.2-0.1,0.3-0.1c1.3-0.1,2.5-0.3,3.8-0.5c1.1-0.2,2.2-0.4,3.3-0.6
			c1-0.2,2-0.4,2.9-0.9c0.2-0.1,0.3-0.2,0.5-0.2c0.4-0.2,0.6-0.5,0.6-1c0.1-1.1,0.6-1.9,1.3-2.7c0.6-0.7,1.4-1.2,2.2-1.6
			c1.2-0.6,2.4-1.1,3.7-1.5c1.7-0.5,3.5-0.9,5.2-1.1c1.1-0.2,2.3-0.3,3.4-0.4c1.6-0.1,3.2-0.2,4.9-0.2c0.1,0,0.2,0,0.3,0
			c0.3-0.1,0.4,0,0.6,0.1c0.3,0.2,0.5,0.5,0.7,0.7c0.4,0.5,0.7,1,0.9,1.5C79.7,41.6,79.7,41.7,79.8,41.8z"/>
		<path class="st95" d="M155.7,44.8c0.1,0,0.2,0.1,0.2,0.2c0.4,1.3,1.2,2.4,2.1,3.4c0.4,0.4,0.7,0.9,1.1,1.3
			c0.5,0.6,0.7,1.2,0.8,1.9c0.1,0.5,0.1,0.9,0.1,1.4c0,0.4,0.1,0.8,0.1,1.2c0.1,0.5,0.3,0.9,0.6,1.3c0.1,0.2,0.2,0.3,0.2,0.5
			c0.1,1,0.1,2.1,0.1,3.1c0,0.4,0.1,0.8,0.1,1.2c0,0,0,0.1,0.1,0.1c0.1-0.1,0.1-0.2,0.1-0.3c0-1.2-0.1-2.3-0.1-3.5
			c0-0.2-0.2-0.4,0-0.6c0.2,0,0.4,0.2,0.6,0.3c0.5,0.2,1,0.3,1.5,0.4c1.3,0.2,2.6,0.1,4,0.1c1-0.1,2-0.1,2.9-0.3c0.1,0,0.3,0,0.4,0
			c0.3,0.1,0.5,0.1,0.8,0.2c0.2,0.1,0.5,0.3,0.8,0.4c0.2,0.1,0.4,0.2,0.6,0.2c1.1,0.3,2,0.9,2.8,1.7c0.2,0.2,0.6,0.4,0.7,0.7
			c0.1,0.3-0.1,0.7-0.2,1c-0.3,1.2-0.5,2.4-0.6,3.7c-0.1,0.6-0.1,1.2-0.1,1.8c0,0.7,0.1,1.5,0.2,2.2c0.3,1.3,0.5,2.7,0.7,4
			c0.1,0.9,0.2,1.8,0.2,2.7c0,0.3,0,0.6-0.1,1c-0.1,0.3-0.1,0.6,0,0.8c0.1,0.8,0.3,1.6,0.5,2.5c0.4,1.8,1,3.6,1.5,5.4
			c0.1,0.2,0.2,0.4,0.4,0.6c0.2,0.2,0.4,0.4,0.5,0.7c-0.5,0.2-1,0.4-1.5,0.7c-0.5,0.2-0.5,0.2-0.6-0.3c-0.3-1.1-0.8-2.2-1.4-3.2
			c-1.2-2.1-2.9-3.9-4.8-5.4c-1.3-1-2.6-1.8-4-2.5c-0.3-0.2-0.6-0.3-0.9-0.5c-0.6-0.4-0.6-0.5-0.1-0.9c0.8-0.6,1.5-1.4,2.2-2.1
			c1.1-1.2,1.9-2.5,2.2-4c0.1-0.4,0.2-0.8,0.3-1.2c0.1-0.5,0.2-1,0.3-1.5c0.1-0.9,0.1-1.7,0.1-2.6c0-1.5,0-3,0-4.5
			c0-0.2,0.1-0.4-0.1-0.6c-0.1-0.1-0.1,0.1-0.1,0.6c0,2.2,0,4.3-0.1,6.5c0,0.4-0.1,0.8-0.1,1.2c0,0.2-0.1,0.3-0.3,0.2
			c-0.2-0.1-0.4-0.1-0.6-0.2c-1.3-0.3-2.6-0.6-3.9-0.6c-0.8,0-1.5,0-2.3-0.1c-0.5,0-1-0.2-1.5-0.3c-0.4-0.1-0.4-0.1-0.4-0.5
			c0-0.9-0.1-1.9-0.1-2.8c0-0.1,0-0.2,0-0.3c0,0,0-0.1-0.1-0.1c0,0-0.1,0-0.1,0c-0.1,0.1-0.1,0.3-0.1,0.4c0,0.9,0,1.7,0,2.6
			c0,0.2,0,0.3-0.1,0.5c-0.1,0-0.1,0-0.2,0c-0.8-0.1-1.5-0.2-2.3-0.3c-1.2-0.1-2.5-0.1-3.7-0.1c-1.4,0-2.8,0-4.1,0.1
			c-1.1,0.1-2.3,0-3.4-0.1c-0.7-0.1-0.7,0-0.6-0.7c0-0.5,0.1-1,0.1-1.5c0.1-0.6,0-1.1,0-1.7c0-1-0.1-2-0.4-2.9
			c-0.4-1.7-1.2-3.2-2.5-4.5c-0.1-0.1-0.2-0.2-0.2-0.3c0-0.1,0.1-0.1,0.2-0.2c1.5-1.1,3-2.1,4.6-3.1c0.4-0.3,0.8-0.5,1.3-0.7
			c0.9-0.3,1.9-0.6,2.8-1c1-0.4,2-1,2.7-1.8C155.4,45.3,155.7,45.1,155.7,44.8z"/>
		<path class="st95" d="M28,41.6c0.6,0,1.1,0,1.7-0.1c0.3-0.1,0.7-0.1,1-0.3c0.2-0.1,0.4-0.2,0.7-0.3c1-0.5,2.1-0.6,3.1-0.2
			c0.7,0.2,1.3,0.5,1.9,0.9c0.6,0.4,1.2,0.8,1.8,1.2c0.5,0.3,0.9,0.6,1.5,0.9c0.7,0.3,1.4,0.5,2.2,0.5c0.6,0,1.1-0.1,1.6-0.4
			c1.3-0.6,2.5-1.2,3.7-2c1.1-0.7,1.9-1.6,2.6-2.7c0.4-0.6,0.8-1.2,1.3-1.8c0.2-0.3,0.5-0.5,0.7-0.8c0.7-0.7,1-1.6,1.1-2.6
			c0-0.5,0.1-0.9,0.2-1.3c0.1-0.3,0.2-0.5,0.3-0.8c0.2-0.4,0.5-0.7,1-0.8c0.7-0.2,1.4-0.3,2.1-0.2c0.3,0.1,0.6,0.1,0.9,0.2
			c0.6,0.1,1.1-0.1,1.4-0.6c0.2-0.3,0.4-0.6,0.7-0.9c0.4-0.5,0.9-0.9,1.5-1.2c0.1-0.1,0.3-0.1,0.5-0.2c0.4-0.1,0.8-0.1,1.2,0.1
			c0.5,0.4,1.1,0.5,1.8,0.5c0.3,0,0.6,0,0.9,0c0.8-0.1,1.4,0.3,2,0.7c0.2,0.2,0.4,0.4,0.7,0.5c0.5,0.4,1.1,0.6,1.7,0.7
			c0.1,0,0.1,0,0.2,0c0.5,0.1,0.8,0.4,1.1,0.8c0.2,0.3,0.3,0.5,0.5,0.8c0.4,0.6,0.9,0.9,1.6,0.9c0.3,0,0.6,0,1,0
			c0.1,0,0.2,0.1,0.2,0.2c0,0.1,0,0.2,0.1,0.3c0.1,1.1,0.5,2,1.1,2.9c0.3,0.4,0.6,0.8,0.9,1.2c0.1,0.1,0.1,0.2,0.2,0.3
			c0,0.1,0,0.2-0.1,0.2c0,0,0,0-0.1,0c-0.6,0-1.2,0.1-1.8,0.1c-1,0-2,0.1-2.9,0.2c-1.1,0.1-2.1,0.2-3.2,0.4
			c-2.6,0.4-5.1,0.9-7.5,1.9c-1.2,0.5-2.3,1.1-3.3,1.9c-1.2,1-2.1,2.2-2.3,3.8c0,0.2-0.1,0.4-0.3,0.5c-0.3,0.1-0.6,0.2-0.8,0.3
			c-0.9,0.3-1.9,0.5-2.8,0.7c-1.3,0.2-2.5,0.5-3.8,0.7c-0.9,0.1-1.8,0.3-2.8,0.4c-0.2,0-0.4,0.1-0.6,0.2c-0.4,0.2-0.9,0.4-1.3,0.7
			c-0.2,0.1-0.4,0.1-0.7-0.1c-1-0.8-2.2-1.4-3.4-1.9c-0.5-0.2-1-0.3-1.6-0.4c-1.1-0.1-2.1-0.5-3.1-0.8c-0.5-0.1-0.9-0.3-1.4-0.4
			c-1.1-0.3-2.1-0.5-3.2-0.4c-0.8,0-1.6-0.1-2.4-0.5c-0.5-0.2-1-0.5-1.4-0.9c-0.1-0.1-0.1-0.2-0.1-0.4c0.3-0.8,0.6-1.5,1-2.3
			c0.1-0.1,0.2-0.2,0.3-0.2C27.3,41.6,27.7,41.6,28,41.6z"/>
		<path class="st95" d="M134,154.4c0.1-0.3,0.1-0.6,0.2-0.9c0.3-0.9,0.4-1.8,0.6-2.7c0.1-0.7,0.2-1.5,0.4-2.2c0.3-1.2,1-2.1,2.1-2.7
			c0.9-0.5,1.9-0.8,2.9-1.1c0.5-0.1,1-0.1,1.5-0.1c1.6-0.1,3.1-0.1,4.7,0c2.3,0.1,4.6,0.3,6.9,0.8c0.9,0.2,1.8,0.4,2.7,0.8
			c0.2,0.1,0.3,0.2,0.5,0.3c0.1,0,0.1,0.1,0,0.2c-0.2,0.2-0.4,0.4-0.6,0.6c-0.4,0.4-0.7,0.9-0.9,1.4c-0.2,0.6-0.2,1.1,0.1,1.7
			c0.2,0.5,0.5,0.9,0.7,1.4c0.6,0.9,1.1,1.9,1.7,2.8c0.3,0.4,0.5,0.9,0.6,1.3c0.3,0.7,0,1.6-0.7,1.9c-0.2,0.1-0.4,0.2-0.7,0.3
			c-0.8,0.3-1.5,0.9-2,1.6c-2.2,3.2-2.5,3.7-3.8,7.3c-0.4,1.3-1,2.4-1.8,3.5c-0.2,0.2-0.3,0.5-0.4,0.7c-0.1,0.2-0.2,0.4-0.2,0.6
			c0,0.4,0.1,0.7,0.5,0.8c0.2,0.1,0.4,0.1,0.6,0.1c0.2,0,0.5,0,0.7,0.1c0.7,0.1,1.1,0.5,1.3,1.1c0.1,0.3,0.2,0.6,0.3,0.9
			c0.1,0.3,0.2,0.7,0.3,1c0,0.1,0.1,0.3,0.1,0.4c0.1,0.5,0,0.8-0.4,1.2c-1.1,0.8-2.2,1.7-3.4,2.4c0,0-0.1,0-0.1,0.1
			c-0.2,0.1-0.2,0.1-0.3-0.1c0-0.1-0.1-0.3-0.1-0.4c-0.7-1.6-1.2-3.3-1.6-5.1c-0.3-1.4-0.5-2.8-0.5-4.3c0-1.2-0.1-2.3-0.1-3.5
			c0-1.1,0-2.2,0.1-3.2c0-0.6-0.2-1.1-0.5-1.5c-0.4-0.6-0.9-1.1-1.5-1.6c-0.7-0.6-1.4-1.1-2.1-1.5c-2.2-1.4-4.5-2.6-6.9-3.6
			C134.8,154.7,134.4,154.5,134,154.4z"/>
		<path class="st95" d="M119.9,124.4c0.1,0.1,0.2,0.2,0,0.3c-0.1,0.1-0.1,0.1-0.2,0.2c-1.9,1.9-3.6,3.9-5.4,5.9
			c-1.2,1.3-2.4,2.7-3.6,4c-0.8,0.9-1.5,1.7-2.3,2.6c-0.2,0.2-0.5,0.5-0.7,0.7c-0.1,0.1-0.3,0.1-0.4,0.1c-0.1-0.1-0.1-0.1-0.2-0.1
			c-0.7-0.4-1.3-1-1.8-1.5c-1.1-1.1-2.1-2.4-3-3.7c-1.3-1.9-2.4-3.8-3.2-5.9c-0.1-0.3-0.2-0.6-0.3-0.9c-0.3-0.7-0.6-1.4-1-2
			c-0.3-0.5-0.3-0.4,0.1-0.9c0,0,0,0,0,0c1.6-1.6,3.1-3.2,4.7-4.9c1-1.1,2-2.1,3-3.3c0.2-0.2,0.4-0.5,0.6-0.7c0.1-0.1,0.2-0.1,0.3,0
			c0.1,0.1,0.2,0.1,0.3,0.2c4.1,3.1,8.2,6.3,12.3,9.4C119.3,124,119.6,124.2,119.9,124.4z"/>
		<path class="st95" d="M148.2,179.6c0.1,0.4,0.1,0.4-0.2,0.6c-0.7,0.4-1.4,0.8-2.1,1c-0.7,0.3-1.4,0.3-2.1,0.2
			c-1.4-0.2-2.7,0-3.9,0.7c-0.8,0.4-1.6,0.9-2.4,1.4c-0.3,0.2-0.6,0.4-0.9,0.6c-0.2,0-0.1-0.2-0.1-0.2c-0.1-1.3-0.1-2.6-0.2-4
			c-0.1-1.2-0.3-2.4-0.5-3.6c-0.2-1.3-0.4-2.6-0.6-3.9c-0.3-1.6-0.5-3.2-0.8-4.8c-0.2-1.3-0.4-2.7-0.6-4c-0.2-1.1-0.3-2.2-0.5-3.3
			c-0.2-1-0.3-2-0.5-3c0-0.2,0-0.3,0.1-0.4c0.4-0.7,0.8-1.4,1-2.1c0-0.1,0.1-0.2,0.2-0.2c0.1,0,0.2,0.1,0.2,0.1
			c2.1,0.9,4.2,1.9,6.2,3.1c1.2,0.7,2.3,1.4,3.4,2.3c0.6,0.5,1.2,1,1.7,1.7c0.3,0.4,0.4,0.8,0.4,1.2c0,0.4,0,0.8,0,1.2
			c0,1.6,0,3.2,0,4.8c0,1.1,0.1,2.2,0.3,3.3c0.3,2,0.8,3.9,1.5,5.8C147.8,178.6,147.9,179.2,148.2,179.6z"/>
		<path class="st95" d="M74.4,88.9c-0.1,0-0.2,0-0.3-0.1c-1-1-2.1-2-3.2-2.9c-1.4-1.2-2.7-2.3-4.1-3.5c-1-0.8-2-1.7-3-2.5
			c-0.2-0.2-0.5-0.4-0.7-0.5c-0.2-0.1-0.3-0.2-0.4-0.4c0.1-0.1,0.2-0.2,0.2-0.3c0.9-1.3,2-2.4,3.2-3.3c1-0.8,2.1-1.6,3.2-2.2
			c2-1.2,4.2-2.1,6.4-2.8c0.4-0.1,0.7-0.1,1,0.1c0.9,0.5,1.7,1,2.6,1.4c2.2,1.3,4.4,2.7,6.5,4.2c1.3,0.9,2.5,1.9,3.6,3.1
			c0.3,0.4,0.6,0.7,1,1.1c0.2,0.2,0.1,0.3-0.1,0.4c-0.5,0.3-1,0.6-1.5,1c-1.1,0.7-2.2,1.3-3.3,1.8c-0.3,0.2-0.7,0.3-1.1,0.4
			c-1.8,0.5-3.5,1.1-5.2,2c-1.5,0.8-3,1.8-4.4,2.8C74.6,88.7,74.5,88.8,74.4,88.9z"/>
		<path class="st95" d="M99.5,144.9c-0.1,0.3-0.3,0.5-0.4,0.7c-0.5,0.6-1,1.2-1.5,1.7c-1.6,1.6-3.2,3.2-4.9,4.7
			c-1.7,1.5-3.6,3-5.3,4.5c-0.1,0.1-0.3,0.3-0.5,0.1c-0.1,0-0.1-0.1-0.2-0.1c-2.3-1.4-4.2-3.2-5.9-5.2c-1.3-1.5-2.4-3.2-3.4-4.9
			c-0.3-0.5-0.6-1.1-0.9-1.6c-0.1-0.2-0.1-0.4,0-0.6c0.1-0.1,0.1-0.3,0.2-0.4c0.4-0.7,0.9-1.4,1.3-2c0.9-1.2,1.8-2.3,2.8-3.3
			c1-1.1,2-2.1,3.2-3.1c0.3-0.2,0.6-0.5,0.9-0.7c0.1-0.1,0.2-0.1,0.4,0c0,0,0.1,0.1,0.1,0.1c3.1,2.3,6.2,4.6,9.4,6.9
			C96.4,142.7,97.9,143.8,99.5,144.9z"/>
		<path class="st95" d="M25.7,41.6c0,0.2-0.1,0.4-0.2,0.6c-0.4,0.8-0.7,1.7-1,2.6c-0.1,0.4-0.2,0.9-0.2,1.3c0,0.3,0,0.6,0.1,0.8
			c0.2,1,0.4,2,0.6,3c0.1,0.6,0.2,1.1,0.1,1.7c0,0.3-0.1,0.6-0.1,0.9c0,0.2-0.1,0.2-0.3,0.3c-0.2,0-0.3,0-0.5,0
			c-2.6,0.1-5.2,0.1-7.8,0.1c-1.4,0-2.8,0.1-4.2,0.1c-0.3,0-0.6-0.1-1-0.1c-0.2,0-0.2-0.1-0.2-0.3c-0.1-0.8-0.3-1.7-0.4-2.5
			c0-0.1,0-0.2-0.1-0.3c0-0.1-0.1-0.2-0.2-0.2c-0.2,0-0.3,0-0.5-0.1c-0.9,0-1.9-0.1-2.8,0c-0.6,0-1.1,0-1.6-0.2
			c-0.4-0.1-0.8-0.4-1.1-0.6c-0.2-0.2-0.4-0.4-0.4-0.6c-0.3-1-0.4-1.9-0.3-2.9c0-0.5,0.2-1,0.7-1.4c0.3-0.3,0.6-0.5,0.9-0.7
			c0.2-0.2,0.4-0.3,0.6-0.6c0.2-0.3,0.4-0.7,0.3-1.1c-0.1-0.6,0.1-0.9,0.5-1.3c0.4-0.3,0.8-0.6,1.2-0.9C7.8,39.1,8.1,39,8.3,39
			c1.5,0,3,0,4.4,0c1,0,0.9,0.1,0.9-0.9c0-0.5,0.1-1.1,0.1-1.6c0-0.2,0-0.2,0.3-0.3c0.1,0,0.2-0.1,0.3-0.1c0.8,0,1.6-0.1,2.3,0.1
			c0.6,0.1,1.1,0.4,1.5,0.9c0.8,1,1.7,1.9,2.8,2.6c1.2,0.8,2.6,1.3,4,1.6C25.1,41.4,25.4,41.5,25.7,41.6
			C25.6,41.5,25.6,41.6,25.7,41.6z"/>
		<path class="st95" d="M25.4,55.7c0-0.7,0.1-1.5,0.1-2.2c0-0.2,0-0.3,0.1-0.4c0.2-0.4,0.2-0.8,0.2-1.2c0-1.3-0.2-2.6-0.4-3.9
			c-0.1-0.5-0.2-1-0.3-1.5c-0.1-0.4,0-0.7,0.1-1.1c0-0.1,0.1-0.1,0.2-0.1c0.1,0.1,0.3,0.2,0.4,0.3c1.1,0.7,2.2,1.1,3.5,1.1
			c1.3,0,2.6,0.2,3.8,0.6c1,0.3,2,0.7,3,0.9c0.3,0.1,0.5,0.1,0.8,0.1c0.9,0.1,1.8,0.4,2.6,0.8c0.8,0.4,1.7,0.9,2.4,1.6
			c0.4,0.3,0.7,0.7,1,1.1c0.3,0.4,0.6,0.9,0.6,1.4c0.1,0.4,0,0.9-0.2,1.3c-0.2,0.4-0.4,0.7-0.6,1.1c-0.4,0.6-0.7,1.3-1,2
			c-0.4,1.1-0.4,2.3-0.1,3.4c0.3,0.9,0.7,1.8,1.2,2.6c0.2,0.3,0.3,0.5,0.5,0.8c0.1,0.2,0.1,0.2,0,0.4c-0.1,0.1-0.2,0.2-0.2,0.2
			c-0.9,0.9-1.8,1.8-2.5,2.9c-0.2,0.2-0.2,0.2-0.4,0.1c-0.5-0.3-1-0.6-1.5-0.9c-0.7-0.4-1.5-0.8-2.3-1.2c-0.3-0.1-0.5-0.3-0.8-0.4
			c-0.9-0.5-1.7-1.2-2.3-2c-0.5-0.7-1-1.5-1.4-2.3c-0.4-0.7-0.8-1.4-1.3-2.1c-0.5-0.7-1.2-1-2-1c-0.4,0-0.8,0-1.2,0
			c-0.4,0-0.7-0.1-1.1-0.2c-0.3-0.1-0.5-0.3-0.7-0.5c-0.2-0.2-0.3-0.5-0.3-0.8C25.5,56.3,25.4,56,25.4,55.7z"/>
		<path class="st95" d="M62.5,78.8c-0.2,0.1-0.3-0.1-0.5-0.2c-0.7-0.5-1.3-1-1.9-1.5c-2.3-1.7-4.5-3.5-6.8-5.2
			c-0.8-0.6-1.5-1.2-2.3-1.8c-0.2-0.1-0.4-0.3-0.3-0.5c0-0.1-0.1-0.1-0.1-0.1c-0.2,0.1-0.3,0-0.5-0.2c-0.6-0.5-1.1-0.9-1.7-1.4
			c-0.8-0.7-1.6-1.3-2.3-2c-0.4-0.4-0.8-0.8-1.2-1.2c-0.2-0.3-0.2-0.3,0-0.5c1-1.1,2.2-2.1,3.4-3c0.6-0.4,1.3-0.8,1.9-1.2
			c0.3-0.2,0.6-0.3,0.9,0c0,0,0.1,0,0.2,0.1c0.1,0.1,0.1,0.1,0.2,0.2c2.2,1.4,4.5,2.7,7.1,3.5c0.1,0,0.1,0.1,0.2,0.1
			c0.1,0,0.1,0,0.1,0.1c0,0.1,0,0.1-0.1,0.1c-0.1,0.1-0.2,0.1-0.4,0.1c-1.3,0.5-2.6,1.1-3.8,1.9c-1.1,0.7-2.1,1.4-3,2.3
			c-0.1,0-0.1,0.1-0.1,0.2c0,0,0,0,0,0.1c0,0,0.1,0.1,0.1,0.1c0.1,0,0.2-0.1,0.3-0.2c0.4-0.3,0.8-0.6,1.1-0.9c1.8-1.4,3.8-2.5,6-3.3
			c0.4-0.1,0.8-0.1,1.3,0c1.6,0.6,3.2,1.2,4.8,1.8c3.2,1.2,6.4,2.3,9.6,3.5c0.3,0.1,0.6,0.2,0.9,0.4c-0.1,0.1-0.2,0.1-0.3,0.2
			c-0.3,0.1-0.6,0.2-0.9,0.3c-1.9,0.6-3.7,1.5-5.4,2.5c-2.1,1.2-4,2.7-5.6,4.5C63.1,77.9,62.8,78.3,62.5,78.8z"/>
		<path class="st95" d="M107.2,138.6c-1.3,1.1-2.7,2.2-4,3.4c-1,0.8-2,1.7-3,2.5c-0.1,0.1-0.3,0.3-0.5,0.2c-0.1-0.1-0.2-0.2-0.3-0.2
			c-2.5-1.8-5-3.6-7.5-5.4c-2-1.5-4-2.9-6-4.4c-0.1-0.1-0.3-0.2-0.3-0.4c0,0,0.1-0.1,0.1-0.1c1-0.7,2-1.6,2.9-2.4
			c2.1-1.8,4.1-3.7,6.1-5.6c0.8-0.7,1.5-1.4,2.3-2.2c0.1-0.1,0.2-0.2,0.4-0.3c0,0.1,0.1,0.1,0.1,0.2c0.5,0.8,0.9,1.5,1.2,2.4
			c0.3,0.8,0.6,1.7,1,2.5c1,2.1,2.2,4,3.7,5.8c0.8,1.1,1.7,2.1,2.8,3c0.3,0.2,0.6,0.4,0.9,0.6C107.1,138.3,107.2,138.4,107.2,138.6z
			"/>
		<path class="st95" d="M206.6,138.3c-0.4,0-0.8,0-1.1,0.1c-1.7,0.2-3.3,0.4-5,0.5c-1.6,0.1-3.1,0.1-4.7,0.1c-0.5,0-0.9-0.1-1.4-0.2
			c-0.3-0.1-0.3-0.1-0.3-0.5c-0.1-1.6-0.4-3-1.1-4.4c-0.4-0.7-0.8-1.3-1.4-1.8c-0.2-0.2-0.2-0.2-0.1-0.5c0.4-0.7,0.8-1.5,1.1-2.2
			c1-2.4,1.3-4.9,1.1-7.5c0-0.4-0.1-0.8-0.2-1.2c0-0.2-0.1-0.3,0-0.5c0.1,0,0.2,0.1,0.3,0.1c2.6,1.7,5.4,2.9,8.4,3.7
			c0.3,0.1,0.6,0.2,0.9,0.2c0.3,0,0.4,0.2,0.5,0.5c0.3,1.1,0.6,2.2,0.9,3.3c0,0.1,0.1,0.3,0.1,0.4c0,0.1,0,0.2,0.1,0.2
			c0.3,0.1,0.3,0.4,0.3,0.6c0.1,1.1,0.3,2.2,0.4,3.3c0.3,2,0.5,3.9,1.1,5.8C206.6,138.2,206.6,138.2,206.6,138.3z"/>
		<path class="st95" d="M140.6,24.8c0.1,0.1,0.1,0.2,0.1,0.3c0,0.6,0.1,1.2,0.2,1.9c0.2,1,0.6,1.9,1.4,2.6c0.4,0.3,0.7,0.7,1.1,1
			c0.7,0.7,1.3,1.4,2,2.1c0.6,0.7,1.2,1.3,1.7,2c0.5,0.6,1,1.2,1.4,1.9c0.1,0.2,0.1,0.3-0.1,0.4c-0.5,0.3-1,0.6-1.5,0.9
			c-0.1,0.1-0.2,0.1-0.3,0.2c-0.1,0-0.2,0.1-0.2,0.1c-0.7,0.6-1.4,1.2-2.1,1.8c-0.9,0.8-1.8,1.6-2.6,2.5c-0.4,0.4-0.8,0.7-1.1,1.1
			c-0.4,0.4-0.8,0.8-1.3,1.1c-0.2,0.1-0.4,0.3-0.6,0.4c-0.6,0.3-0.5,0.4-0.9-0.2c-1-1.2-1.8-2.5-2.4-3.9c-0.4-0.9-0.7-1.9-0.8-2.9
			c0-0.3-0.1-0.6-0.2-0.9c-0.2-1.2-0.6-2.3-0.9-3.4c-0.6-2-1.4-4-2.1-6c-0.2-0.5-0.4-1.1-0.6-1.6c0,0,0-0.1,0-0.1
			c-0.1-0.2,0-0.3,0.2-0.3c0.4,0,0.7,0,1.1,0.1c0.7,0.1,1.4,0.2,2.1,0.3c0.7,0.1,1.4,0.1,2.1,0.2c0.7,0.1,1.4,0,2.2,0
			c0.2,0,0.3,0,0.4,0C139.6,25.9,140.2,25.5,140.6,24.8z"/>
		<path class="st95" d="M103.5,41.3c0-0.1-0.1-0.3,0-0.4c0.1-0.2,0.1-0.3,0.4-0.4c0.2-0.1,0.4-0.1,0.6-0.2c0.1,0,0.2-0.1,0.2-0.2
			c0-0.2,0.2-0.3,0.4-0.4c0.6-0.2,1.2-0.4,1.8-0.6c0.9-0.4,1.9-0.7,2.7-1.3c0.3-0.2,0.5-0.3,0.7-0.5c0.1,0,0.2,0.1,0.3,0.2
			c0.5,0.5,1.1,1,1.6,1.5c1,0.9,1.9,1.8,2.9,2.8c0.1,0.1,0.1,0.1,0.2,0.2c0.5,0.4,0.9,0.9,1.3,1.4c1.3,1.8,2.3,3.7,2.9,5.9
			c0.2,0.6,0.3,1.1,0.3,1.7c0,0.2-0.1,0.3-0.2,0.3c-0.1,0-0.2,0.1-0.3,0.1c-1.6,0.3-3.1,0.6-4.7,1c-2,0.5-3.9,1.1-5.8,1.8
			c-0.8,0.3-1.6,0.6-2.3,1.1c-0.2,0.1-0.4,0.3-0.6,0.4c-0.1,0.1-0.2,0.1-0.3-0.1c0-0.1,0-0.1-0.1-0.2c-0.4-1-0.8-2-1.2-3
			c-0.2-0.6-0.3-1.2-0.3-1.8c0.1-0.9,0.2-1.7,0.4-2.6c0.2-1,0.4-2.1,0.7-3.1c0.1-0.2,0.1-0.5,0-0.7c-0.1-0.5-0.3-1.1-0.6-1.5
			c0-0.1-0.1-0.3-0.2-0.3c0-0.1-0.1-0.2-0.2-0.3c0-0.1-0.1-0.2-0.2-0.2C103.9,41.5,103.7,41.4,103.5,41.3L103.5,41.3z"/>
		<path class="st95" d="M126.3,118.4c0,0.1,0,0.2,0,0.2c-0.6,1.1-1.3,2.1-2.1,2.9c-1.1,1-2.3,1.9-3.5,2.8c-0.2,0.1-0.3,0.1-0.5,0
			c-0.1-0.1-0.2-0.2-0.4-0.3c-3.6-2.7-7.2-5.5-10.8-8.2c-0.8-0.6-1.5-1.2-2.3-1.8c-0.1-0.1-0.1-0.2,0-0.3c0.1-0.1,0.2-0.3,0.3-0.4
			c0.6-0.7,1.3-1.3,1.9-1.9c1.5-1.5,3.2-2.9,4.8-4.3c0.5-0.5,1.1-0.9,1.6-1.4c0.2-0.1,0.3-0.3,0.5-0.3c0.1,0.1,0.2,0.2,0.3,0.3
			c0.5,0.6,0.9,1.2,1.4,1.8c1.8,2.3,3.5,4.6,5.3,6.8c0.9,1.2,1.8,2.3,2.8,3.4C125.7,117.9,125.9,118.2,126.3,118.4z"/>
		<path class="st95" d="M171.4,139.8c0,0.1,0,0.1-0.1,0.2c-0.1,0.4-0.1,0.4-0.5,0.3c-0.3-0.1-0.6,0-0.9,0.1
			c-0.2,0.1-0.3,0.2-0.5,0.3c-0.4,0.3-0.8,0.5-1.3,0.7c-3,1.4-6.1,2.7-9.2,3.9c-0.1,0-0.1,0-0.2,0.1c-0.1,0-0.2,0-0.2-0.1
			c-0.1-0.2-0.2-0.3-0.2-0.5c-0.3-0.8-0.5-1.6-0.6-2.4c-0.3-1.6-0.4-3.2-0.5-4.9c0-0.9-0.1-1.8-0.2-2.7c0-0.2,0-0.4,0-0.6
			c0.1-0.1,0.2-0.1,0.3-0.2c2.1-1.3,4.3-2.5,6.5-3.5c1.8-0.8,3.7-1.5,5.6-1.9c0.6-0.1,1.3-0.3,2-0.3c0.2,0,0.3,0,0.3,0.2
			c0,0.1,0.1,0.2,0.1,0.3c0.3,1,0.4,2.1,0.5,3.2c0,1.1,0,2.1-0.1,3.2c-0.1,1.2-0.3,2.4-0.5,3.6C171.5,139.2,171.4,139.5,171.4,139.8
			z"/>
		<path class="st95" d="M86.8,157.1c0.5,0.3,1,0.7,1.4,1c0.1,0.1,0.3,0.2,0.4,0.3c-0.5,0-0.8,0-1.2,0.1c-0.4,0-0.8,0-1.2,0
			c-1.3,0-2.6,0.1-3.9,0.3c-1.1,0.2-2.2,0.3-3.3,0.4c-0.7,0.1-1.4,0.2-2,0.1c-0.4-0.1-0.9,0-1.3,0.1c-0.9,0.2-1.8,0.6-2.6,0.9
			c-0.7,0.3-1.4,0.6-2.1,0.9c-0.2,0.1-0.4,0.1-0.5,0.2c-0.3,0.1-0.6,0.1-0.8-0.2c-0.5-0.5-0.9-1.1-1.1-1.8c-0.5-2.7-1.2-5.4-1.8-8
			c0-0.2-0.1-0.4,0-0.6c0.5,0,1,0,1.5,0c0.2,0,0.4,0,0.6-0.1c1.9-0.5,3.6-1.4,5-2.7c1-0.9,1.9-2,2.4-3.3c0,0,0,0,0.1-0.1
			c0.2,0.2,0.3,0.4,0.4,0.6c1.4,2.4,2.9,4.7,4.8,6.8c1.5,1.6,3.1,3.1,4.9,4.2C86.6,156.7,86.6,156.7,86.8,157.1
			C86.8,157.1,86.8,157.1,86.8,157.1z"/>
		<path class="st95" d="M185.3,75.9c0,0.7-0.1,1.4-0.4,2c-0.7,1.5-1.2,3.1-1.6,4.7c-0.1,0.5-0.2,0.9-0.2,1.4c0,0.3-0.1,0.4-0.3,0.5
			c-1,0.4-1.9,0.8-2.9,1.3c-0.2,0.1-0.3,0.1-0.4-0.1c-0.4-0.4-0.7-0.8-0.9-1.4c-0.5-1.7-1-3.4-1.4-5.2c-0.2-0.8-0.4-1.5-0.4-2.3
			c0-0.3,0-0.6,0.1-1c0.1-0.6,0.1-1.1,0-1.7c-0.1-0.7-0.2-1.5-0.3-2.2c-0.1-1.1-0.3-2.1-0.5-3.2c-0.3-1.2-0.3-2.5-0.2-3.7
			c0.1-1.5,0.4-2.9,0.7-4.3c0-0.2,0.1-0.4,0.1-0.6c0,0,0-0.1,0.1-0.1c0,0,0.1,0,0.1,0c0.1,0.1,0.2,0.3,0.3,0.4
			c0.1,0.2,0.3,0.4,0.4,0.5c0.7,0.6,1.6,1.1,2.6,1.3c0.7,0.1,1.4,0.4,2.1,0.7c0.8,0.4,1.3,1.1,1.5,2c0.1,0.7,0.1,1.3,0.2,2
			c0.1,0.5,0.2,1,0.3,1.5c0.3,1.3,0.5,2.6,0.8,3.9c0.1,0.7,0.3,1.4,0.3,2.2C185.2,75.1,185.3,75.5,185.3,75.9z"/>
		<path class="st95" d="M80.8,42.8c0-0.1-0.1-0.2-0.1-0.3c0-0.1,0-0.2,0-0.3c0.2-0.2,0.1-0.4,0-0.6c-0.4-1-0.9-1.8-1.6-2.6
			c-0.3-0.3-0.6-0.5-1-0.7c-0.2-0.1-0.3-0.2-0.4-0.3c-0.8-0.9-1.5-1.8-2-2.8c-0.3-0.7-0.5-1.5-0.4-2.3c0-0.2,0.1-0.3,0.2-0.5
			c0.5-0.6,1.1-1.1,1.9-1.3c0.4-0.1,0.8-0.3,1.2-0.4c0.5-0.2,1-0.1,1.4,0.3c0.6,0.5,1.1,1.1,1.2,1.8c0.1,0.4,0.2,0.9,0.3,1.3
			c0.1,0.7,0.4,1.4,0.8,2c0.3,0.4,0.4,0.8,0.6,1.2c0.1,0.4,0.3,0.8,0.4,1.2c0.4,1,1.1,1.7,2.1,2.1c0.1,0,0.1,0,0.2,0.1
			c1,0.4,2,0.5,3,0.3c1-0.1,2-0.2,3.1-0.2c0.4,0,0.9-0.1,1.3-0.1c0.6-0.1,1.2-0.4,1.6-0.9c0.1-0.1,0.2-0.2,0.3-0.3
			c0.2-0.3,0.3-0.3,0.5,0c0.8,0.9,1.8,1.4,3,1.5c0.6,0.1,1.2,0.1,1.8,0.1c0.8,0,1.6-0.1,2.4-0.2c0.1,0,0.1,0,0.2,0
			c0.3,0,0.4,0,0.3,0.4c0,0,0,0,0,0.1c-0.3,0.4-0.6,0.6-0.9,0.9c-0.5,0.4-1.1,0.7-1.7,0.9c-1.9,0.9-3.8,1.6-5.7,2.4
			c-0.9,0.4-1.8,0.7-2.7,1.2c-1,0.5-1.9,1.2-2.6,2.1c-0.1,0.1-0.1,0.2-0.2,0.2c0,0-0.1,0.1-0.2,0c-0.1,0-0.1-0.1-0.2-0.1
			c-0.6-0.6-1.2-0.9-2-1.2c-0.7-0.2-1.4-0.4-2.1-0.6c-1-0.3-1.9-0.8-2.6-1.6c-0.5-0.7-0.9-1.4-1.3-2.1C81,43,81,42.9,80.8,42.8z"/>
		<path class="st95" d="M177.8,89.2c0-0.3-0.1-0.6-0.2-0.8c0-0.2-0.1-0.4-0.2-0.6c-0.1-0.6-0.2-0.6,0.4-0.8c0.5-0.2,1-0.5,1.5-0.7
			c0.7-0.3,1.4-0.6,2.1-0.9c0.4-0.2,0.8-0.4,1.2-0.6c0.2-0.1,0.3-0.1,0.4,0.1c0.2,0.4,0.5,0.7,0.9,1c0.7,0.4,1.4,0.6,2.2,0.8
			c1.3,0.3,2.6,0.3,3.9,0.2c0.7-0.1,0.7-0.1,1.1,0.6c0.1,0.2,0.3,0.5,0.4,0.7c0.4,0.6,0.6,1.3,0.7,2c0.2,1.3,0,2.6-0.2,3.8
			c-0.3,1.7-0.7,3.4-1.2,5c-0.1,0.2,0,0.4-0.3,0.5c-0.4-0.2-0.8-0.3-1.3-0.5c-3.2-1-6.4-1.7-9.7-2.1c-0.2,0-0.3-0.1-0.5-0.1
			c-0.1,0-0.1-0.1-0.1-0.2c0-0.1,0-0.2,0-0.3c0-0.6,0-1.2-0.1-1.8c-0.1-1.3-0.4-2.5-0.6-3.8C178.1,90.3,178,89.7,177.8,89.2z"/>
		<path class="st95" d="M67.3,96.8c0-0.1,0-0.1-0.1-0.2c-0.1-0.1-0.1-0.2,0.1-0.3c0.1-0.1,0.2-0.2,0.3-0.3c2-1.9,4-3.9,6-5.8
			c0.2-0.2,0.4-0.5,0.8-0.4c0.1,0.1,0.2,0.2,0.3,0.3c1.5,1.1,3.1,2.3,4.6,3.4c1.2,0.9,2.4,1.7,3.6,2.6c0.2,0.2,0.2,0.2,0.1,0.4
			c-0.5,0.9-0.9,1.8-1.2,2.8c-0.2,0.7-0.5,1.3-0.9,2c-0.7,1.1-1.5,2.2-2.3,3.2c-0.6,0.7-1.2,1.4-1.9,2.1c-0.2,0.2-0.5,0.4-0.8,0.6
			c-0.2,0.1-0.4,0.1-0.6,0c-0.2-0.1-0.4-0.3-0.6-0.5c-0.6-0.6-1.2-1.3-1.8-1.9c-1.3-1.6-2.5-3.2-3.7-4.8c-0.7-0.9-1.4-1.8-1.9-2.8
			C67.4,96.9,67.4,96.9,67.3,96.8z"/>
		<path class="st95" d="M74.4,89.6c0-0.2,0-0.4,0.1-0.6c0.2-0.1,0.3-0.2,0.5-0.3c1-0.7,1.9-1.3,2.9-1.9c1.9-1.1,3.9-2.1,6.1-2.6
			c0.8-0.2,1.6-0.5,2.3-0.9c1.3-0.6,2.5-1.4,3.7-2.1c0.2-0.1,0.4-0.3,0.6-0.4c0.2-0.1,0.2-0.1,0.4,0.1c0.1,0.1,0.1,0.1,0.1,0.2
			c0.5,0.7,1.1,1.3,1.6,2c0.6,0.7,1.2,1.5,1.8,2.2c0.2,0.2,0.3,0.4,0.6,0.4c-0.1,0.1,0,0.2,0,0.4c0,0.1-0.1,0.1-0.2,0.2
			c-1.6,0.9-3.7,1.6-4.8,3.2c-0.3,0.4-0.5,0.9-0.7,1.3c-0.2,0.5-0.5,0.9-0.8,1.4c-0.4,0.6-0.8,1.1-1.4,1.5c-0.9,0.6-1.8,1.2-2.8,1.8
			c-0.3,0.2-0.7,0.4-1.1,0.6c-0.1,0.1-0.2,0.1-0.3,0c-0.1-0.1-0.2-0.1-0.3-0.2c-2.2-1.6-4.5-3.3-6.7-4.9C75.6,90.5,75,90,74.4,89.6z
			"/>
		<path class="st95" d="M157,134c-0.1,0-0.2,0-0.2,0c-0.4-0.3-0.8-0.2-1.3-0.1c-0.2,0.1-0.3,0.2-0.5,0.1c-0.1-0.9-0.4-1.8-0.8-2.6
			c-0.8-1.6-1.9-2.8-3.5-3.6c-0.4-0.2-0.8-0.3-1.3-0.5c-0.3-0.1-0.3-0.1-0.3-0.4c0-0.5,0-1.1-0.1-1.6c-0.3-1.8-1.1-3.5-2.1-5
			c-0.2-0.3-0.4-0.5-0.6-0.8c-0.1-0.1-0.1-0.2,0-0.3c0.1-0.1,0.3-0.2,0.5-0.2c0.9-0.4,1.9-0.8,2.9-1.1c3-1,6.1-1.8,9.1-2.6
			c0.5-0.1,0.5-0.2,0.5,0.4c0,0.2,0,0.3,0,0.5c0,0.6,0,1.2-0.1,1.9c-0.1,1.3-0.4,2.5-0.8,3.8c-0.3,0.9-0.5,1.8-0.6,2.8
			c-0.1,0.9-0.1,1.8,0,2.7c0.1,0.9,0.2,1.8,0.4,2.6c0.2,0.9,0.5,1.8,1.1,2.5c0,0,0,0,0,0.1c-0.2,0.1-0.3,0.2-0.5,0.3
			C158.2,133.3,157.5,133.6,157,134z"/>
		<path class="st95" d="M140.6,24.5c-0.2,0.2-0.4,0.4-0.6,0.6c-0.4,0.4-0.9,0.7-1.6,0.7c-0.4,0-0.9,0.1-1.3,0c-0.2,0-0.4,0-0.6,0
			c-1,0-2-0.1-3-0.2c-0.8-0.1-1.5-0.2-2.3-0.3c-0.4-0.1-0.8,0-1.1,0.1c-1.6,0.5-3.1,1.2-4.6,2c-1.7,0.9-3.3,1.8-4.9,2.8
			c-0.1,0-0.2,0.1-0.3,0.1c-0.1,0-0.1,0-0.1-0.1c-0.1-0.2-0.1-0.3-0.2-0.5c-0.7-2.1-1.4-4.2-2.1-6.2c-0.1-0.2-0.1-0.4-0.2-0.5
			c0,0,0-0.1,0-0.1c0-0.3,0-0.4,0.3-0.5c1-0.4,2.1-0.7,3.1-0.9c0.7-0.1,1.4-0.3,2.2-0.4c0.4-0.1,0.7-0.1,1.1-0.1
			c1,0,1.9-0.2,2.9-0.1c0.5,0,1.1,0.1,1.6,0.1c1,0,2-0.1,3.1-0.2c1.4-0.1,2.7-0.4,4.1-0.7c1.6-0.4,3.1-1,4.6-1.7
			c0.2-0.1,0.5-0.3,0.7-0.4c0.1-0.1,0.2-0.1,0.3-0.1c0.1,0.1,0,0.3,0,0.4c0,0.9,0,1.8-0.1,2.7c-0.1,0.7-0.2,1.4-0.6,2.1
			c-0.1,0.1-0.1,0.3-0.1,0.4C140.9,24,140.7,24.2,140.6,24.5z"/>
		<path class="st95" d="M117.7,23.2c0,0.2,0.1,0.3,0.1,0.4c0.7,2.2,1.5,4.4,2.2,6.6c0,0.1,0.1,0.2,0.1,0.3c-0.1,0-0.1,0.1-0.2,0.1
			c-0.7,0.2-1.4,0.4-2.1,0.6c-1.2,0.3-2.4,0.7-3.7,1c-0.5,0.1-1,0.4-1.5,0.7c-0.6,0.4-1.1,1-1.4,1.6c-0.5,0.8-0.8,1.6-1,2.5
			c0,0,0,0,0,0c-0.9,0.7-1.9,1.2-3,1.6c-0.6,0.3-1.3,0.5-2,0.7c-0.1,0-0.3,0.1-0.4,0.1c-0.1,0-0.2,0-0.2-0.1c0-0.2-0.1-0.4-0.1-0.6
			c-0.1-0.7-0.1-1.4-0.1-2.1c-0.1-1.1-0.2-2.2-0.3-3.3c-0.1-0.7-0.1-1.3-0.1-2c0-0.2,0-0.4-0.1-0.6c0-0.3,0-0.5-0.1-0.8
			c-0.1-0.8,0.3-1.3,0.9-1.6c0.3-0.2,0.6-0.3,1-0.4c1.1-0.3,2.2-0.6,3.3-1.1c1-0.4,2-1,3-1.5c0.7-0.4,1.5-0.9,2.2-1.3
			c0.9-0.5,1.9-0.9,2.8-1.2c0.3-0.1,0.4-0.1,0.5,0.2C117.6,23.1,117.6,23.2,117.7,23.2z"/>
		<path class="st95" d="M155.6,44.7c-0.2,0.2-0.3,0.4-0.5,0.7c-0.5,0.5-1,0.9-1.7,1.3c-1,0.6-2.1,1-3.3,1.4
			c-0.7,0.2-1.3,0.5-1.8,0.9c-1.5,1-3.1,2-4.5,3.1c0,0,0,0,0,0c-0.2,0.1-0.2,0.1-0.3-0.1c-0.2-0.3-0.3-0.7-0.5-1
			c-0.6-1.2-1.4-2.2-2.3-3.2c-0.4-0.4-0.8-0.9-1.2-1.3c-0.2-0.2-0.5-0.4-0.7-0.6c-0.1-0.1-0.1-0.1-0.2-0.2c0-0.1,0.1-0.1,0.2-0.2
			c0.3-0.2,0.5-0.3,0.8-0.5c0.6-0.3,1.1-0.8,1.6-1.3c0.4-0.4,0.8-0.8,1.3-1.2c1.1-1.1,2.3-2.1,3.4-3.2c0.3-0.3,0.6-0.5,0.9-0.7
			c0.1-0.1,0.2-0.2,0.3-0.3c0.4-0.2,0.8-0.5,1.2-0.7c0.7-0.4,0.7-0.4,1.3,0.2c0.3,0.4,0.6,0.8,1,1.2c0.8,0.8,1.6,1.6,2.4,2.4
			c0.9,0.8,1.8,1.7,2.8,2.4c0.2,0.2,0.2,0.2,0.2,0.5C155.7,44.3,155.7,44.5,155.6,44.7z"/>
		<path class="st96" d="M76,107.3c0.1,0.2,0.2,0.3,0.3,0.4c0.8,0.9,1.8,1.7,2.7,2.4c1,0.8,2.1,1.4,3.4,1.9c0.6,0.2,1.2,0.4,1.8,0.6
			c2.1,0.7,4.1,1.6,6,2.7c0.5,0.3,0.4,0.3,0.8-0.1c2.3-2.3,4.5-4.6,6.8-6.9c0.4-0.4,0.4-0.4,0-0.7c-4.2-3.3-8.4-6.5-12.6-9.8
			c-0.5-0.4-1.1-0.8-1.6-1.3c-0.1-0.1-0.2-0.1-0.3,0c-0.1,0.1-0.2,0.3-0.2,0.4c-0.4,0.8-0.7,1.5-1,2.4c-0.2,0.8-0.6,1.4-1,2.1
			c-0.9,1.5-2,2.8-3.2,4.1C77.3,106.3,76.7,106.9,76,107.3z M75.6,107.5c-0.1,0.1-0.3,0.2-0.4,0.3c-2,1.4-4.1,2.7-6.2,3.7
			c-0.1,0-0.2,0.1-0.3,0.1c-0.1,0.1-0.1,0.1-0.1,0.2c0,0.1,0,0.1,0.1,0.2c0.7,1.4,1.4,2.9,2.1,4.3c0.1,0.1,0.1,0.2,0.2,0.3
			c1.4,2.2,2.8,4.3,4.3,6.4c0.5,0.6,0.9,1.3,1.5,1.9c0.1,0.1,0.2,0.2,0.4,0.4c0.1,0,0.1,0.1,0.2,0c0.1-0.1,0.2-0.1,0.3-0.2
			c0.6-0.5,1.2-0.9,1.9-1.4c3.4-2.6,6.9-5.1,10.4-7.6c0.1-0.1,0.2-0.1,0.3-0.2c0.1-0.1,0.1-0.1,0-0.2c-0.1,0-0.1-0.1-0.2-0.1
			c-2.2-1.2-4.5-2.2-6.9-3c-0.9-0.3-1.8-0.7-2.7-1.2c-1.6-0.9-3-2.1-4.4-3.4c-0.1-0.1-0.2-0.2-0.4-0.4
			C75.7,107.6,75.6,107.6,75.6,107.5z M90.6,116c-0.1,0-0.1,0-0.1,0c-0.1,0.1-0.3,0.2-0.4,0.3c-2.1,1.5-4.1,3-6.2,4.5
			c-2,1.5-4,3-6,4.4c-0.1,0.1-0.2,0.2-0.4,0.3c-0.1,0.1-0.1,0.1,0,0.2c0.1,0.1,0.1,0.2,0.2,0.2c0.5,0.6,1.1,1.2,1.6,1.8
			c1.5,1.7,3,3.4,4.6,5.1c0.3,0.4,0.7,0.7,1,1.1c0.1,0.2,0.2,0.2,0.4,0.1c0.3-0.2,0.6-0.4,0.9-0.6c1.6-1.3,3.1-2.6,4.6-4
			c1.4-1.2,2.7-2.5,4-3.7c0.6-0.6,1.3-1.2,1.9-1.8c0.3-0.3,0.3-0.3,0.1-0.8c-0.4-0.5-0.8-1-1.2-1.5c-1.1-1.5-2.4-2.8-3.7-4.2
			c-0.4-0.4-0.8-0.8-1.2-1.2C90.8,116,90.7,116,90.6,116z M77.3,125.8c-0.1,0-0.2,0.1-0.3,0.2c-1.7,2.1-3.3,4.2-5,6.3
			c-0.4,0.5-0.8,1-1.2,1.6c-0.2,0.2-0.2,0.3,0,0.5c0.6,0.7,1.1,1.5,1.5,2.3c0.5,0.9,0.9,1.8,1.4,2.7c0.7,1.3,1.3,2.6,2,3.9
			c0.1,0.2,0.2,0.3,0.2,0.4c0.1,0.1,0.2,0.1,0.3,0c0.3-0.5,0.5-0.9,0.8-1.4c0.8-1.2,1.7-2.3,2.7-3.4c1.1-1.2,2.2-2.4,3.4-3.5
			c0.5-0.4,1-0.9,1.5-1.3c0.1-0.1,0.1-0.2,0-0.3c-0.1-0.1-0.2-0.2-0.3-0.3c-0.8-0.9-1.6-1.8-2.4-2.7c-1.4-1.6-2.9-3.2-4.3-4.8
			c-0.1-0.1-0.2-0.2-0.3-0.3C77.4,125.9,77.4,125.8,77.3,125.8z M106,113.9c0-0.1-0.1-0.1-0.1-0.1c-0.1-0.1-0.3-0.2-0.4-0.3
			c-2.2-1.6-4.4-3.3-6.6-4.9c-0.6-0.4-0.5-0.4-1,0.1c-2.2,2.3-4.5,4.5-6.7,6.8c-0.1,0.1-0.2,0.2-0.2,0.2c-0.1,0.1-0.1,0.2,0,0.3
			c0.1,0.1,0.1,0.1,0.2,0.2c1,1,1.9,2,2.9,3.1c1,1.2,2,2.4,2.9,3.6c0.1,0.1,0.2,0.2,0.2,0.3c0.1,0.1,0.2,0.1,0.2,0
			c0.1-0.1,0.2-0.2,0.3-0.3c1.4-1.4,2.8-2.9,4.2-4.3c1.1-1.1,2.1-2.3,3.2-3.4c0.3-0.3,0.5-0.6,0.8-1C106,114,106,114,106,113.9z"/>
		<path class="st97" d="M171.8,128c0.1,0,0.2,0,0.3-0.1c0.5-0.3,1-0.6,1.5-0.9c1.3-0.8,2.5-1.7,3.4-2.9c0.1-0.1,0.2-0.2,0.4-0.4
			c0.6-0.6,1.2-1,1.9-1.5c1.2-0.8,2.5-1.6,3.9-2.2c0.5-0.2,0.4-0.3,0.2-0.7c-0.8-1.5-1.6-3-2.3-4.5c-0.6-1.4-1.2-2.8-1.7-4.2
			c-0.1-0.5-0.3-1-0.3-1.6c0-0.6,0-0.6-0.6-0.4c0,0-0.1,0-0.1,0c-2.3,0.9-4.7,1.8-7,2.6c-1.5,0.6-3.1,1.2-4.7,1.5c0,0,0,0-0.1,0
			c-0.1,0-0.2,0.1-0.1,0.2c0,0.1,0.1,0.2,0.1,0.3c0.2,0.5,0.4,1,0.5,1.5c0.2,1,0.4,1.9,0.5,2.9c0.2,1.7,0.8,3.3,1.7,4.7
			c1,1.6,1.9,3.3,2.5,5.1C171.7,127.8,171.8,127.9,171.8,128z M163.2,99.6c0,0.2,0,0.4,0.1,0.5c0.1,0.6,0.2,1.2,0.3,1.8
			c0.3,2,0.7,4.1,1.2,6.1c0.3,1.2,0.6,2.5,1,3.7c0.1,0.3,0.2,0.6,0.3,0.8c0.1,0.1,0.2,0.2,0.3,0.2c0.1,0,0.2,0,0.3-0.1
			c0.5-0.1,1.1-0.3,1.6-0.5c2.6-0.8,5.1-1.8,7.6-2.8c0.8-0.3,1.6-0.6,2.4-0.9c0.3-0.1,0.3-0.1,0.2-0.4c-0.1-0.4-0.2-0.9-0.2-1.3
			c-0.2-1.7-0.3-3.3-0.4-5c-0.1-1.4-0.1-2.9-0.1-4.3c0-0.1,0-0.1,0-0.2c0-0.1-0.1-0.2-0.2-0.2c-0.3,0-0.6-0.1-1-0.1
			c-2.4-0.1-4.8,0-7.2,0.4c-1.4,0.3-2.8,0.6-4.2,1.1c-0.6,0.2-1.3,0.5-1.9,0.8C163.3,99.4,163.2,99.5,163.2,99.6z M165.8,113.1
			c-0.1,0-0.2,0-0.3,0.1c-0.7,0.2-1.4,0.5-2.1,0.7c-1.2,0.4-2.4,0.9-3.6,1.2c-0.3,0.1-0.3,0.1-0.3,0.4c0,0.6,0,1.2,0,1.8
			c0,1.5-0.3,3-0.8,4.4c-0.4,1.2-0.6,2.5-0.7,3.7c0,0.9,0,1.9,0.1,2.8c0.1,0.9,0.3,1.9,0.7,2.8c0.1,0.3,0.2,0.6,0.4,0.9
			c0.3,0.5,0.5,0.4,0.9,0.2c1.8-1,3.6-1.8,5.5-2.5c1.8-0.7,3.6-1.2,5.5-1.4c0.1,0,0.1,0,0.2,0c0.1,0,0.2-0.1,0.2-0.2
			c-0.1-0.2-0.1-0.4-0.2-0.6c-0.6-1.7-1.4-3.3-2.4-4.8c-0.6-1-1.1-2.1-1.3-3.2c-0.2-0.8-0.3-1.7-0.4-2.5c-0.2-1.1-0.4-2.1-0.8-3.1
			c-0.1-0.1-0.1-0.3-0.2-0.4C166.1,113.1,166,113.1,165.8,113.1z M154.3,116.3c0,0,0.1,0,0.2-0.1c0.6-0.2,1.3-0.3,1.9-0.5
			c1.5-0.4,3-0.8,4.5-1.3c1.1-0.4,2.2-0.8,3.3-1.1c0.4-0.2,0.9-0.3,1.3-0.4c0.4-0.1,0.4-0.1,0.2-0.5c-0.3-0.8-0.6-1.6-0.8-2.4
			c-0.8-3-1.4-6.1-1.8-9.2c0-0.3-0.1-0.6-0.1-0.9c0-0.1-0.1-0.2-0.3-0.1c-0.1,0.1-0.2,0.1-0.3,0.2c-0.5,0.3-1,0.7-1.5,1
			c-1.7,1.1-3.3,2.3-5.1,3.2c-1.4,0.8-2.9,1.5-4.6,1.8c-0.7,0.1-0.6,0.2-0.4,0.8c1,3,2,6,3.1,9c0,0.1,0.1,0.3,0.1,0.4
			C154.1,116.3,154.1,116.3,154.3,116.3z M142.6,107.6c0.2,0.3,0.4,0.6,0.7,0.9c0.7,0.9,1.2,1.8,1.6,2.9c0.4,1.1,0.6,2.2,0.2,3.4
			c-0.3,0.9-0.3,1.8,0,2.7c0.1,0.5,0.3,1,0.6,1.5c0.2,0.3,0.2,0.3,0.5,0.2c0.1,0,0.1-0.1,0.2-0.1c0.7-0.4,1.5-0.7,2.2-1
			c1.5-0.6,3.1-1,4.7-1.5c0.7-0.2,0.6-0.1,0.4-0.8c-0.7-2.2-1.5-4.3-2.2-6.5c-0.3-1-0.7-2-1-3c0-0.1-0.1-0.2-0.3-0.2
			c-0.7,0.1-1.4,0.1-2.2,0.1c-0.7,0-1.5,0-2.2,0.1c-0.7,0.1-1.3,0.3-1.9,0.5C143.5,107.1,143.1,107.4,142.6,107.6z"/>
		<path class="st95" d="M210.9,128.4c1.8,0,3.2,0,4.7,0.1c0.4,0,0.8,0.1,1.1,0.1c0.3,0,0.5,0.2,0.6,0.6c0.1,0.4,0.1,0.8,0,1.2
			c-0.1,1.5-0.4,3-0.7,4.4c-0.2,0.9-0.3,1.9-0.5,2.8c0,0.3-0.1,0.6-0.1,0.9c0,0.3-0.2,0.5-0.4,0.6c-0.5,0.2-1,0.2-1.5,0.2
			c-0.8,0-1.6,0-2.4-0.1c-1.4-0.1-2.7-0.4-4-0.7c-0.8-0.2-0.7,0-1-0.9c-0.3-1-0.5-2-0.7-3c-0.3-1.9-0.6-3.9-0.7-5.8
			c0-0.2,0-0.3,0.2-0.3c0.6,0,1.2-0.1,1.8-0.1C208.7,128.4,210,128.4,210.9,128.4z"/>
		<path class="st95" d="M64.9,140.5c0.4-0.2,0.7-0.6,1.1-0.8c0.6-0.4,1-0.9,1.4-1.4c0.9-1.2,1.8-2.3,2.7-3.4
			c0.1-0.1,0.2-0.2,0.2-0.3c0.2,0,0.2,0.1,0.3,0.2c0.5,0.7,1,1.4,1.4,2.1c0.6,1.2,1.3,2.5,1.9,3.7c0.6,1.2,1.3,2.4,1.9,3.6
			c0.1,0.2,0.1,0.4,0.1,0.6c-0.3,0.9-0.8,1.6-1.4,2.3c-1.6,1.7-3.5,2.9-5.8,3.5c-0.3,0.1-0.6,0.1-0.9,0.1c-0.4,0-0.8,0-1.2,0
			c-0.1-0.1-0.2-0.2-0.2-0.3c-0.2-0.9-0.4-1.8-0.5-2.7c-0.1-1.2-0.3-2.4-0.5-3.6c-0.2-1-0.3-2.1-0.5-3.1
			C64.9,140.9,64.8,140.7,64.9,140.5z"/>
		<path class="st95" d="M65.9,121.8c1.9-0.8,3.9-1.5,5.8-2.3c0.7-0.3,0.6-0.3,1,0.3c1,1.5,2,2.9,3.1,4.4c0.3,0.4,0.7,0.9,1.1,1.3
			c0.1,0.1,0.1,0.1,0.2,0.2c-0.2,0.3-0.4,0.5-0.6,0.8c-1.9,2.4-3.8,4.8-5.6,7.2c-0.3,0.4-0.3,0.4-0.7,0c-1.6-1.8-3.4-3.1-5.6-4.1
			c-0.1,0-0.1,0-0.2-0.1c-0.6-0.3-0.6-0.3-0.6-1c0-0.4,0.2-0.8,0.3-1.1c0.2-0.4,0.4-0.7,0.6-1c0.3-0.4,0.5-0.8,0.8-1.3
			c0.4-0.6,0.6-1.3,0.7-2C66.1,122.5,66,122.2,65.9,121.8z"/>
		<path class="st95" d="M136.5,114 M135.9,114.6c-0.7-0.8-1.4-1.5-2.2-2.2c-0.2-0.2-0.4-0.4-0.6-0.6c-0.1-0.1-0.1-0.2,0-0.3
			c0.1-0.1,0.2-0.2,0.3-0.3c0.7-0.6,1.4-1.3,2.1-1.9c1.2-1.1,2.7-1.8,4.3-2c0.5-0.1,0.9,0,1.4,0.2c0.1,0,0.3,0.1,0.4,0.1
			c0.4,0,0.6,0.2,0.8,0.5c0.7,0.9,1.4,1.9,1.8,2.9c0.2,0.5,0.4,1.1,0.5,1.7c0.1,0.6,0.1,1.3-0.1,1.9c-0.1,0.4-0.2,0.8-0.2,1.2
			c-0.1,1.2,0.1,2.3,0.7,3.3c0,0.1,0.1,0.2,0.1,0.2c0.1,0.2,0.1,0.3-0.1,0.4c-0.7,0.4-1.5,0.7-2.4,0.9c-0.8,0.2-1.6,0.3-2.4,0.4
			c-0.6,0-1.1,0.1-1.7,0.1c-0.2,0-0.3-0.2-0.5-0.3c0,0,0-0.1-0.1-0.2c0-0.3-0.1-0.5-0.1-0.8c0-0.3-0.1-0.6-0.2-0.9
			c-0.3-1.3-1-2.5-1.8-3.6c-0.1-0.1-0.2-0.2-0.3-0.4L135.9,114.6z"/>
		<path class="st95" d="M140.3,130.7c0.5,0.1,1-0.1,1.5-0.1c1.4-0.2,2.8-0.5,4.1-1c0.6-0.2,1.3-0.5,1.9-0.8c0.4-0.3,0.8-0.5,1-0.9
			c0.1-0.2,0.2-0.2,0.4-0.2c0.8,0.2,1.5,0.5,2.1,0.9c1.2,0.8,2.1,1.9,2.7,3.2c0.3,0.6,0.5,1.2,0.6,1.9c0,0.1,0.1,0.3,0.1,0.4
			c0,0.1,0,0.2-0.1,0.2c-1.2,0.6-2.4,1.4-3.6,2.2c-1,0.6-2,1.1-3.1,1.5c-0.6,0.2-1.3,0.3-2,0.3c-0.9,0.1-1.9,0-2.8,0
			c-0.8-0.1-0.7,0-1.2-0.7c-0.5-0.7-0.8-1.4-1.1-2.2c-0.5-1.4-0.9-2.8-1.3-4.3c-0.1-0.2,0-0.3,0.2-0.3c0.1,0,0.2,0,0.2,0
			C140.2,130.7,140.2,130.7,140.3,130.7z"/>
		<path class="st95" d="M80.8,58c0-0.2,0.1-0.4,0.4-0.5c0.8-0.1,1.6-0.5,2.1-1.1c0.3-0.3,0.7-0.6,1.1-0.8c0.3-0.1,0.5-0.2,0.8-0.3
			c1-0.3,2-0.5,3-0.7c0.7-0.2,1.5-0.1,2.2-0.1c0.4,0,0.7,0.1,1.1,0.1c0.2,0,0.3,0.1,0.3,0.2c0.1,0.2,0.1,0.3,0.2,0.5
			c0.3,0.8,0.5,1.5,0.8,2.3c0.4,1.2,0.9,2.3,1.5,3.4c0,0.1,0.1,0.1,0.1,0.2c-0.1,0.1-0.2,0.1-0.3,0.1c-1.3,0.4-2.5,1-3.8,1.6
			c-1.8,0.8-3.5,1.6-5.2,2.5c-0.6,0.3-0.6,0.3-0.9-0.3c-0.6-1.2-1.1-2.4-1.7-3.6c-0.5-1-1-2-1.4-3C80.9,58.4,80.8,58.2,80.8,58z"/>
		<path class="st95" d="M171.6,139.8c0.2-0.4,0.2-0.8,0.3-1.3c0.4-1.7,0.6-3.5,0.6-5.3c0-1.5-0.1-2.9-0.5-4.4
			c-0.1-0.6-0.2-0.5,0.3-0.8c1.1-0.6,2.2-1.3,3.2-2.1c0.3-0.2,0.5-0.4,0.8-0.7c0.2-0.2,0.3-0.2,0.4,0.1c0.2,0.7,0.4,1.3,0.7,1.9
			c0.3,0.6,0.6,1.1,1,1.5c0.3,0.4,0.7,0.6,1.2,0.8c0.7,0.2,1.3,0.5,1.9,0.8c1,0.6,1.9,1.3,2.7,2.1c0.1,0.1,0.1,0.1,0.2,0.1
			c0.1,0.1,0.1,0.3-0.1,0.4c-0.3,0.2-0.6,0.3-0.9,0.5c-2.3,1.3-4.6,2.7-6.9,4c-1.4,0.8-2.9,1.6-4.4,2.3c-0.1,0.1-0.2,0.1-0.3,0.1
			C171.7,140.1,171.7,140.1,171.6,139.8C171.6,139.9,171.6,139.9,171.6,139.8z"/>
		<path class="st95" d="M190.5,116.6c-1.2,0.6-2.4,1.1-3.6,1.7c-0.9,0.4-1.8,0.8-2.7,1.3c-0.1,0.1-0.2,0.1-0.4,0.1
			c-0.1-0.1-0.2-0.2-0.2-0.3c-1.3-2.3-2.5-4.7-3.5-7.2c-0.4-0.9-0.7-1.9-0.8-2.9c0-0.1,0-0.3,0-0.4c0-0.5,0-0.5,0.4-0.6
			c1-0.4,1.9-0.8,2.9-1.2c1.9-0.8,3.7-1.6,5.6-2.4c0.1-0.1,0.3-0.2,0.4-0.1c0.1,0.1,0.1,0.1,0,0.2c-0.1,0.2-0.2,0.4-0.3,0.6
			c-0.8,1.3-0.9,2.8-0.6,4.3c0.2,1,0.7,2,1.1,3c0.5,1.2,1,2.4,1.6,3.6C190.4,116.4,190.5,116.5,190.5,116.6z"/>
		<path class="st95" d="M188.6,104.2c-0.4,0.1-0.8,0.3-1.3,0.5c-2.4,1-4.8,2-7.1,3c-0.3,0.1-0.7,0.3-1.1,0.4c-0.1,0-0.2,0-0.3-0.1
			c0-0.1,0-0.2-0.1-0.3c-0.2-1.1-0.3-2.1-0.3-3.2c-0.2-2.1-0.2-4.2-0.3-6.3c0-0.3,0-0.6,0-0.9c0-0.2,0.1-0.3,0.3-0.3
			c0.4,0,0.8,0.1,1.2,0.1c1.7,0.2,3.4,0.5,5,0.9c1.8,0.4,3.6,0.9,5.4,1.5c0.1,0,0.2,0.1,0.3,0.1c0.2,0.2,0.2,0.4,0.2,0.7
			c-0.1,0.4-0.2,0.8-0.3,1.2c-0.3,0.8-0.7,1.5-1,2.2C189.1,104,188.8,104.1,188.6,104.2z"/>
		<path class="st95" d="M127.7,116.8c-0.3,0.3-0.5,0.7-0.8,1.1c-0.1,0.1-0.1,0.2-0.2,0.3c-0.1,0.1-0.2,0-0.3,0
			c-0.5-0.5-0.9-1-1.4-1.5c-1.6-1.8-3-3.7-4.4-5.6c-0.4-0.5-0.7-1-1.1-1.4c-0.2-0.2-0.1-0.4,0-0.6c0.1-0.2,0.3-0.4,0.5-0.6
			c0.3-0.2,0.6-0.4,1-0.6c0.8-0.4,1.7-0.7,2.6-0.9c1.8-0.5,3.7-0.8,5.5-1.1c0.4-0.1,0.7-0.1,1.1-0.1c0.1,0,0.2,0,0.2,0.2
			c0,0,0,0.1,0,0.1c0.2,1.5,0.7,2.8,1.4,4.1c0,0.1,0.1,0.2,0.1,0.3c0,0.1,0.1,0,0.1,0l0,0c0,0-0.1,0.1,0,0.1
			c0.1,0.2,0.2,0.4,0.4,0.6l0,0c0,0.2,0.2,0.3,0.2,0.4c-0.4,0.3-0.8,0.7-1.2,1c-0.8,0.7-1.6,1.5-2.4,2.2
			C128.5,115.4,128.1,116.1,127.7,116.8z"/>
		<path class="st95" d="M51.5,60c-0.1-0.2-0.2-0.3,0-0.4c0.3-0.2,0.5-0.4,0.8-0.6c1.1-0.8,2.1-1.6,3.1-2.5c0.5-0.4,1-0.9,1.4-1.4
			c0.3-0.4,0.6-0.7,0.8-1.2c0.1-0.2,0.2-0.2,0.4-0.1c0.4,0.2,0.7,0.4,0.9,0.7c0.2,0.2,0.4,0.4,0.6,0.5c3.2,2.1,6.3,4.1,9.5,6.2
			c0.1,0.1,0.3,0.2,0.4,0.3c-0.1,0.2-0.3,0.2-0.5,0.3c-0.8,0.3-1.6,0.6-2.5,0.8c-1.1,0.3-2.2,0.5-3.3,0.7c-0.8,0.1-1.6,0.2-2.3,0.4
			c-1.3,0.3-0.9,0.3-2.2-0.1c-0.1,0-0.1,0-0.2-0.1c-1.8-0.6-3.6-1.5-5.2-2.5C52.6,60.7,52,60.4,51.5,60z"/>
		<path class="st95" d="M80.6,42.8c0.5,1.3,1.1,2.4,2.1,3.3c0.5,0.5,1.1,0.8,1.8,1c0.6,0.2,1.3,0.4,1.9,0.6c0.2,0.1,0.4,0.1,0.6,0.2
			c1,0.3,1.8,0.9,2.5,1.7c0.8,1,1.3,2.1,1.7,3.3c0.2,0.4,0.3,0.9,0.4,1.4c0,0.1,0,0.2-0.2,0.2c-0.6,0-1.1,0-1.7-0.1
			c-0.4-0.1-0.9,0-1.3,0.1c-1,0.2-2.1,0.4-3.1,0.7c-0.4,0.1-0.9,0.3-1.3,0.5c-0.3,0.2-0.6,0.3-0.9,0.6c-0.5,0.5-1.1,0.8-1.7,1
			c-0.1,0-0.2,0-0.3,0.1c0,0-0.1,0-0.1,0c-0.2,0-0.3,0-0.3-0.2c0-0.4-0.1-0.7-0.1-1.1c0-0.3-0.1-0.6-0.1-1c-0.1-1.2-0.2-2.3-0.3-3.5
			c0-0.9-0.1-1.8-0.1-2.7c-0.1-1-0.2-1.9-0.4-2.9c-0.1-0.6-0.2-1.3-0.4-1.9c0-0.2,0-0.4,0.1-0.5c0.3-0.3,0.5-0.6,0.8-0.9
			C80.4,42.5,80.4,42.5,80.6,42.8z"/>
		<path class="st95" d="M188.6,130.7c0-0.3-0.2-0.5-0.3-0.7c-1.1-2.6-2.2-5.1-3.3-7.7c-0.3-0.7-0.6-1.4-0.9-2
			c-0.1-0.3-0.1-0.3,0.2-0.5c0.5-0.2,1-0.5,1.5-0.7c1.5-0.7,3-1.4,4.5-2.1c0.1,0,0.2-0.1,0.2-0.1c0.1,0,0.2,0.2,0.2,0.3
			c0.1,0.4,0.4,0.7,0.6,1c0.4,0.4,0.9,0.9,1.4,1.2c0.3,0.2,0.4,0.4,0.5,0.8c0.3,1.5,0.4,3,0.2,4.5c-0.2,2.2-0.8,4.2-1.9,6.1
			c-0.1,0.1-0.1,0.2-0.2,0.3c-0.3,0.5-0.2,0.5-0.8,0.2c-0.5-0.3-1.1-0.4-1.7-0.4C188.8,131,188.7,130.9,188.6,130.7z"/>
		<path class="st95" d="M138.9,121.2c2.3,0.1,4.5-0.3,6.5-1.4c0.1,0,0.1-0.1,0.1-0.1c0.2-0.1,0.3-0.1,0.4,0.1
			c0.3,0.3,0.5,0.6,0.8,0.9c1,1.5,1.7,3.2,2,5c0.1,0.5,0.1,1,0,1.5c-0.1,0.4-0.3,0.7-0.5,0.9c-0.3,0.3-0.7,0.5-1,0.7
			c-0.7,0.3-1.4,0.6-2.1,0.8c-1.4,0.4-2.7,0.7-4.2,0.9c-0.2,0-0.4,0.1-0.7,0.1c0,0,0,0-0.1,0c-0.8,0-0.7,0.1-0.8-0.7
			c-0.3-1.6-0.5-3.2-0.6-4.8c-0.1-1.1-0.1-2.3-0.1-3.4c0-0.1,0-0.2,0-0.2C138.7,121.2,138.8,121.2,138.9,121.2z"/>
		<path class="st95" d="M132.9,111.9c0.3,0.4,0.6,0.8,1,1.1c1,0.9,1.9,1.9,2.6,3c0.7,1,1.2,2.2,1.4,3.4c0,0.1,0.1,0.3,0.1,0.4
			c0,0.2,0.1,0.5,0.1,0.7c0,0.1-0.1,0.2-0.2,0.2c-0.6,0.1-1.2,0.4-1.7,0.8c-0.9,0.7-1.6,1.5-2.3,2.4c-0.4,0.5-0.8,1-1.2,1.5
			c-0.1,0.1-0.2,0.2-0.3,0.3c-0.4-0.5-0.7-1-1.1-1.5c-0.4-0.5-0.7-1-1.1-1.5c-0.4-0.5-0.7-1-1.1-1.5c-0.4-0.5-0.7-1-1.1-1.5
			c-0.4-0.5-0.7-1-1.1-1.5c0.3-0.4,0.5-0.9,0.8-1.3c0.2-0.2,0.3-0.4,0.5-0.7c0.4-0.6,0.8-1.1,1.3-1.6c0.6-0.5,1.1-1,1.7-1.6
			c0.4-0.4,0.9-0.8,1.3-1.2C132.7,111.9,132.8,111.9,132.9,111.9z"/>
		<path class="st95" d="M184.5,132.6c-0.1-0.1-0.1-0.2-0.2-0.2c-1.1-1.1-2.3-2-3.6-2.6c-0.3-0.1-0.6-0.3-0.9-0.3
			c-0.6-0.1-1-0.4-1.3-0.9c-0.3-0.4-0.5-0.8-0.7-1.2c-0.3-0.7-0.6-1.5-0.8-2.3c-0.1-0.2,0-0.3,0.1-0.5c0.5-0.6,1.1-1.1,1.8-1.6
			c1-0.7,2.1-1.4,3.2-2c0.4-0.2,0.8-0.4,1.3-0.7c0.4-0.2,0.4-0.2,0.6,0.2c0.4,0.8,0.7,1.6,1.1,2.4c1.1,2.5,2.2,5,3.3,7.6
			c0,0.1,0.1,0.2,0.1,0.2c0,0.1,0,0.2-0.1,0.3c0,0,0,0-0.1,0c-0.6,0-1,0.3-1.4,0.6c-0.6,0.3-1.1,0.7-1.7,1
			C184.8,132.8,184.6,132.7,184.5,132.6z"/>
		<path class="st95" d="M67.2,97c0.2,0.5,0.4,0.9,0.7,1.3c1.6,2.3,3.3,4.6,5.1,6.7c0.4,0.5,0.9,1,1.4,1.5c0.2,0.3,0.5,0.5,0.8,0.7
			c0.1,0.1,0.2,0.1,0.2,0.2c-0.1,0.2-0.3,0.3-0.5,0.4c-1.9,1.3-3.8,2.5-5.8,3.5c-0.5,0.3-0.5,0.3-0.8-0.2c-1.2-2.5-2.5-5-3.7-7.5
			c-0.2-0.3-0.3-0.7-0.4-1c-0.1-0.2-0.1-0.4-0.2-0.5c0-0.1-0.1-0.3,0-0.4c0.1-0.1,0.1-0.2,0.2-0.2c0.9-1.4,1.8-2.7,2.7-4.1
			c0.1-0.1,0.1-0.2,0.2-0.3C67,96.8,67.1,96.9,67.2,97z"/>
		<path class="st95" d="M70.8,61.6c0.4-0.4,2.2-1.2,3-1.5c2.1-0.9,4.2-1.5,6.4-2c0.1,0,0.1,0,0.2,0c0.4,0.8,0.8,1.7,1.2,2.5
			c0.1,0.2,0.2,0.4,0.2,0.5l0.2,0.3c0.1,0.1,0.1,0.3,0.2,0.4c0.6,1.2,1.2,2.5,1.8,3.7c0,0.1,0,0.1,0.1,0.2c0,0.1,0,0.2-0.1,0.2
			c-0.1,0.1-0.2,0.1-0.2,0.1c-2.3,1.1-4.6,2.3-6.9,3.4c-0.1,0-0.2,0.1-0.3,0.1c-0.2-0.1-0.1-0.2-0.1-0.3c0.2-1.5-0.2-2.8-1-4
			c-0.7-1-1.6-1.8-2.6-2.5c-0.3-0.2-0.7-0.5-1-0.7L70.8,61.6z"/>
		<path class="st95" d="M70.8,61.9c0.4,0.2,0.7,0.4,1.1,0.6c0.9,0.6,1.8,1.2,2.5,2c0.7,0.7,1.2,1.5,1.5,2.4c0.3,0.8,0.4,1.7,0.3,2.6
			c0,0.1,0,0.1,0,0.2c0,0.2-0.1,0.2-0.3,0.2c-0.2-0.1-0.4-0.1-0.6-0.2c-2.3-0.8-4.6-1.7-6.9-2.5c-2.6-0.9-5.2-1.9-7.8-2.8
			c-0.1,0-0.2-0.1-0.3-0.1c0.1-0.1,0.1-0.1,0.2-0.1c0.7-0.1,1.4-0.3,2.1-0.3c0.9-0.1,1.9-0.3,2.8-0.5c1.2-0.3,2.4-0.6,3.5-1
			c0.2-0.1,0.3-0.2,0.5-0.2c0.1-0.1,0.3-0.1,0.4,0c0.1,0.1,0.3,0.1,0.4,0C70.5,61.8,70.7,61.8,70.8,61.9z"/>
		<path class="st95" d="M62.5,113.7c0.3,0.1,0.6,0,0.9,0c1.5-0.3,2.9-0.9,4.3-1.5c0.6-0.3,0.6-0.3,0.9,0.3c0.5,1,1,1.9,1.4,2.9
			c0.4,0.9,0.9,1.8,1.5,2.6c0.2,0.3,0.4,0.7,0.6,1c-0.1,0.2-0.2,0.2-0.3,0.2c-1.9,0.8-3.8,1.5-5.6,2.3c-0.1,0-0.2,0.1-0.2,0.1
			c-0.1,0-0.2-0.1-0.2-0.2c-1.1-2.1-2.5-4.2-3.8-6.2c-0.2-0.4-0.3-0.8-0.4-1.2c0-0.1,0-0.2,0.2-0.2
			C61.9,113.7,62.2,113.7,62.5,113.7z"/>
		<path class="st95" d="M63.5,102.1c0.1,0.1,0.2,0.2,0.2,0.3c0.4,1.1,0.9,2.1,1.4,3.1c0.9,1.9,1.8,3.7,2.7,5.6
			c0.3,0.6,0.3,0.5-0.3,0.8c-1.3,0.6-2.6,1.1-3.9,1.4c-0.4,0.1-0.8,0.2-1.2,0.2c-0.3,0-0.6,0-1,0c-0.2,0-0.2-0.1-0.3-0.2
			c-0.1-0.3-0.2-0.7-0.2-1c-0.1-0.8-0.3-1.5-0.5-2.3c-0.1-0.5-0.3-0.9-0.4-1.4c-0.1-0.2-0.1-0.4-0.1-0.7c0-0.6,0.1-1,0.5-1.5
			C61.6,105,62.6,103.5,63.5,102.1z"/>
		<path class="st95" d="M44.6,53.4c0.3,0.1,0.4,0.3,0.5,0.4c1,1,2,2.1,3,3.1c0.7,0.7,1.4,1.4,2.1,2.1c0.1,0.1,0.2,0.2,0.3,0.3
			c0.1,0.1,0,0.2,0,0.2c-0.1,0.1-0.2,0.1-0.3,0.2c-1.3,0.7-2.6,1.6-3.7,2.6c-0.5,0.4-1,0.9-1.4,1.4c-0.1,0.1-0.2,0.2-0.3,0.3
			c-0.1,0.1-0.2,0.1-0.3,0c-0.2-0.3-0.4-0.6-0.6-1c-0.4-0.6-0.7-1.1-0.9-1.8c-0.2-0.6-0.4-1.2-0.5-1.9c0-0.8,0.2-1.5,0.5-2.3
			c0.3-0.7,0.7-1.3,1.1-1.9C44.3,54.8,44.6,54.2,44.6,53.4z"/>
		<path class="st95" d="M64.2,129.5c0.2,0.2,0.4,0.2,0.6,0.3c1.9,1,3.6,2.2,5.1,3.9c0.1,0.1,0.2,0.2,0.2,0.3c0.2,0.3,0.2,0.3,0,0.5
			c-0.8,1-1.7,2.1-2.4,3.1c-0.6,0.8-1.3,1.6-2.1,2.2c-0.2,0.2-0.4,0.3-0.6,0.5c-0.2,0-0.2-0.2-0.2-0.3c-0.2-1-0.4-1.9-0.6-2.9
			c-0.1-0.6-0.3-1.1-0.4-1.7c-0.3-1.3-0.5-2.7-0.4-4.1c0-0.6,0.1-1.2,0.3-1.7c0.1-0.2,0.1-0.2,0.3-0.2
			C64,129.5,64.1,129.5,64.2,129.5z"/>
		<path class="st98" d="M188.6,104.6c0.1-0.2,0.1-0.1,0.2,0C188.7,104.6,188.6,104.6,188.6,104.6z"/>
		<path class="st95" d="M108.6,93.5c-0.5-1.2-1.4-2.3-2-3.5c-0.8-1.5-1.5-2.9-2.3-4.4c-0.5-0.8-0.9-1.7-1.4-2.5c0,0-0.1-0.1-0.1-0.2
			c0-0.1,0-0.2,0.1-0.3c0.1,0,0.1-0.1,0.2-0.1c1-0.5,2-1,2.9-1.6c1.2-0.7,2.4-1.4,3.6-2.1c1.6-0.9,3.2-1.9,4.8-2.8
			c0.3-0.2,0.6-0.4,1-0.6c0.2,0,0.3-0.1,0.5-0.2c0.9-0.5,1.9-1,2.8-1.5c1.3-0.7,2.7-1.5,4-2.2c0.5-0.3,1.1-0.6,1.6-0.9
			c0.2-0.1,0.4-0.1,0.5,0.1c0.1,0.2,0.3,0.4,0.4,0.6c0.8,1.4,1.5,2.8,2.1,4.2c0.3,0.6,0.6,1.2,0.9,1.9c0.5,1.1,1,2.2,1.5,3.4
			c0.2,0.3,0.3,0.7,0.5,1c0,0,0,0.1,0,0.1c0.2,0.4,0,0.4-0.2,0.6c-0.1,0-0.1,0.1-0.2,0.1c-0.4,0.2-0.8,0.4-1.1,0.6
			c-0.4,0.2-0.8,0.5-1.2,0.7c-0.1,0.1-0.1,0.1-0.1,0.2c-0.2-0.1-0.4,0.1-0.5,0.1c-0.7,0.4-1.4,0.8-2.2,1.2c-0.8,0.5-1.7,1-2.5,1.4
			c-0.1,0.1-0.2,0.1-0.3,0.3c-0.1,0-0.2,0-0.2,0c-0.9,0.5-1.9,1.1-2.8,1.6c0,0-0.1,0.1-0.1,0.1c-0.1,0-0.2,0-0.3,0.1
			c-0.3,0.2-0.7,0.4-1,0.6c-0.9,0.5-1.9,1.1-2.8,1.6c-1,0.5-1.9,1.1-2.9,1.6c-0.5,0.2-2.5,1.8-2.7,1.3c-0.1-0.2-0.3-0.3-0.3-0.4
			C108.7,93.7,108.6,93.6,108.6,93.5z"/>
		<path class="st95" d="M132.7,47.5c-0.9,0.3-1.9,0.7-2.8,1c-2.1,0.8-4.3,1.6-6.5,2.1c-1,0.2-2,0.4-3,0.5c-0.2,0-0.2,0-0.2-0.2
			c-0.2-1.5-0.7-2.9-1.3-4.2c-0.6-1.4-1.3-2.6-2.2-3.8c-0.2-0.2-0.4-0.4-0.6-0.6c-1.2-1.1-2.4-2.3-3.6-3.4c-0.4-0.4-0.9-0.8-1.3-1.3
			c-0.2-0.2-0.5-0.4-0.7-0.7c0.2-0.7,0.4-1.4,0.8-2.1c0.7-1.2,1.7-2.1,3.1-2.5c1-0.2,2-0.6,3-0.8c0.8-0.2,1.6-0.5,2.5-0.7
			c0.2-0.1,0.3-0.1,0.4,0.1c0.4,0.9,1.1,1.6,1.7,2.2c0.8,0.8,1.7,1.6,2.6,2.2c0.9,0.7,1.7,1.5,2.4,2.4c0.4,0.7,0.9,1.3,1.3,2
			c1.5,2.3,2.8,4.7,4.1,7C132.6,47.1,132.7,47.3,132.7,47.5z"/>
		<path class="st95" d="M103.9,42c0,0.1,0.1,0.1,0.1,0.2c0.1,0.1,0.1,0.2,0.2,0.2c0.1,0.1,0.1,0.3,0.2,0.3c0.1,0.2,0.1,0.3,0.2,0.5
			c0.2,0.5,0.4,1.1,0.2,1.7c0,0,0,0.1,0,0.1c-0.1,0.3-0.1,0.6-0.2,0.9c0,0,0,0.1,0,0.1c-0.2,0.6-0.3,1.3-0.5,2
			c-0.1,0.6-0.2,1.3-0.3,1.9c-0.1,0.9-0.1,1.8,0.3,2.6c0.4,0.9,0.7,1.9,1.1,2.9c0.1,0.2,0.2,0.4,0.2,0.6c-0.6,0.3-1.1,0.5-1.7,0.8
			c-2.1,1-4.3,2.1-6.4,3.1c-0.8,0.4-1.6,0.8-2.5,1.2c-0.3,0.1-0.4,0.1-0.5-0.2c-0.2-0.3-0.4-0.6-0.5-1c-0.8-2-1.5-4-2.1-6
			c-0.5-1.6-1.1-3.2-2.1-4.5c-0.1-0.2-0.1-0.2,0-0.5c0.5-0.8,1.3-1.4,2.1-1.9c0.7-0.4,1.4-0.7,2.1-1c1.6-0.7,3.3-1.3,4.9-2
			c1.1-0.5,2.2-0.9,3.2-1.6c0.4-0.3,0.9-0.5,1.2-0.9c0.1-0.1,0.2-0.2,0.4-0.1C103.7,41.7,103.8,41.8,103.9,42z"/>
		<path class="st95" d="M123.1,60.6c0,0.3,0,0.6,0,1c0,0.2-0.1,0.2-0.2,0.2c-0.4,0.1-0.7,0.1-1.1,0.2c-2.2,0.6-4.3,1.3-6.2,2.5
			c-0.3,0.2-0.6,0.4-0.9,0.5c-0.3,0.2-0.6,0.5-0.9,0.7c-0.2,0.2-0.4,0.4-0.6,0.5c-0.3,0.1-0.6,0.3-0.9,0.5c-0.4,0.2-0.9,0.3-1.4,0.4
			c-0.3,0-0.5,0-0.6-0.3c-0.2-0.4-0.5-0.8-0.8-1.3c-0.7-1.3-1.3-2.7-1.8-4.1c-0.6-1.5-1.2-3-1.7-4.6c-0.1-0.2-0.1-0.4-0.2-0.5
			c0-0.2,0-0.3,0.1-0.4c0.1-0.1,0.3-0.2,0.4-0.3c0.7-0.5,1.5-0.8,2.2-1.1c2.4-0.9,4.9-1.6,7.4-2.2c1-0.3,2.1-0.5,3.2-0.7
			c0.1,0,0.2,0,0.3,0c0.2,0,0.4,0,0.5,0.3c0.7,1.3,1.3,2.6,1.8,3.9c0.4,1,0.7,1.9,0.9,2.9C123,59.3,123.2,59.9,123.1,60.6z"/>
		<path class="st95" d="M152.5,64.2c1.1,0,2.2,0,3.3,0c1.2,0,2.3,0.1,3.5,0.1c0.5,0,1.1,0.1,1.6,0.2c0.2,0,0.3,0.1,0.3,0.3
			c0,0.3,0.1,0.6,0.1,0.8c0,0.9,0.2,1.8,0.5,2.7c0.1,0.4,0.3,0.8,0.4,1.2c0.6,1.4,1.2,2.7,2.1,3.9c0.1,0.2,0.3,0.4,0.5,0.6
			c0.1,0.1,0,0.2,0,0.2c-0.2,0.1-0.3,0.2-0.5,0.3c-0.9,0.5-1.9,0.8-3,1c-0.9,0.1-1.7,0.2-2.6,0.2c-1.2,0-2.4,0-3.6,0
			c-0.7,0-1.5,0-2.2-0.2c-0.1,0-0.3,0-0.5,0c-0.5,0-1.1-0.1-1.6-0.1c-0.1,0-0.2-0.1-0.3-0.2c-0.3-0.9-0.9-1.8-1.5-2.6
			c-0.4-0.5-0.7-1-1-1.5c-0.4-0.7-0.7-1.4-0.9-2.2c-0.1-0.3-0.1-0.7-0.1-1.1c-0.1-0.6-0.1-1.2-0.1-1.8c0-0.5-0.1-1-0.1-1.5
			c0-0.1,0-0.2,0-0.3c0-0.1,0.1-0.2,0.2-0.2c1.1,0.1,2.1,0.1,3.2,0.1C150.9,64.3,151.7,64.2,152.5,64.2
			C152.5,64.2,152.5,64.2,152.5,64.2z"/>
		<path class="st95" d="M110.5,67.5c-0.2,0.1-0.3,0.1-0.5,0.2c-1.6,0.8-3.3,1.5-4.9,2.2c-1.2,0.5-2.3,1.1-3.4,1.8
			c-1,0.6-1.9,1.1-2.9,1.7c-0.1,0-0.1,0.1-0.2,0.1c-0.1,0.1-0.2,0-0.3-0.1c-0.1-0.5-0.3-0.9-0.4-1.4c-0.4-1.4-0.8-2.7-1.2-4.1
			c-0.6-2-1.2-4-1.8-6c0-0.1,0-0.1,0-0.2c0-0.1,0-0.2,0.1-0.3c0.1-0.1,0.2-0.1,0.4-0.2c2-1,3.9-1.9,5.9-2.9c1.3-0.7,2.7-1.3,4-1.9
			c0.1,0,0.2-0.1,0.2-0.2c0.1,0,0.2,0.1,0.2,0.2c0.3,1,0.7,2,1,2.9c0.7,1.9,1.4,3.7,2.3,5.5c0.4,0.8,0.8,1.7,1.4,2.4
			C110.5,67.4,110.5,67.5,110.5,67.5z"/>
		<path class="st95" d="M120.4,30.6c0.4-0.2,0.8-0.5,1.2-0.7c1.1-0.6,2.2-1.3,3.4-1.9c0.8-0.4,1.5-0.8,2.3-1.2
			c0.8-0.4,1.7-0.8,2.6-1c0.4-0.1,0.4-0.1,0.6,0.3c0.3,0.7,0.5,1.4,0.8,2.1c0.6,1.7,1.3,3.3,1.8,5c0.4,1.4,0.9,2.7,1.1,4.2
			c0.1,0.3,0.1,0.7,0.2,1c0.1,1,0.4,2,0.9,2.9c0.6,1.3,1.3,2.5,2.2,3.6c0.1,0.1,0.2,0.3,0.3,0.4c0.1,0.2,0.1,0.3-0.1,0.4
			c-0.5,0.2-1.1,0.5-1.6,0.7c-0.8,0.3-1.6,0.6-2.4,0.9c-0.2,0.1-0.4,0.1-0.5,0.1c-0.1-0.2-0.2-0.4-0.3-0.7c-0.7-1.2-1.4-2.5-2.1-3.7
			c-1-1.8-2.1-3.5-3.3-5.2c-0.7-0.9-1.4-1.8-2.4-2.4c-1.1-0.8-2.1-1.7-3.1-2.7c-0.4-0.4-0.7-0.8-1-1.2
			C120.7,31.2,120.5,30.9,120.4,30.6z"/>
		<path class="st95" d="M130.4,81.9c-0.1-0.4-0.3-0.7-0.4-1c-0.7-1.5-1.4-3-2-4.5c-0.6-1.3-1.2-2.5-1.8-3.7c-0.3-0.6-0.6-1.2-1-1.8
			c-0.1-0.1-0.1-0.2-0.1-0.2c-0.1-0.1,0-0.2,0.1-0.3c0.2-0.1,0.3-0.1,0.5-0.2c1.9-0.8,3.9-1.5,5.8-2.3c1.3-0.5,2.6-1,4-1.3
			c0.1,0,0.2-0.1,0.3-0.1c0.3-0.1,0.3,0,0.5,0.2c0.7,1.2,1.1,2.4,1.5,3.7c0.3,0.8,0.4,1.6,0.6,2.4c0.1,0.4,0.1,0.8,0.1,1.2
			c0.1,0.6,0.3,1.2,0.5,1.7c0.3,0.6,0.7,1.2,1.2,1.8c0,0,0.1,0.1,0.1,0.1c0.3,0.4,0.3,0.4-0.1,0.7c-1,0.7-2.2,1.1-3.4,1.4
			c-0.3,0.1-0.7,0.1-1.1,0.2c-1.7,0.3-3.3,1-4.7,2c-0.1,0.1-0.2,0.1-0.2,0.2C130.5,82.2,130.5,82,130.4,81.9z"/>
		<path class="st95" d="M145.5,91c0,0.3,0.1,0.6,0.1,0.8c0.6,2.9,1.3,5.8,2.1,8.7c0.4,1.4,0.8,2.8,1.3,4.1c0.1,0.3,0.3,0.7,0.5,1
			c0,0.1,0.1,0.2,0.1,0.3c-0.5,0.1-1.1,0.1-1.7,0.1c-1,0-2,0-3,0.2c-0.5,0.1-1,0.3-1.5,0.6c0,0-0.1,0.1-0.1,0.1
			c-0.6,0.4-1.2,0.5-1.9,0.2c-0.3-0.1-0.6-0.2-0.9-0.2c-0.2,0-0.4-0.1-0.5-0.3c-0.4-0.5-0.8-1-1-1.6c-0.3-0.7-0.4-1.5-0.5-2.3
			c0-1,0.1-1.9,0.3-2.9c0.4-2.2,0.2-4.3-0.6-6.4c-0.2-0.6-0.4-1.1-0.7-1.6c-0.1-0.1-0.2-0.3-0.1-0.5c0.2,0,0.3-0.1,0.5-0.1
			c0,0,0.1,0,0.1,0c0.9-0.2,1.8-0.3,2.8-0.5c0.8-0.1,1.7-0.3,2.5-0.3c0.4,0,0.9-0.1,1.3-0.1c0.1,0,0.1,0,0.2-0.1
			c0.1,0,0.1-0.1,0.1-0.1l0,0c0,0,0,0.1,0.1,0.1c0.1,0,0.2,0.1,0.3,0.1c0.2,0,0.3,0.1,0.3,0.3C145.5,90.8,145.5,90.9,145.5,91z"/>
		<path class="st95" d="M115.2,75.3c-0.1,0.1-0.2,0.2-0.3,0.2c-2.3,1.2-4.4,2.6-6.6,3.8c-1.5,0.9-3.1,1.7-4.6,2.6
			c-0.3,0.2-0.6,0.3-0.9,0.5c-0.1,0.1-0.2,0-0.3-0.1c0-0.1-0.1-0.2-0.1-0.3c-1.1-2.3-2.1-4.5-3.2-6.8c-0.2-0.4-0.4-0.7-0.5-1.1
			c-0.1-0.2-0.1-0.3,0.1-0.4c0.8-0.5,1.6-0.9,2.4-1.4c0.5-0.3,1-0.6,1.5-0.9c1-0.6,2-1,3-1.5c0.8-0.4,1.7-0.8,2.5-1.1
			c0.7-0.3,1.3-0.6,2-0.9c0.2-0.1,0.3-0.2,0.5-0.3c0.2,0.1,0.2,0.2,0.3,0.4c1,1.7,2,3.4,3,5C114.4,73.8,114.8,74.6,115.2,75.3z"/>
		<path class="st95" d="M165.4,83.7c-0.4,0-0.8,0-1.1-0.1c-1,0-2-0.1-3,0c-0.7,0.1-1.3,0.2-1.9,0.4c-0.2,0.1-0.3,0-0.4-0.1
			c-0.4-0.4-0.8-0.8-1.2-1.1c-0.6-0.5-1.3-0.9-1.9-1.4c-1.1-0.8-2.2-1.6-3.2-2.6c-0.7-0.8-1.4-1.7-1.8-2.7c0-0.1,0-0.1-0.1-0.2
			c0-0.1,0-0.2,0.2-0.2c0.4,0,0.8,0,1.2,0.1c0.1,0,0.2,0,0.3,0c0.7,0,1.5,0.1,2.2,0.1c1.3,0.1,2.6,0.1,3.9,0.1
			c1.5,0,3.1-0.2,4.5-0.7c0.6-0.2,1.2-0.5,1.8-0.8c0.3-0.2,0.3-0.2,0.5,0c0.3,0.3,0.6,0.5,0.9,0.6c1.4,0.7,2.8,1.5,4.1,2.5
			c0.7,0.5,1.4,1.1,2.1,1.8c0.3,0.3,0.3,0.4,0.1,0.8c-0.1,0.3-0.3,0.5-0.6,0.8c-0.7,0.8-1.7,1.4-2.7,1.8c-0.9,0.4-1.9,0.6-2.9,0.7
			C166.1,83.6,165.7,83.7,165.4,83.7z"/>
		<path class="st95" d="M177.7,89.5c0,0.5,0.2,0.9,0.3,1.3c0.3,1.5,0.6,3,0.7,4.5c0,0.5,0.1,0.9,0,1.4c0,0.1-0.1,0.2-0.2,0.2
			c-0.9,0-1.9-0.1-2.8-0.1c-1.2,0-2.3,0-3.5,0.1c-1.2,0.1-2.4,0.3-3.6,0.6c-1.6,0.3-3.1,0.9-4.6,1.5c-0.1,0.1-0.2,0.1-0.4,0.2
			c-0.2,0.1-0.3,0.1-0.3-0.2c-0.2-1.1-0.3-2.2-0.5-3.3c-0.2-1.3-0.4-2.5-0.6-3.8c0-0.1-0.1-0.3-0.1-0.4c0-0.3-0.2-0.6-0.1-0.9
			c0.1-0.1,0.2-0.1,0.3-0.1c0.3,0,0.7,0,1,0c1.6,0,3.2-0.1,4.9-0.3c1-0.1,2-0.2,3-0.4c0.6-0.1,1.1-0.3,1.6-0.5
			c1.3-0.6,2.7-1.2,4-1.8c0.1,0,0.1-0.1,0.2-0.1c0.1-0.1,0.2,0,0.2,0.1c0.1,0.2,0.1,0.4,0.2,0.6C177.4,88.6,177.6,89,177.7,89.5z"/>
		<path class="st95" d="M144.8,90.3L144.8,90.3c-0.5-0.1-1,0-1.6,0c-0.3,0-0.6,0-0.9,0.1c-0.2,0-0.3-0.1-0.4-0.2
			c-0.3-0.6-0.5-1.2-0.4-2c0.1-0.6,0.3-1.1,0.4-1.7c0.2-0.6,0.4-1.3,0.6-1.9c0.4-1.1,0.4-2.2,0-3.3c-0.3-1-0.8-2-1.4-2.8
			c-0.1-0.1-0.2-0.3-0.3-0.4c0,0,0.1-0.1,0.1-0.2c0.5-0.5,0.9-0.9,1.4-1.4c0.5-0.5,1.1-0.8,1.8-0.9c1.2-0.2,2.3-0.1,3.5-0.1
			c0.5,0,0.9,0.1,1.4,0.1c0.3,0,0.6,0.1,1,0.1c0.2,0,0.2,0.1,0.3,0.2c0.1,0.2,0.1,0.4,0.2,0.5c0.4,1,1,1.9,1.8,2.7
			c0.2,0.2,0.5,0.5,0.7,0.7c0.1,0.1,0.1,0.2-0.1,0.3c-0.2,0.1-0.4,0.2-0.6,0.2c-0.7,0.2-1.4,0.3-2.1,0.5c-0.3,0.1-0.6,0.2-0.8,0.3
			c-0.3,0.2-0.5,0.4-0.5,0.7c-0.1,0.7-0.1,1.5,0,2.2c0.1,0.6,0.2,1.2,0.3,1.9c0.1,0.5,0.3,1,0.5,1.4c0.5,1,1.1,1.8,1.8,2.7
			c0.1,0.1,0.2,0.2,0.2,0.3c0,0,0,0.1,0,0.1c-0.3,0.1-0.6,0.1-0.9,0.1c-1,0-2.1-0.1-3.1-0.2c-0.8-0.1-1.6-0.2-2.4-0.1
			C145.2,90.3,145,90.3,144.8,90.3z"/>
		<path class="st95" d="M149.4,75.4c-0.9-0.2-1.9-0.1-2.9-0.2c-0.9-0.1-1.8,0-2.6,0.2c-0.6,0.1-1.1,0.4-1.6,0.9
			c-0.3,0.3-0.6,0.6-0.8,0.9c-0.1,0.1-0.2,0.2-0.3,0.3c-0.5,0.4-0.5,0.5-1-0.1c-0.5-0.6-0.9-1.1-1.2-1.8c-0.2-0.4-0.4-0.8-0.5-1.3
			c0-0.1-0.1-0.3-0.1-0.4c0-1.2-0.3-2.4-0.7-3.6c-0.4-1.2-0.8-2.4-1.4-3.5c0-0.1-0.1-0.1-0.1-0.2c-0.1-0.2,0-0.4,0.2-0.4
			c2-0.5,4.1-1.1,6.1-1.6c0.9-0.2,1.7-0.4,2.6-0.5c0.2,0,0.4,0,0.6,0c0.5,0,0.5,0,0.6,0.5c0,0.3,0.1,0.6,0.1,1
			c0.1,0.7,0.1,1.5,0.2,2.2c0,0.5,0.1,1.1,0.2,1.6c0.1,0.6,0.4,1.1,0.7,1.6c0.4,0.8,1,1.5,1.5,2.3c0.3,0.5,0.6,0.9,0.9,1.5
			c0.1,0.1,0.1,0.2,0.2,0.4c0.1,0.2,0,0.4-0.3,0.4C149.8,75.4,149.7,75.4,149.4,75.4z"/>
		<path class="st95" d="M159.4,84.4c0.2-0.2,0.5-0.2,0.7-0.3c0.6-0.1,1.1-0.3,1.7-0.3c0.2,0,0.5,0,0.7-0.1c0.2,0,0.5,0,0.7,0
			c0.8,0.1,1.7,0.1,2.5,0.1c2.1-0.1,4.1-0.7,5.8-2c0.5-0.4,1-0.9,1.2-1.5c0-0.1,0.1-0.1,0.1-0.2c0.1-0.2,0.2-0.2,0.3,0
			c0.1,0.1,0.2,0.2,0.4,0.4c0.9,1.1,1.7,2.2,2.3,3.5c0.4,0.8,0.8,1.7,1.1,2.6c0.1,0.2,0.1,0.3-0.2,0.4c-0.2,0.1-0.4,0.2-0.6,0.2
			c-1,0.5-2,0.9-3,1.4c-1.2,0.6-2.5,0.9-3.8,1c-0.9,0.1-1.8,0.2-2.6,0.2c-0.7,0.1-1.4,0.1-2,0.1c-0.7,0-1.4,0.1-2.2,0.1
			c-0.1,0-0.2,0-0.2,0c-0.5,0-0.5,0.1-0.6-0.6c-0.2-1-0.4-1.9-0.8-2.8c-0.3-0.7-0.6-1.3-1.1-1.9C159.7,84.8,159.5,84.6,159.4,84.4z"
			/>
		<path class="st95" d="M155,98c0.3,0.8,0.6,1.6,1,2.4c0.3,0.8,0.6,1.5,0.9,2.3c0,0.1,0.1,0.2,0.1,0.4c0.1,0.1,0,0.3-0.1,0.3
			c-0.4,0.2-0.8,0.5-1.2,0.7c-1.2,0.7-2.5,1.3-3.9,1.6c-0.4,0.1-0.9,0.2-1.3,0.3c-0.2,0-0.3,0-0.4-0.2c-0.1-0.2-0.2-0.3-0.3-0.5
			c-0.3-0.6-0.6-1.3-0.8-2c-0.7-2.1-1.3-4.3-1.8-6.4c-0.4-1.8-0.8-3.6-1.3-5.5c0-0.1-0.1-0.3-0.1-0.4c0-0.1,0-0.1,0-0.2
			c0-0.2,0-0.2,0.2-0.2c0.2,0,0.3,0,0.5,0c1.8,0.2,3.7,0.4,5.5,0.3c0.3,0,0.3,0,0.4,0.3c0.5,1.2,0.9,2.3,1.4,3.5
			c0.4,0.9,0.7,1.9,1.1,2.8L155,98z"/>
		<path class="st95" d="M111,67.6c0.1-0.1,0.2-0.1,0.3-0.1c0.8-0.3,1.6-0.7,2.4-1.1c0.2-0.1,0.3-0.2,0.4-0.3c1-0.9,2.2-1.7,3.4-2.2
			c1.4-0.7,2.9-1.2,4.4-1.5c0.3-0.1,0.6-0.1,0.9-0.2c0.1,0,0.2,0.1,0.2,0.2c0,0,0,0.1,0,0.1c0,0.9,0.1,1.7,0.1,2.6
			c0,1.6,0.4,3.2,1.1,4.7c0,0.1,0.1,0.2,0.1,0.3c0.1,0.2,0,0.2-0.1,0.3c-0.1,0.1-0.2,0.1-0.3,0.2c-1.7,0.9-3.4,1.8-5,2.8
			c-0.9,0.5-1.8,1-2.7,1.5c-0.1,0.1-0.3,0.1-0.4,0.2c-0.2,0.1-0.3,0.1-0.5-0.2c-0.5-0.8-0.9-1.6-1.4-2.4c-0.9-1.4-1.7-2.9-2.6-4.3
			C111.2,68,111.1,67.8,111,67.6z"/>
		<path class="st95" d="M130.7,82.3c0.4-0.2,0.8-0.5,1.2-0.7c1.2-0.7,2.4-1.2,3.7-1.5c0.8-0.1,1.6-0.3,2.4-0.6
			c0.8-0.3,1.5-0.6,2.2-1.1c0.1-0.1,0.3-0.2,0.5-0.2c0.3,0.2,0.5,0.6,0.7,0.9c0.6,0.8,1,1.7,1.2,2.7c0.2,0.8,0.1,1.7-0.1,2.5
			c-0.3,0.9-0.6,1.8-0.9,2.7c-0.1,0.4-0.2,0.8-0.3,1.2c-0.1,0.6,0,1.2,0.3,1.8c0,0.1,0.1,0.2,0.1,0.3c-0.1,0.1-0.2,0.1-0.2,0.1
			c-1.2,0.2-2.5,0.4-3.7,0.7c-0.1,0-0.3,0.1-0.4,0.1c-0.2,0-0.4,0-0.4-0.2c-0.1-0.3-0.2-0.6-0.4-0.9c0-0.1-0.1-0.2-0.2-0.1l0,0
			c0-0.1,0-0.1-0.1-0.1l0,0c0.1-0.2,0-0.2-0.1-0.2l0,0c0.1-0.2,0-0.2-0.1-0.2l0,0c0.1-0.2,0-0.2-0.1-0.2l0,0c0.1-0.2,0-0.2-0.1-0.2
			l0,0c0.1-0.2,0-0.2-0.1-0.2l0,0c0.1-0.2,0-0.4-0.2-0.6c0,0-0.1,0-0.2,0l0,0c0.1-0.1,0-0.2-0.1-0.2l0,0c0.1-0.1,0-0.2,0-0.3
			c-0.1-0.1-0.1-0.1-0.2,0l0,0c0.1-0.1,0-0.2,0-0.3c-0.1-0.1-0.1-0.1-0.2,0l0,0c0.1-0.1,0-0.2,0-0.3c-0.1-0.1-0.2-0.1-0.2,0l0,0l0,0
			c0.1-0.2,0-0.4-0.1-0.5c0-0.1-0.1-0.2-0.2-0.3c-0.1-0.1-0.2-0.3-0.4-0.2c0-0.1-0.1-0.2-0.1-0.2c-0.1-0.1-0.2-0.2-0.4-0.3
			c0.1-0.1,0-0.2,0-0.3c-0.2-0.2-0.4-0.5-0.6-0.6c-0.1-0.1-0.2-0.1-0.3,0c-0.2-0.2-0.5-0.4-0.5-0.8c-0.1-0.1-0.3-0.3-0.4-0.4
			c-0.1-0.1-0.2-0.3-0.4-0.4C130.9,82.7,130.7,82.6,130.7,82.3L130.7,82.3z"/>
		<path class="st95" d="M120.4,51.4c0.3,0,0.7-0.1,1-0.1c1.3-0.2,2.6-0.5,3.9-0.8c0.5-0.1,1-0.3,1.5-0.5c0.3-0.1,0.5,0,0.7,0.2
			c0.7,0.8,1.3,1.6,1.9,2.4c1.2,1.7,2.2,3.6,3.1,5.5c0,0,0,0.1,0,0.1c0.3,0.7,0.3,0.6-0.3,0.9c-1.8,0.8-3.6,1.4-5.4,1.9
			c-1,0.3-2,0.5-3,0.7c-0.1,0-0.1,0-0.2,0c-0.1,0-0.1,0-0.2-0.1c0-0.1,0-0.1,0-0.2c0-0.1,0-0.3,0-0.4c0.1-1.2-0.1-2.3-0.4-3.5
			c-0.6-2.1-1.5-4.1-2.6-6C120.4,51.6,120.4,51.6,120.4,51.4C120.3,51.5,120.4,51.5,120.4,51.4z"/>
		<path class="st95" d="M123.3,63.6c0-0.4,0-0.8,0-1.1c0-0.2,0.1-0.2,0.2-0.3c0.7-0.2,1.4-0.4,2.1-0.5c1.9-0.5,3.7-1,5.5-1.7
			c0.5-0.2,1.1-0.5,1.6-0.7c0.2-0.1,0.3-0.1,0.4,0.1c0.2,0.2,0.4,0.5,0.6,0.8c0.5,0.7,0.9,1.5,1.2,2.3c0.4,1.1,0.6,2.2,0.9,3.3
			c0,0.1,0,0.1,0,0.2c0,0.2-0.1,0.3-0.2,0.3c-0.3,0.1-0.6,0.2-0.9,0.3c-1.2,0.3-2.3,0.8-3.5,1.2c-2.1,0.8-4.2,1.6-6.2,2.4
			c-0.1,0-0.1,0-0.2,0.1c-0.2,0-0.2,0-0.3-0.1c0,0-0.1-0.1-0.1-0.2c-0.5-1-0.9-2.1-1-3.3c0,0,0-0.1,0-0.1
			C123.5,65.4,123.3,64.5,123.3,63.6z"/>
		<path class="st95" d="M158.3,90.2c-0.6,0-1.3,0-1.9,0c-0.9,0-1.8,0.1-2.7,0.2c-0.3,0-0.7,0-1,0.1c-0.2,0.1-0.4,0-0.5-0.2
			c-0.2-0.2-0.4-0.5-0.6-0.7c-0.5-0.7-1-1.4-1.4-2.1c-0.3-0.6-0.5-1.3-0.7-2c-0.2-1-0.2-2-0.2-3c0-0.7,0.1-1,1.1-1.3
			c0.7-0.2,1.5-0.4,2.3-0.5c0.3-0.1,0.6-0.1,0.8-0.3c0.2-0.1,0.3-0.1,0.5,0c1.2,0.9,2.5,1.7,3.6,2.6c0.9,0.7,1.7,1.5,2.4,2.5
			c0.5,0.8,0.9,1.7,1.1,2.6c0.1,0.5,0.3,1.1,0.4,1.7c0.1,0.4,0,0.4-0.3,0.4c-0.5,0-0.9,0-1.4,0C159.2,90.2,158.7,90.2,158.3,90.2
			C158.3,90.2,158.3,90.2,158.3,90.2z"/>
		<path class="st95" d="M161.8,91.5c0,0.3,0.1,0.7,0.1,1c0.3,1.9,0.6,3.8,0.9,5.7c0,0.3,0.1,0.6,0.1,0.8c0,0.2,0,0.3-0.2,0.4
			c-0.7,0.5-1.5,1-2.2,1.5c-0.9,0.6-1.8,1.2-2.6,1.8c-0.1,0.1-0.3,0.2-0.4,0.2c-0.1,0-0.2,0-0.2-0.1c-0.1-0.2-0.1-0.3-0.2-0.5
			c-0.6-1.6-1.2-3.2-1.9-4.8c-0.1-0.1-0.1-0.3-0.2-0.4c-0.1-0.2-0.1-0.4-0.2-0.5c-0.7-1.8-1.4-3.7-2.1-5.5c-0.1-0.1-0.2-0.3-0.1-0.4
			c0.2-0.1,0.4-0.1,0.6-0.1c0.6-0.1,1.2-0.1,1.9-0.2c1.4-0.1,2.8-0.1,4.1-0.1c0.7,0,1.4,0,2.1,0.1c0.2,0,0.3,0.1,0.3,0.3
			C161.7,91,161.6,91.3,161.8,91.5z"/>
		<path class="st95" d="M136.2,52.1c0.1,0.1,0.1,0.1,0.1,0.2c0.6,1,1.2,1.9,1.7,2.9c0,0.1,0.1,0.1,0.1,0.2c0.1,0.2,0.1,0.3-0.1,0.4
			c-0.2,0.1-0.3,0.2-0.5,0.3c-1.4,0.8-2.7,1.7-4.2,2.4c0,0-0.1,0-0.1,0.1c-0.1,0.1-0.2,0-0.3-0.1c-0.1-0.2-0.2-0.5-0.3-0.7
			c-0.5-1.1-1-2.1-1.6-3.2c-0.2-0.4-0.4-0.7-0.7-1.1l-0.2-0.4c-0.1-0.1-0.1-0.1-0.1-0.2c-0.4-0.6-0.8-1.3-1.3-1.8
			c-0.3-0.4-0.7-0.8-1-1.2c0-0.1-0.1-0.1-0.2-0.2c0.3-0.1,0.6-0.3,1-0.4c1.4-0.5,2.7-1,4.1-1.5c0,0,0,0,0.1,0
			c0.4-0.1,0.5-0.1,0.7,0.3c0.4,0.7,0.7,1.4,1.2,2c0.2,0.3,0.4,0.5,0.7,0.8c0.3,0.3,0.6,0.7,0.9,1C136.2,51.9,136.2,51.9,136.2,52.1
			L136.2,52.1z"/>
		<path class="st95" d="M142.3,64.1c0,0.3,0,0.4-0.2,0.4c-1,0.3-2,0.5-3,0.8c-0.8,0.2-1.6,0.4-2.4,0.6c-0.1,0-0.1,0-0.2,0
			c-0.3,0.1-0.4,0-0.4-0.3c-0.1-0.3-0.1-0.5-0.1-0.8c-0.3-1.4-0.7-2.7-1.3-3.9c-0.3-0.6-0.7-1.2-1.1-1.7c0,0-0.1-0.1-0.1-0.1
			c-0.1-0.1-0.1-0.2,0-0.3c0.4-0.2,0.8-0.4,1.2-0.7c1.1-0.6,2.2-1.3,3.3-2c0,0,0.1-0.1,0.1-0.1c0.4-0.2,0.4-0.2,0.7,0.1
			c1,0.9,1.7,2,2.2,3.2c0.4,1,0.7,1.9,0.9,3C142.2,62.9,142.2,63.6,142.3,64.1z"/>
		<path class="st95" d="M146.6,60.4c0,0.8-0.1,1.5-0.2,2.3c0,0.3,0,0.6,0,0.8c0,0.1-0.1,0.2-0.2,0.2c-0.3,0-0.7,0.1-1,0.1
			c-0.6,0.1-1.2,0.2-1.7,0.3c-0.2,0-0.4,0.1-0.6,0.1c-0.2,0-0.3,0-0.3-0.2c0-0.4-0.1-0.7-0.1-1.1c-0.3-2.1-1-4-2.2-5.7
			c-0.3-0.4-0.6-0.8-1-1.2c-0.1-0.1-0.2-0.2-0.3-0.3c-0.1-0.1-0.1-0.2,0-0.2c0.1-0.1,0.2-0.2,0.4-0.3c0.7-0.5,1.4-0.9,2.1-1.4
			c0.5-0.3,1-0.7,1.4-1c0.1-0.1,0.2-0.1,0.3-0.2c0.1-0.1,0.3-0.1,0.4,0c0.4,0.4,0.8,0.7,1.1,1.2c0.7,1,1.3,2.2,1.6,3.4
			C146.5,58.3,146.7,59.4,146.6,60.4z"/>
		<path class="st95" d="M169.6,69c-0.1,0.2-0.2,0.4-0.3,0.5c-0.4,0.8-0.9,1.5-1.5,2.1c-0.7,0.8-1.6,1.5-2.4,2.2
			c-0.2,0.2-0.3,0.2-0.5-0.1c-0.5-0.6-0.9-1.2-1.2-1.8c-0.5-0.9-1-1.9-1.4-2.9c0-0.1,0-0.1-0.1-0.1c0,0,0-0.1,0-0.1
			c-0.3-0.9-0.6-1.7-0.6-2.7c0-0.4-0.1-0.8-0.1-1.2c0-0.2,0.1-0.3,0.3-0.2c0.1,0,0.2,0,0.3,0c0.9,0.2,1.8,0.3,2.6,0.3
			c0.8,0,1.6,0.1,2.4,0.1c0.8,0.1,1.6,0.3,2.3,0.5c0.1,0,0.1,0,0.2,0.1c0.7,0.2,0.6,0.1,0.6,0.8c-0.1,0.7-0.3,1.4-0.6,2.1
			C169.7,68.8,169.6,68.9,169.6,69L169.6,69z"/>
		<path class="st95" d="M140.7,48.2c0.2,0.2,0.1,0.1,0.2,0.2c0.5,0.7,1,1.4,1.5,2.1c0.3,0.5,0.5,1,0.8,1.5c0.1,0.2,0.1,0.3-0.1,0.4
			c-0.5,0.4-1,0.7-1.5,1.1c-0.8,0.6-1.7,1.1-2.5,1.7c0,0-0.1,0-0.1,0.1c-0.4,0.2-0.4,0.2-0.6-0.2c-0.5-0.9-1.1-1.8-1.6-2.7
			c-0.3-0.5-0.6-0.9-1-1.4c-0.1-0.1-0.1-0.2-0.2-0.2c-0.5-0.4-0.9-0.9-1.2-1.5c-0.3-0.5-0.6-1-0.8-1.5c-0.1-0.2-0.1-0.3,0.2-0.4
			c0.8-0.3,1.6-0.6,2.4-0.9c0.6-0.2,1.2-0.5,1.8-0.7c0.2-0.1,0.3-0.1,0.5,0c0.1,0.1,0.2,0.1,0.3,0.2c0.5,0.5,1.1,1.1,1.6,1.6
			c0.1,0.1,0.3,0.3,0.4,0.5L140.7,48.2z"/>
		<path class="st95" d="M94.6,85c-0.2-0.1-0.5-0.7-0.6-0.9c-0.3-0.3-0.5-0.6-0.8-0.9c-0.6-0.8-1.2-1.5-1.8-2.3
			c-0.4-0.4-0.4-0.5,0.1-0.8c1.3-0.9,2.5-1.9,3.6-2.9c1-0.9,1.9-1.8,2.8-2.7c0.1-0.1,0.2-0.3,0.4-0.3c0.1,0.1,0.2,0.2,0.2,0.3
			c1.2,2.5,2.4,5.1,3.6,7.6c0,0.1,0.1,0.1,0.1,0.2c0.1,0.2,0.1,0.3-0.2,0.3c-0.3,0.1-0.6,0.1-0.9,0.2c-0.9,0.2-1.8,0.6-2.7,1
			c-0.8,0.4-1.6,0.7-2.1,1.5c-0.5,0.1-0.8,0.7-1.2,0.1C94.9,85.3,94.8,85.1,94.6,85z"/>
		<path class="st95" d="M95.3,86.2c0.5-0.3,1-0.7,1.4-1.2c1.7-0.9,3.3-1.9,5.3-2.2c0.5-0.1,0.5,0,0.6,0.3c0.5,0.8,0.9,1.7,1.4,2.5
			c1.5,2.7,2.7,5.5,4.5,8.1c0.1,0.2,0.3,0.4,0.3,0.6c0,0.7-1.4,1-1.8,1.2c-1.3,0.8-2.6,1.6-3.7,2.6c-0.7,0.6-1.3,1.3-1.8,2.1
			c-0.4,0.5-0.6,1.1-0.8,1.8c-0.3,1.2-0.8,2.4-1.2,3.5c-0.2,0.6-0.5,1.1-0.8,1.7c-0.1,0.1-0.1,0.2-0.2,0.4c-0.1,0.1-0.1,0.1-0.2,0
			c-0.1-0.1-0.2-0.2-0.4-0.3c-1-0.8-2.1-1.6-3.1-2.4c-2.3-1.8-4.5-3.5-6.8-5.3c-1.3-1-2.6-2-3.9-3c-0.1-0.1-0.3-0.2-0.4-0.3
			c0-0.1,0.2-0.2,0.3-0.3c1.1-0.7,2.1-1.4,3.2-2.1c1-0.6,1.6-1.4,2.2-2.4c0.2-0.4,0.4-0.8,0.6-1.2c0.2-0.3,0.3-0.6,0.5-0.9
			c0.4-0.5,0.8-1,1.4-1.3C93,87.5,94.2,86.9,95.3,86.2z"/>
		<path class="st95" d="M76,107.3c0.7-0.5,1.3-1.1,1.9-1.7c1.2-1.3,2.3-2.7,3.2-4.1c0.4-0.7,0.8-1.3,1-2.1c0.2-0.8,0.6-1.6,1-2.4
			c0.1-0.1,0.1-0.3,0.2-0.4c0.1-0.1,0.2-0.1,0.3,0c0.5,0.4,1.1,0.8,1.6,1.3c4.2,3.3,8.4,6.5,12.6,9.8c0.4,0.3,0.4,0.3,0,0.7
			c-2.3,2.3-4.5,4.6-6.8,6.9c-0.4,0.4-0.3,0.4-0.8,0.1c-1.9-1.1-3.9-2-6-2.7c-0.6-0.2-1.2-0.4-1.8-0.6c-1.2-0.5-2.3-1.1-3.4-1.9
			c-1-0.7-1.9-1.5-2.7-2.4C76.2,107.6,76,107.5,76,107.3z"/>
		<path class="st95" d="M75.6,107.5c0.1,0,0.1,0,0.2,0.1c0.1,0.1,0.2,0.2,0.4,0.4c1.3,1.3,2.7,2.5,4.4,3.4c0.9,0.5,1.8,0.9,2.7,1.2
			c2.4,0.7,4.7,1.7,6.9,3c0.1,0,0.1,0.1,0.2,0.1c0.1,0.1,0.1,0.1,0,0.2c-0.1,0.1-0.2,0.1-0.3,0.2c-3.5,2.5-6.9,5-10.4,7.6
			c-0.6,0.5-1.2,0.9-1.9,1.4c-0.1,0.1-0.2,0.2-0.3,0.2c-0.1,0-0.2,0-0.2,0c-0.1-0.1-0.3-0.2-0.4-0.4c-0.5-0.6-1-1.2-1.5-1.9
			c-1.5-2.1-2.9-4.2-4.3-6.4c-0.1-0.1-0.1-0.2-0.2-0.3c-0.7-1.4-1.4-2.9-2.1-4.3c0-0.1,0-0.1-0.1-0.2c0-0.1,0-0.2,0.1-0.2
			c0.1-0.1,0.2-0.1,0.3-0.1c2.2-1.1,4.2-2.4,6.2-3.7C75.3,107.7,75.5,107.6,75.6,107.5z"/>
		<path class="st95" d="M113.8,102.9c0.3,0.4,0.5,0.8,0.8,1.2c0.1,0.2,0.8,0.8,0.8,1c0,0.1-0.1,0.1-0.1,0.2c-2.7,2.2-5.3,4.6-7.8,7
			c-0.4,0.4-0.7,0.8-1.1,1.2c-0.2,0.2-0.2,0.2-0.4,0c-0.6-0.4-1.1-0.8-1.7-1.3c-1.8-1.3-3.6-2.7-5.4-4c-0.5-0.3-0.4-0.3-0.2-0.8
			c0.7-1.4,1.3-2.7,1.8-4.2c0.1-0.3,0.2-0.5,0.2-0.8c0.2-1.3,0.9-2.3,1.8-3.2c0.9-1,1.9-1.8,3-2.5c0.6-0.4,1.2-0.8,1.9-1.1
			c0.5-0.3,0.8-0.6,1.4-0.7c0.1,0,0.3,0,0.4,0c0,0.1,0,0.2,0.1,0.3c0.3,0.5,0.6,1,0.9,1.5c0.3,0.5,0.6,1,0.9,1.5
			c0.6,1.1,1.3,2.2,1.9,3.2C113.3,101.9,113.5,102.4,113.8,102.9z"/>
		<path class="st95" d="M90.6,116c0,0,0.1,0.1,0.2,0.1c0.4,0.4,0.8,0.8,1.2,1.2c1.3,1.3,2.5,2.7,3.7,4.2c0.4,0.5,0.8,1,1.2,1.5
			c0.3,0.4,0.3,0.4-0.1,0.8c-0.6,0.6-1.2,1.2-1.9,1.8c-1.3,1.3-2.7,2.5-4,3.7c-1.5,1.4-3,2.7-4.6,4c-0.3,0.2-0.6,0.4-0.9,0.6
			c-0.2,0.1-0.2,0.1-0.4-0.1c-0.3-0.4-0.7-0.7-1-1.1c-1.5-1.7-3-3.4-4.6-5.1c-0.5-0.6-1.1-1.2-1.6-1.8c-0.1-0.1-0.1-0.1-0.2-0.2
			c-0.1-0.1,0-0.1,0-0.2c0.1-0.1,0.2-0.2,0.4-0.3c2-1.5,4-3,6-4.4c2-1.5,4.1-3,6.2-4.5c0.1-0.1,0.2-0.2,0.4-0.3
			C90.5,116,90.6,116,90.6,116z"/>
		<path class="st95" d="M77.3,125.8c0,0,0.1,0,0.1,0.1c0.1,0.1,0.2,0.2,0.3,0.3c1.4,1.6,2.9,3.2,4.3,4.8c0.8,0.9,1.6,1.8,2.4,2.7
			c0.1,0.1,0.2,0.2,0.3,0.3c0.1,0.1,0.1,0.2,0,0.3c-0.5,0.4-1,0.8-1.5,1.3c-1.2,1.1-2.3,2.3-3.4,3.5c-1,1.1-1.9,2.2-2.7,3.4
			c-0.3,0.4-0.5,0.9-0.8,1.4c-0.1,0.1-0.2,0.1-0.3,0c-0.1-0.1-0.2-0.3-0.2-0.4c-0.7-1.3-1.3-2.6-2-3.9c-0.5-0.9-0.9-1.8-1.4-2.7
			c-0.4-0.8-0.9-1.6-1.5-2.3c-0.2-0.2-0.2-0.3,0-0.5c0.4-0.5,0.8-1,1.2-1.6c1.7-2.1,3.3-4.2,5-6.3C77.1,126,77.2,125.9,77.3,125.8z"
			/>
		<path class="st95" d="M106,113.9c0,0.1-0.1,0.1-0.1,0.2c-0.3,0.3-0.5,0.6-0.8,1c-1,1.1-2.1,2.3-3.2,3.4c-1.4,1.5-2.8,2.9-4.2,4.3
			c-0.1,0.1-0.2,0.2-0.3,0.3c-0.1,0.1-0.2,0.1-0.2,0c-0.1-0.1-0.2-0.2-0.2-0.3c-0.9-1.3-1.9-2.5-2.9-3.6c-0.9-1.1-1.9-2.1-2.9-3.1
			c-0.1-0.1-0.1-0.1-0.2-0.2c-0.1-0.1-0.1-0.2,0-0.3c0.1-0.1,0.2-0.2,0.2-0.2c2.2-2.3,4.5-4.5,6.7-6.8c0.5-0.5,0.4-0.5,1-0.1
			c2.2,1.6,4.4,3.3,6.6,4.9c0.1,0.1,0.3,0.2,0.4,0.3C106,113.8,106,113.8,106,113.9z"/>
		<path class="st95" d="M171.8,128c0-0.1-0.1-0.2-0.1-0.3c-0.6-1.8-1.4-3.5-2.5-5.1c-0.9-1.4-1.4-3-1.7-4.7c-0.1-1-0.3-2-0.5-2.9
			c-0.1-0.5-0.3-1-0.5-1.5c0-0.1-0.1-0.2-0.1-0.3c0-0.1,0-0.2,0.1-0.2c0,0,0,0,0.1,0c1.6-0.4,3.2-0.9,4.7-1.5c2.3-0.9,4.7-1.7,7-2.6
			c0,0,0.1,0,0.1,0c0.6-0.2,0.6-0.2,0.6,0.4c0,0.5,0.2,1,0.3,1.6c0.4,1.5,1,2.9,1.7,4.2c0.7,1.5,1.5,3.1,2.3,4.5
			c0.2,0.4,0.3,0.4-0.2,0.7c-1.3,0.7-2.6,1.4-3.9,2.2c-0.7,0.4-1.3,0.9-1.9,1.5c-0.1,0.1-0.2,0.2-0.4,0.4c-1,1.2-2.2,2.1-3.4,2.9
			c-0.5,0.3-1,0.6-1.5,0.9C172.1,128,172,128,171.8,128z"/>
		<path class="st95" d="M163.2,99.6c0-0.1,0.1-0.2,0.2-0.3c0.6-0.3,1.2-0.6,1.9-0.8c1.4-0.5,2.8-0.9,4.2-1.1
			c2.4-0.4,4.8-0.5,7.2-0.4c0.3,0,0.6,0.1,1,0.1c0.1,0,0.2,0.1,0.2,0.2c0,0.1,0,0.1,0,0.2c0,1.4,0.1,2.9,0.1,4.3
			c0.1,1.7,0.2,3.3,0.4,5c0,0.4,0.1,0.9,0.2,1.3c0,0.3,0,0.3-0.2,0.4c-0.8,0.3-1.6,0.6-2.4,0.9c-2.5,1-5.1,1.9-7.6,2.8
			c-0.5,0.2-1.1,0.3-1.6,0.5c-0.1,0-0.2,0-0.3,0.1c-0.2,0-0.3,0-0.3-0.2c-0.1-0.3-0.2-0.6-0.3-0.8c-0.4-1.2-0.7-2.4-1-3.7
			c-0.5-2-0.8-4-1.2-6.1c-0.1-0.6-0.2-1.2-0.3-1.8C163.3,100,163.2,99.9,163.2,99.6z"/>
		<path class="st95" d="M165.8,113.1c0.2,0,0.3,0,0.3,0.1c0.1,0.1,0.1,0.3,0.2,0.4c0.4,1,0.6,2.1,0.8,3.1c0.1,0.8,0.2,1.7,0.4,2.5
			c0.3,1.2,0.7,2.2,1.3,3.2c1,1.5,1.8,3.1,2.4,4.8c0.1,0.2,0.1,0.4,0.2,0.6c0,0.1,0,0.2-0.2,0.2c-0.1,0-0.1,0-0.2,0
			c-1.9,0.2-3.7,0.8-5.5,1.4c-1.9,0.7-3.7,1.6-5.5,2.5c-0.4,0.2-0.5,0.3-0.9-0.2c-0.2-0.3-0.3-0.6-0.4-0.9c-0.3-0.9-0.5-1.8-0.7-2.8
			c-0.1-0.9-0.2-1.9-0.1-2.8c0-1.3,0.2-2.5,0.7-3.7c0.5-1.4,0.8-2.9,0.8-4.4c0-0.6,0-1.2,0-1.8c0-0.3,0-0.3,0.3-0.4
			c1.2-0.3,2.4-0.8,3.6-1.2c0.7-0.2,1.4-0.5,2.1-0.7C165.6,113.1,165.8,113.1,165.8,113.1z"/>
		<path class="st95" d="M154.3,116.3c-0.1,0-0.2,0-0.2-0.1c0-0.1-0.1-0.2-0.1-0.4c-1-3-2-6-3.1-9c-0.2-0.6-0.3-0.6,0.4-0.8
			c1.6-0.3,3.1-1,4.6-1.8c1.8-1,3.4-2.1,5.1-3.2c0.5-0.3,1-0.7,1.5-1c0.1-0.1,0.2-0.1,0.3-0.2c0.1-0.1,0.2,0,0.3,0.1
			c0.1,0.3,0.1,0.6,0.1,0.9c0.5,3.1,1,6.2,1.8,9.2c0.2,0.8,0.5,1.6,0.8,2.4c0.1,0.3,0.1,0.3-0.2,0.5c-0.4,0.1-0.9,0.3-1.3,0.4
			c-1.1,0.4-2.2,0.8-3.3,1.1c-1.5,0.5-3,0.9-4.5,1.3c-0.6,0.2-1.3,0.3-1.9,0.5C154.4,116.3,154.3,116.3,154.3,116.3z"/>
		<path class="st95" d="M129.9,100.7c-0.3-0.9-0.7-1.8-1.2-2.6c-0.6-1.2,0-1.2,0.7-2c0.6-0.3,1.1-0.6,1.6-1c0.5-0.3,1.1-0.6,1.6-0.9
			c0.1-0.1,0.3-0.3,0.1-0.4c0.1,0.1,0.3,0.1,0.4,0c0.5-0.2,0.9-0.5,1.4-0.7c0.3-0.1,0.6-0.3,0.7-0.5c0.2,0,0.5-0.1,0.6-0.4
			c0-0.1,0.3,0,0.3-0.2c0.1,0,0.2,0,0.2,0c0.1-0.1,0.2-0.1,0.2-0.2c0,0,0,0,0,0c0.1,0.1,0.1,0.1,0.2,0c0.1-0.1,0.3-0.2,0.4-0.2
			c0.2,0.4,0.4,0.7,0.5,1.1c0.9,2,1.3,4.1,1,6.4c-0.1,0.5-0.2,1.1-0.3,1.6c-0.2,1.2-0.2,2.4,0.1,3.5c0.2,0.8,0.6,1.6,1.1,2.3
			c0.1,0.1,0.1,0.1,0.2,0.2c-0.2,0.1-0.3,0.1-0.5,0.1c-1.5,0.3-2.9,1-4,2.1c-0.7,0.6-1.5,1.7-2.3,2.1c-0.1,0.1-0.3,0-0.3,0
			c0,0,0-0.1-0.1-0.1c0,0-0.1,0-0.1,0.1c0-0.3-0.1-0.6-0.4-0.7c0-0.2-0.1-0.3-0.2-0.5c-0.7-1.2-1-2.5-1.3-3.8c0-0.1,0-0.2,0-0.3
			c0-0.2,0-0.3,0-0.5c0-0.2,0-0.3,0-0.5c0.1-0.4,0-0.8,0-1.1c0,0,0-0.1,0-0.1C130.5,102.7,130.3,101.7,129.9,100.7z"/>
		<path class="st95" d="M142.6,107.6c0.5-0.2,0.8-0.5,1.3-0.7c0.6-0.3,1.2-0.5,1.9-0.5c0.7-0.1,1.5-0.1,2.2-0.1c0.7,0,1.4,0,2.2-0.1
			c0.2,0,0.2,0.1,0.3,0.2c0.3,1,0.7,2,1,3c0.7,2.2,1.5,4.3,2.2,6.5c0.2,0.7,0.3,0.6-0.4,0.8c-1.6,0.4-3.1,0.9-4.7,1.5
			c-0.8,0.3-1.5,0.6-2.2,1c-0.1,0-0.1,0.1-0.2,0.1c-0.3,0.1-0.3,0.1-0.5-0.2c-0.3-0.5-0.5-1-0.6-1.5c-0.2-0.9-0.2-1.8,0-2.7
			c0.3-1.2,0.2-2.3-0.2-3.4c-0.4-1-1-2-1.6-2.9C143.1,108.2,142.9,107.9,142.6,107.6z"/>
		<path class="st95" d="M98.1,73.7c0,0.2-0.1,0.3-0.2,0.3c-0.4,0.5-0.9,0.9-1.3,1.4c-1,1-2,1.9-3.1,2.8c-0.8,0.7-1.6,1.3-2.5,1.9
			c-0.1,0.1-0.2,0.1-0.2,0.2c-0.1,0.1-0.2,0.1-0.3,0c-0.1-0.1-0.2-0.2-0.3-0.3c-0.7-1-1.6-1.8-2.6-2.6c-2.4-2-5-3.8-7.7-5.4
			c-1-0.6-2-1.1-3-1.7c-0.1,0-0.2-0.1-0.2-0.2c-0.1,0,0-0.1,0-0.1c0.1-0.1,0.3-0.2,0.4-0.3c2.5-1.3,5-2.5,7.5-3.7c2-1,4-1.9,6.1-2.9
			c0.9-0.4,1.9-0.8,2.9-1.2c0.9-0.4,0.8-0.3,1.1,0.5c0.6,2,1.2,4,1.8,6c0.5,1.6,1,3.3,1.5,4.9C98.1,73.5,98.1,73.6,98.1,73.7z"/>
		<path class="st95" d="M128.9,96.5c-0.3,0.3-0.7,0.5-1.1,0.2c-0.2-0.2-0.4-0.4-0.6-0.6c-0.1,0-0.1-0.1-0.2,0c0,0,0,0.1,0,0.1
			c0.1,0.2,0.3,0.4,0.5,0.6c0.6,0.6-0.1,0.8-0.5,1c-1.8,1.1-3.6,2.3-5.4,3.4c-1.9,1.2-3.8,2.3-5.6,3.5c-0.4,0.2-0.5,0.2-0.8-0.1
			c-1.2-1.5-2.3-3.2-3.2-4.9c-0.5-0.9-1-1.7-1.5-2.6c-0.4-0.8-1-1.4-1.4-2.3c0.6-0.5,1.3-0.8,2-1.2c0.9-0.5,1.8-1,2.6-1.5
			c2-1.1,4-2.3,6-3.4c0.2-0.1,0.3-0.1,0.4,0.1c0.1,0.1,0.2,0.2,0.2,0.2c0.5,0.5,1,1.1,1.5,1.6c0,0,0,0,0.1,0
			c0.1,0.3,0.4,0.5,0.6,0.7c0,0,0.1,0,0.1,0c0,0,0-0.1,0-0.1c-0.1-0.3-0.3-0.4-0.6-0.6c0-0.1-0.1-0.1-0.2-0.2c0-0.2-0.1-0.3-0.2-0.4
			c-0.3-0.4-0.7-0.7-1-1.1c-0.6-0.6-0.2-0.7,0.5-1.1c1-0.6,2-1.1,3-1.7c1.1-0.6,2.2-1.3,3.3-1.9c0.6-0.3,2.4-1.8,3-1.5
			c0.1,0.3,0.5,0.3,0.6,0.5c0.1,0.1,0.1,0.3,0.2,0.4c0.1,0.1,0.1,0.2,0.2,0.3c2.1,1.9,3.8,4.2,4.9,6.8c0.3,0.7,0.4,0.9-0.3,1.4
			c-0.7,0.4-1.5,0.9-2.2,1.3c-0.6,0.4-1.2,0.7-1.9,1.1c-0.3,0.2-0.6,0.4-0.9,0.5c-0.3,0.2-0.6,0.3-0.9,0.5c-0.4,0.2-0.7,0.5-1.1,0.8
			C129.2,96.3,129.1,96.4,128.9,96.5z M123.9,92.7C123.9,92.7,123.9,92.6,123.9,92.7c0-0.1,0-0.2-0.1-0.2c-0.1-0.3-0.3-0.5-0.6-0.7
			c0,0-0.1,0-0.2,0c-0.1,0,0,0.1,0,0.1c0.2,0.2,0.4,0.4,0.6,0.6 M126.2,95.2c0.1,0.1,0.1,0.2,0.2,0c0-0.1,0-0.1-0.1-0.2
			c-0.2-0.3-0.5-0.5-0.7-0.8c0,0-0.1,0-0.1,0c0,0,0,0.1,0,0.1C125.6,94.7,125.9,95,126.2,95.2z M124.9,93.6c0,0,0-0.1-0.1-0.2
			c-0.2-0.2-0.4-0.4-0.5-0.6c0,0-0.1-0.1-0.1,0c-0.1,0,0,0.1,0,0.2c0.2,0.3,0.4,0.5,0.7,0.7C124.9,93.8,124.9,93.7,124.9,93.6
			C124.9,93.7,124.9,93.7,124.9,93.6z"/>
		<path class="st95" d="M128.9,98.8c0.6,1.5,1.2,3,1.4,4.5c0.1,0.6,0.1,1.3,0.1,1.9c0,0.2-0.1,0.3-0.3,0.3c-0.6,0.1-1.1,0.2-1.7,0.3
			c-2.1,0.4-4.2,0.8-6.2,1.5c-0.4,0.1-0.9,0.3-1.3,0.5c-0.7,0.3-1.1,0.5-1.7,1.3c-0.2,0-0.2-0.2-0.3-0.3c-0.8-1-1.6-2-2.4-3.1
			c-0.2-0.2-0.4-0.4-0.5-0.6c0.1-0.2,0.3-0.3,0.4-0.3c2.6-1.6,5.1-3.2,7.7-4.8c1.2-0.8,2.6-1.5,3.7-2.4c0.1-0.1,0.2-0.1,0.3-0.1
			c0.1,0,0.2,0.1,0.2,0.1c0.2,0.2,0.3,0.5,0.4,0.8C128.8,98.5,128.8,98.6,128.9,98.8z"/>
		<path class="st99" d="M137.1,34.1C137.1,34.1,137.2,34.2,137.1,34.1c0.1,0.1,0.2,0.1,0.2,0.1C137.3,34.3,137.2,34.3,137.1,34.1
			C137.1,34.2,137.1,34.1,137.1,34.1L137.1,34.1z"/>
		<path class="st100" d="M43.4,59.5c0,0,0.1,0.1,0,0.1C43.4,59.7,43.3,59.6,43.4,59.5C43.3,59.6,43.4,59.5,43.4,59.5z"/>
		<path class="st101" d="M122.9,82.8C122.9,82.8,122.9,82.8,122.9,82.8C123,82.8,123,82.8,122.9,82.8
			C122.9,82.8,122.9,82.8,122.9,82.8C122.9,82.8,122.9,82.8,122.9,82.8z"/>
		<path class="st99" d="M165.1,79.9c0,0.1-0.1,0.1-0.1,0.2c0,0-0.1,0-0.1,0c0,0,0,0,0,0C164.9,80,165,80,165.1,79.9L165.1,79.9z"/>
	</g>
	<g class="st0">
		<circle class="st8" cx="156.3" cy="92" r="12.7"/>
		<path class="st8" d="M82.7,3.1C82.7,3.1,82.7,3.1,82.7,3.1C82.8,3.1,82.8,3.1,82.7,3.1c11,0,19.8,8.9,19.8,19.8
			s-8.9,19.8-19.8,19.8c0,0,0,0,0,0c0,0,0,0,0,0c-10.9,0-19.8-8.9-19.8-19.8C62.9,12,71.8,3.1,82.7,3.1z"/>
		<path class="st8" d="M175.8,141.7c-2.5,0-4.5-2-4.5-4.5c0-5.1-1-8.7-2.2-11.3c-0.2-0.5-0.8-0.9-0.9,0c-0.2,1.1,0.2,65.6,0.2,65.6
			c0,3.2-2.6,5.8-5.8,5.8c-3.2,0-5.8-2.6-5.8-5.8c0,0,0-31,0-32.3c0-1.2-1.9-1.3-1.9,0c0,2,0,32.3,0,32.3c0,3.2-2.6,5.8-5.8,5.8
			c-3.2,0-5.8-2.6-5.8-5.8c0,0-0.4-67.2-0.5-68.1c-0.1-0.9-1-0.6-1.5-0.5c-1.4,0.4-2.9,0.6-4.4,0.6c-4.3,0-12.3-1.8-16.1-9.5
			c-1.3,0.7-2.7,1.1-4.3,1.1c-4.9,0-8.9-4-8.9-8.9c0-10.9,0.3-17.1-3.3-26c-0.7-1.6-2.2-0.7-1.9,1.2c0.2,1.6,0.3,5.7,0.3,14.8
			c0,9.1,7.7,48.2,10,61.7c0.5,3,0.2,5.2-2.4,6.3c-2.7,1.1-5.4,1.9-8.2,2.5v21.5c0,5-3.9,9.1-8.7,9.1c0,0,0,0,0,0
			c-4.8,0-8.7-4.1-8.7-9.1v-20.1c-0.1,0-0.1,0-1.7,0c-1.5,0-1.6,0-1.7,0v20.1c0,5-3.9,9.1-8.7,9.1c0,0,0,0,0,0
			c-4.8,0-8.7-4.1-8.7-9.1v-21.5c-2.8-0.6-5.6-1.4-8.2-2.5c-2.7-1.1-3-3.3-2.4-6.3c2.4-13.5,10-52.2,10-61.3s0.2-12.9,0.2-15.2
			s-1.7-2.5-2.1-1.2c-2.4,6.4-2.9,14.4-2.9,25.1c0,4.9-4,8.9-8.9,8.9c-4.9,0-8.9-4-8.9-8.9c0-8.8,0-22,4.9-33.6
			c4.5-10.5,14.6-23,37.5-23c18.1,0,31.1,8.4,37.5,24.2c4.8,11.9,4.8,25.3,4.8,33.3c0,0.4,0,0.8-0.1,1.2c1.7-0.3,2.9,0.3,4.9,2.3
			c5.4,5.4,15,1,18.5-0.7c6.3-3.1,16-1.4,21.4,2.6c3.3,2.4,10.4,7.5,10.4,25.6C180.3,139.7,178.3,141.7,175.8,141.7z"/>
	</g>
</g>
<g id="Layer_8">
</g>
<g id="Layer_9">
</g>
<g id="Layer_10">
</g>
<g id="Layer_11">
</g>
</svg>
