<?xml version="1.0" encoding="utf-8"?>
<!-- Generator: Adobe Illustrator 22.0.1, SVG Export Plug-In . SVG Version: 6.00 Build 0)  -->
<svg version="1.1" xmlns="http://www.w3.org/2000/svg" xmlns:xlink="http://www.w3.org/1999/xlink" x="0px" y="0px"
	 viewBox="0 0 252 340" style="enable-background:new 0 0 252 340;" xml:space="preserve">
<style type="text/css">
	.st0{display:none;}
	.st1{display:inline;}
	.st2{opacity:0.25;}
	.st3{fill:#9A9B9C;}
	.st4{fill:none;stroke:#9A9B9C;stroke-miterlimit:10;}
	.st5{display:none;fill:url(#SVGID_3_);}
	.st6{display:none;fill:#599F46;}
	.st7{display:inline;fill:#007D85;}
	.st8{display:inline;fill:#35b37a;}
	.st9{display:inline;fill:#797777;}
	.st10{fill:#35b37a;}
	.st11{display:none;opacity:0.65;fill:#F6F9D1;}
	.st12{fill:#00BCF1;}
	.st13{fill:#FFFFFF;}
	.st14{fill:#717073;}
	.st15{fill:none;stroke:#FFFFFF;stroke-width:1.8559;stroke-miterlimit:10;}
	.st16{fill:none;stroke:#B0ACAA;stroke-miterlimit:10;}
	.st17{fill:none;stroke:#616365;stroke-width:0.9947;stroke-miterlimit:10;}
	.st18{fill:none;stroke:#FFFFFF;stroke-width:0.9947;stroke-miterlimit:10;}
	.st19{fill:#616365;}
	.st20{fill:none;stroke:#9A9B9C;stroke-width:0.5;stroke-miterlimit:10;}
	.st21{fill:#49BA52;}
	.st22{fill:#20C4F3;}
	.st23{fill:none;}
	.st24{fill:#50BD61;}
	.st25{fill:#44BAEE;}
	.st26{fill:url(#SVGID_4_);}
	.st27{fill:#636466;}
	.st28{fill:#ECEA66;stroke:#ECEA66;stroke-width:3.1809;}
	.st29{fill:#59AD40;}
	.st30{fill:#35b37a;stroke:#FFFFFF;stroke-width:0.5;stroke-miterlimit:10;}
	.st31{display:none;fill:#403016;}
	.st32{display:none;fill:#21333A;}
	.st33{display:none;fill:#36A8DF;}
	.st34{fill:#2EAA66;}
	.st35{display:none;fill:#D50C51;}
	.st36{display:none;fill:#662582;}
	.st37{display:none;fill:#00BCF1;}
	.st38{opacity:0.5;}
	.st39{fill:none;stroke:#FFFFFF;stroke-width:2.2549;stroke-miterlimit:10;}
	.st40{fill:none;stroke:#616365;stroke-miterlimit:10;}
	.st41{fill:none;stroke:#FFFFFF;stroke-miterlimit:10;}
	.st42{fill:#797777;}
	.st43{fill:none;stroke:#35b37a;stroke-width:15;stroke-miterlimit:10;}
	.st44{fill:none;stroke:#35b37a;stroke-width:15;stroke-miterlimit:10;stroke-dasharray:6,6;}
	.st45{display:none;fill:none;stroke:#9A9B9C;stroke-miterlimit:10;}
	.st46{display:none;fill:#FFFFFF;}
	.st47{fill:url(#SVGID_5_);}
	.st48{fill:url(#SVGID_6_);}
	.st49{fill:url(#SVGID_7_);}
	.st50{opacity:0.25;fill:#007D85;}
	.st51{display:inline;fill:#D8F0CB;}
	.st52{display:inline;opacity:0.25;fill:#FFE617;}
	.st53{display:inline;opacity:0.25;fill:#EB8A35;}
	.st54{display:inline;opacity:0.25;fill:#4C7E77;}
	.st55{display:inline;opacity:0.25;fill:#D4505A;}
	.st56{display:inline;opacity:0.25;fill:#007D85;}
	.st57{display:inline;fill:#EDF6A3;}
	.st58{display:inline;fill:#D5E7D1;}
	.st59{fill:none;stroke:#43587F;stroke-width:3;stroke-linejoin:round;stroke-miterlimit:10;}
	.st60{fill:none;stroke:#43587F;stroke-width:3;stroke-miterlimit:10;}
	.st61{fill:#43587F;}
	.st62{display:inline;fill:#DBED48;}
	.st63{display:inline;fill:none;stroke:#B0ACAA;stroke-width:1.0299;stroke-miterlimit:10;}
	.st64{display:inline;fill:none;stroke:#B0ACAA;stroke-width:1.1118;stroke-miterlimit:10;}
	.st65{fill:none;stroke:#43587F;stroke-width:2.3234;stroke-linejoin:round;stroke-miterlimit:10;}
	.st66{fill:none;stroke:#43587F;stroke-width:2.3234;stroke-miterlimit:10;}
	.st67{fill:none;stroke:#43587F;stroke-width:2.55;stroke-miterlimit:10;}
	.st68{display:inline;fill:#406E55;}
	.st69{display:inline;fill:#43587F;}
	.st70{display:inline;fill:#D4505A;}
	.st71{display:inline;fill:#9C4364;}
	.st72{display:inline;fill:#00A9A1;}
	.st73{display:inline;fill:#EB8A35;}
	.st74{fill:#00A9A1;}
	.st75{display:inline;fill:#EBEAEA;}
	.st76{display:inline;fill:none;stroke:#B0ACAA;stroke-width:0.9947;stroke-miterlimit:10;}
	.st77{display:inline;fill:none;stroke:#FFFFFF;stroke-width:0.9947;stroke-miterlimit:10;}
	.st78{display:inline;fill:none;stroke:#B0ACAA;stroke-miterlimit:10;}
	.st79{display:inline;fill:none;stroke:#FFFFFF;stroke-miterlimit:10;}
	.st80{display:inline;fill:none;stroke:#62C530;stroke-width:2;stroke-miterlimit:10;}
	.st81{display:inline;fill:#89D464;}
	.st82{display:inline;fill:none;stroke:#43587F;stroke-miterlimit:10;}
	.st83{display:inline;fill:none;stroke:#FFFFFF;stroke-width:0.5;stroke-miterlimit:10;}
	.st84{display:inline;fill:none;stroke:#C4C1BF;stroke-width:0.5;stroke-miterlimit:10;}
	.st85{fill:url(#SVGID_8_);}
	.st86{fill:none;stroke:#62C530;stroke-width:2;stroke-miterlimit:10;}
	.st87{fill:none;stroke:#62C530;stroke-width:2;stroke-linecap:round;stroke-miterlimit:10;}
	.st88{fill:#62C530;}
	.st89{fill:none;stroke:#62C530;stroke-width:2;stroke-miterlimit:10;stroke-dasharray:1.9913,2.9869;}
	.st90{fill:none;stroke:#43587F;stroke-linejoin:round;stroke-miterlimit:10;}
	.st91{display:inline;fill:none;stroke:#B0ACAA;stroke-width:0.8872;stroke-miterlimit:10;}
	.st92{display:inline;fill:none;stroke:#62C530;stroke-width:1.8269;stroke-miterlimit:10;}
	.st93{display:inline;fill:#FFFFFF;}
	.st94{fill:url(#SVGID_9_);}
	.st95{fill:#35b37a;stroke:#FFFFFF;stroke-width:0.8803;stroke-miterlimit:10;}
	.st96{fill:none;stroke:#35b37a;stroke-width:28.1467;stroke-miterlimit:10;}
	.st97{display:inline;fill:none;stroke:#35b37a;stroke-width:28.1467;stroke-miterlimit:10;stroke-dasharray:11.2587,11.2587;}
	.st98{fill:none;stroke:#00BCF1;stroke-width:28.1467;stroke-miterlimit:10;}
	.st99{display:inline;fill:none;stroke:#00BCF1;stroke-width:28.1467;stroke-miterlimit:10;stroke-dasharray:11.2587,11.2587;}
	.st100{display:inline;opacity:0.25;}
	.st101{fill:none;stroke:#FFFFFF;stroke-width:1.9653;stroke-miterlimit:10;}
	.st102{fill:#616365;stroke:#717073;stroke-miterlimit:10;}
	.st103{fill:#616365;stroke:#616365;stroke-miterlimit:10;}
	.st104{fill:#616365;stroke:#616365;stroke-width:2;stroke-miterlimit:10;}
	.st105{fill:none;stroke:#616365;stroke-width:4;stroke-miterlimit:10;}
	.st106{fill:none;stroke:#616365;stroke-width:3.5;stroke-miterlimit:10;}
	.st107{fill:none;stroke:#616365;stroke-width:2.9605;stroke-miterlimit:10;}
	.st108{fill:none;stroke:#616365;stroke-width:4;}
	.st109{fill:none;stroke:#616365;stroke-width:3;stroke-miterlimit:10;}
	.st110{fill:none;stroke:#616365;stroke-width:1.0095;stroke-miterlimit:10;}
	.st111{fill:none;stroke:#616365;stroke-width:3.5325;stroke-linecap:round;stroke-miterlimit:10;}
	.st112{fill:none;stroke:#616365;stroke-width:4;stroke-linecap:round;stroke-miterlimit:10;}
	.st113{fill:#616365;stroke:#616365;stroke-width:4;stroke-miterlimit:10;}
	.st114{display:inline;fill:#616365;}
	.st115{display:none;fill:#616365;}
</style>
<g id="Layer_1">
</g>
<g id="Layer_4">
</g>
<g id="Layer_6">
</g>
<g id="Layer_2" class="st0">
</g>
<g id="Layer_3" class="st0">
</g>
<g id="Layer_5">
</g>
<g id="Layer_7">
</g>
<g id="Layer_8">
	<g class="st0">
		<g class="st1">
			<path class="st10" d="M46.9,13.1c-12.4,0-22.4,10.1-22.4,22.4c0,12.4,10.1,22.4,22.4,22.4c12.4,0,22.4-10.1,22.4-22.4
				C69.3,23.1,59.3,13.1,46.9,13.1z M11.7,161.5h70.4V99.1c0-19.4-15.8-35.2-35.2-35.2c-19.4,0-35.2,15.8-35.2,35.2V161.5z"/>
		</g>
		<g class="st1">
			<path class="st10" d="M126,13.1c-12.4,0-22.4,10.1-22.4,22.4c0,12.4,10.1,22.4,22.4,22.4c12.4,0,22.4-10.1,22.4-22.4
				C148.5,23.1,138.4,13.1,126,13.1z M90.8,161.5h70.4V99.1c0-19.4-15.8-35.2-35.2-35.2c-19.4,0-35.2,15.8-35.2,35.2V161.5z"/>
		</g>
		<g class="st1">
			<path class="st10" d="M205.1,13.1c-12.4,0-22.4,10.1-22.4,22.4c0,12.4,10.1,22.4,22.4,22.4c12.4,0,22.4-10.1,22.4-22.4
				C227.6,23.1,217.5,13.1,205.1,13.1z M169.9,161.5h70.4V99.1c0-19.4-15.8-35.2-35.2-35.2c-19.4,0-35.2,15.8-35.2,35.2V161.5z"/>
		</g>
		<g class="st1">
			<path class="st10" d="M46.9,175.2c-12.4,0-22.4,10.1-22.4,22.4c0,12.4,10.1,22.4,22.4,22.4c12.4,0,22.4-10.1,22.4-22.4
				C69.3,185.3,59.3,175.2,46.9,175.2z M11.7,323.7h70.4v-62.4c0-19.4-15.8-35.2-35.2-35.2c-19.4,0-35.2,15.8-35.2,35.2V323.7z"/>
		</g>
		<g class="st1">
			<path class="st10" d="M126,175.2c-12.4,0-22.4,10.1-22.4,22.4c0,12.4,10.1,22.4,22.4,22.4c12.4,0,22.4-10.1,22.4-22.4
				C148.5,185.3,138.4,175.2,126,175.2z M90.8,323.7h70.4v-62.4c0-19.4-15.8-35.2-35.2-35.2c-19.4,0-35.2,15.8-35.2,35.2V323.7z"/>
		</g>
		<g class="st1">
			<path class="st10" d="M205.1,175.2c-12.4,0-22.4,10.1-22.4,22.4c0,12.4,10.1,22.4,22.4,22.4c12.4,0,22.4-10.1,22.4-22.4
				C227.6,185.3,217.5,175.2,205.1,175.2z M169.9,323.7h70.4v-62.4c0-19.4-15.8-35.2-35.2-35.2c-19.4,0-35.2,15.8-35.2,35.2V323.7z"
				/>
		</g>
	</g>
	<g class="st0">
		<g class="st1">
			<g>
				<line class="st96" x1="124.7" y1="221.2" x2="124.7" y2="67.5"/>
				<g>
					<polygon class="st10" points="166.8,79.8 124.7,6.9 82.6,79.8 					"/>
				</g>
			</g>
		</g>
		<line class="st97" x1="124.7" y1="328.6" x2="124.7" y2="221.2"/>
	</g>
	<g class="st0">
		<g class="st1">
			<g>
				<line class="st98" x1="124.7" y1="221.2" x2="124.7" y2="67.5"/>
				<g>
					<polygon class="st12" points="166.8,79.8 124.7,6.9 82.6,79.8 					"/>
				</g>
			</g>
		</g>
		<line class="st99" x1="124.7" y1="328.6" x2="124.7" y2="221.2"/>
	</g>
	<g class="st0">
		<g class="st1">
			<path class="st12" d="M85.8,14.8c-12.3,0-22.3,10-22.3,22.3c0,12.3,10,22.3,22.3,22.3c12.3,0,22.3-10,22.3-22.3
				C108.1,24.7,98.1,14.8,85.8,14.8z M50.9,162.2h69.9v-62c0-19.3-15.7-34.9-34.9-34.9c-19.3,0-34.9,15.7-34.9,34.9V162.2z"/>
		</g>
		<g class="st1">
			<path class="st10" d="M164.4,14.8c-12.3,0-22.3,10-22.3,22.3c0,12.3,10,22.3,22.3,22.3c12.3,0,22.3-10,22.3-22.3
				C186.7,24.7,176.7,14.8,164.4,14.8z M129.4,162.2h69.9v-62c0-19.3-15.7-34.9-34.9-34.9c-19.3,0-34.9,15.7-34.9,34.9V162.2z"/>
		</g>
		<g class="st1">
			<path class="st10" d="M85.8,175.8c-12.3,0-22.3,10-22.3,22.3c0,12.3,10,22.3,22.3,22.3c12.3,0,22.3-10,22.3-22.3
				C108.1,185.8,98.1,175.8,85.8,175.8z M50.9,323.2h69.9v-62c0-19.3-15.7-34.9-34.9-34.9c-19.3,0-34.9,15.7-34.9,34.9V323.2z"/>
		</g>
		<g class="st1">
			<path class="st10" d="M164.4,175.8c-12.3,0-22.3,10-22.3,22.3c0,12.3,10,22.3,22.3,22.3c12.3,0,22.3-10,22.3-22.3
				C186.7,185.8,176.7,175.8,164.4,175.8z M129.4,323.2h69.9v-62c0-19.3-15.7-34.9-34.9-34.9c-19.3,0-34.9,15.7-34.9,34.9V323.2z"/>
		</g>
	</g>
	<g class="st0">
		<g class="st1">
			<g>
				<path class="st12" d="M60.9,14.8c-12.2,0-22.2,10-22.2,22.2c0,12.2,10,22.2,22.2,22.2c12.3,0,22.2-10,22.2-22.2
					C83.1,24.8,73.1,14.8,60.9,14.8z M26,161.8h69.7V100c0-19.2-15.6-34.8-34.9-34.8C41.6,65.2,26,80.8,26,100V161.8z"/>
			</g>
			<g>
				<path class="st10" d="M125.8,90.1c-7.8,0-14.2,6.4-14.2,14.2c0,7.8,6.4,14.2,14.2,14.2c7.8,0,14.2-6.4,14.2-14.2
					C139.9,96.5,133.6,90.1,125.8,90.1z M103.5,161.2H148v-16.7c0-12.3-10-22.2-22.2-22.2c-12.3,0-22.2,10-22.2,22.2V161.2z"/>
			</g>
			<g>
				<path class="st12" d="M190.7,14.8c-12.2,0-22.2,10-22.2,22.2c0,12.2,10,22.2,22.2,22.2c12.3,0,22.2-10,22.2-22.2
					C212.9,24.8,202.9,14.8,190.7,14.8z M155.8,161.8h69.7V100c0-19.2-15.6-34.8-34.9-34.8c-19.2,0-34.8,15.6-34.8,34.8V161.8z"/>
			</g>
		</g>
		<g class="st1">
			<g>
				<path class="st10" d="M60.9,176.2c-12.2,0-22.2,10-22.2,22.2c0,12.2,10,22.2,22.2,22.2c12.3,0,22.2-10,22.2-22.2
					C83.1,186.1,73.1,176.2,60.9,176.2z M26,323.2h69.7v-61.8c0-19.2-15.6-34.8-34.9-34.8c-19.2,0-34.8,15.6-34.8,34.8V323.2z"/>
			</g>
			<g>
				<path class="st12" d="M125.8,251.5c-7.8,0-14.2,6.4-14.2,14.2c0,7.8,6.4,14.2,14.2,14.2c7.8,0,14.2-6.4,14.2-14.2
					C139.9,257.8,133.6,251.5,125.8,251.5z M103.5,322.5H148v-16.7c0-12.3-10-22.2-22.2-22.2c-12.3,0-22.2,10-22.2,22.2V322.5z"/>
			</g>
			<g>
				<path class="st10" d="M190.7,176.2c-12.2,0-22.2,10-22.2,22.2c0,12.2,10,22.2,22.2,22.2c12.3,0,22.2-10,22.2-22.2
					C212.9,186.1,202.9,176.2,190.7,176.2z M155.8,323.2h69.7v-61.8c0-19.2-15.6-34.8-34.9-34.8c-19.2,0-34.8,15.6-34.8,34.8V323.2z
					"/>
			</g>
		</g>
	</g>
	<g class="st0">
		<g class="st1">
			<path class="st12" d="M47.5,15.4c-12.2,0-22.2,10-22.2,22.2c0,12.2,10,22.2,22.2,22.2c12.2,0,22.2-10,22.2-22.2
				C69.7,25.4,59.8,15.4,47.5,15.4z M12.7,162.2h69.6v-61.7c0-19.2-15.6-34.8-34.8-34.8c-19.2,0-34.8,15.6-34.8,34.8V162.2z"/>
		</g>
		<g class="st1">
			<path class="st10" d="M125.8,15.4c-12.2,0-22.2,10-22.2,22.2c0,12.2,10,22.2,22.2,22.2c12.2,0,22.2-10,22.2-22.2
				C148,25.4,138,15.4,125.8,15.4z M91,162.2h69.6v-61.7c0-19.2-15.6-34.8-34.8-34.8c-19.2,0-34.8,15.6-34.8,34.8V162.2z"/>
		</g>
		<g class="st1">
			<path class="st12" d="M204,15.4c-12.2,0-22.2,10-22.2,22.2c0,12.2,10,22.2,22.2,22.2c12.2,0,22.2-10,22.2-22.2
				C226.2,25.4,216.2,15.4,204,15.4z M169.2,162.2h69.6v-61.7c0-19.2-15.6-34.8-34.8-34.8c-19.2,0-34.8,15.6-34.8,34.8V162.2z"/>
		</g>
		<g class="st1">
			<path class="st10" d="M47.5,175.8c-12.2,0-22.2,10-22.2,22.2c0,12.2,10,22.2,22.2,22.2c12.2,0,22.2-10,22.2-22.2
				C69.7,185.7,59.8,175.8,47.5,175.8z M12.7,322.6h69.6v-61.7c0-19.2-15.6-34.8-34.8-34.8c-19.2,0-34.8,15.6-34.8,34.8V322.6z"/>
		</g>
		<g class="st1">
			<path class="st12" d="M125.8,175.8c-12.2,0-22.2,10-22.2,22.2c0,12.2,10,22.2,22.2,22.2c12.2,0,22.2-10,22.2-22.2
				C148,185.7,138,175.8,125.8,175.8z M91,322.6h69.6v-61.7c0-19.2-15.6-34.8-34.8-34.8c-19.2,0-34.8,15.6-34.8,34.8V322.6z"/>
		</g>
		<g class="st1">
			<path class="st10" d="M204,175.8c-12.2,0-22.2,10-22.2,22.2c0,12.2,10,22.2,22.2,22.2c12.2,0,22.2-10,22.2-22.2
				C226.2,185.7,216.2,175.8,204,175.8z M169.2,322.6h69.6v-61.7c0-19.2-15.6-34.8-34.8-34.8c-19.2,0-34.8,15.6-34.8,34.8V322.6z"/>
		</g>
	</g>
	<g class="st0">
		<g class="st1">
			<path class="st12" d="M85.5,15.4c-12.2,0-22.2,10-22.2,22.2c0,12.2,10,22.2,22.2,22.2c12.2,0,22.2-10,22.2-22.2
				C107.7,25.4,97.8,15.4,85.5,15.4z M50.7,162.2h69.6v-61.7c0-19.2-15.6-34.8-34.8-34.8c-19.2,0-34.8,15.6-34.8,34.8V162.2z"/>
		</g>
		<g class="st1">
			<path class="st12" d="M163.8,15.4c-12.2,0-22.2,10-22.2,22.2c0,12.2,10,22.2,22.2,22.2c12.2,0,22.2-10,22.2-22.2
				C186,25.4,176,15.4,163.8,15.4z M129,162.2h69.6v-61.7c0-19.2-15.6-34.8-34.8-34.8c-19.2,0-34.8,15.6-34.8,34.8V162.2z"/>
		</g>
		<g class="st1">
			<path class="st10" d="M85.5,175.8c-12.2,0-22.2,10-22.2,22.2c0,12.2,10,22.2,22.2,22.2c12.2,0,22.2-10,22.2-22.2
				C107.7,185.7,97.8,175.8,85.5,175.8z M50.7,322.6h69.6v-61.7c0-19.2-15.6-34.8-34.8-34.8c-19.2,0-34.8,15.6-34.8,34.8V322.6z"/>
		</g>
		<g class="st1">
			<path class="st10" d="M163.8,175.8c-12.2,0-22.2,10-22.2,22.2c0,12.2,10,22.2,22.2,22.2c12.2,0,22.2-10,22.2-22.2
				C186,185.7,176,175.8,163.8,175.8z M129,322.6h69.6v-61.7c0-19.2-15.6-34.8-34.8-34.8c-19.2,0-34.8,15.6-34.8,34.8V322.6z"/>
		</g>
	</g>
	<g class="st0">
		<g class="st1">
			<path class="st12" d="M85.5,15.4c-12.2,0-22.2,10-22.2,22.2c0,12.2,10,22.2,22.2,22.2c12.2,0,22.2-10,22.2-22.2
				C107.7,25.4,97.8,15.4,85.5,15.4z M50.7,162.2h69.6v-61.7c0-19.2-15.6-34.8-34.8-34.8c-19.2,0-34.8,15.6-34.8,34.8V162.2z"/>
		</g>
		<g class="st1">
			<path class="st10" d="M163.8,15.4c-12.2,0-22.2,10-22.2,22.2c0,12.2,10,22.2,22.2,22.2c12.2,0,22.2-10,22.2-22.2
				C186,25.4,176,15.4,163.8,15.4z M129,162.2h69.6v-61.7c0-19.2-15.6-34.8-34.8-34.8c-19.2,0-34.8,15.6-34.8,34.8V162.2z"/>
		</g>
		<g class="st1">
			<path class="st10" d="M85.5,175.8c-12.2,0-22.2,10-22.2,22.2c0,12.2,10,22.2,22.2,22.2c12.2,0,22.2-10,22.2-22.2
				C107.7,185.7,97.8,175.8,85.5,175.8z M50.7,322.6h69.6v-61.7c0-19.2-15.6-34.8-34.8-34.8c-19.2,0-34.8,15.6-34.8,34.8V322.6z"/>
		</g>
		<g class="st100">
			<path class="st12" d="M163.8,175.8c-12.2,0-22.2,10-22.2,22.2c0,12.2,10,22.2,22.2,22.2c12.2,0,22.2-10,22.2-22.2
				C186,185.7,176,175.8,163.8,175.8z M129,322.6h69.6v-61.7c0-19.2-15.6-34.8-34.8-34.8c-19.2,0-34.8,15.6-34.8,34.8V322.6z"/>
		</g>
	</g>
	<g class="st0">
		<g class="st1">
			<path class="st12" d="M85.5,15.4c-12.2,0-22.2,10-22.2,22.2c0,12.2,10,22.2,22.2,22.2c12.2,0,22.2-10,22.2-22.2
				C107.7,25.4,97.8,15.4,85.5,15.4z M50.7,162.2h69.6v-61.7c0-19.2-15.6-34.8-34.8-34.8c-19.2,0-34.8,15.6-34.8,34.8V162.2z"/>
		</g>
		<g class="st1">
			<path class="st10" d="M163.8,15.4c-12.2,0-22.2,10-22.2,22.2c0,12.2,10,22.2,22.2,22.2c12.2,0,22.2-10,22.2-22.2
				C186,25.4,176,15.4,163.8,15.4z M129,162.2h69.6v-61.7c0-19.2-15.6-34.8-34.8-34.8c-19.2,0-34.8,15.6-34.8,34.8V162.2z"/>
		</g>
		<g class="st100">
			<path class="st10" d="M85.5,175.8c-12.2,0-22.2,10-22.2,22.2c0,12.2,10,22.2,22.2,22.2c12.2,0,22.2-10,22.2-22.2
				C107.7,185.7,97.8,175.8,85.5,175.8z M50.7,322.6h69.6v-61.7c0-19.2-15.6-34.8-34.8-34.8c-19.2,0-34.8,15.6-34.8,34.8V322.6z"/>
		</g>
		<g class="st100">
			<path class="st12" d="M163.8,175.8c-12.2,0-22.2,10-22.2,22.2c0,12.2,10,22.2,22.2,22.2c12.2,0,22.2-10,22.2-22.2
				C186,185.7,176,175.8,163.8,175.8z M129,322.6h69.6v-61.7c0-19.2-15.6-34.8-34.8-34.8c-19.2,0-34.8,15.6-34.8,34.8V322.6z"/>
		</g>
	</g>
	<g class="st0">
		<path class="st8" d="M102.4,45.1v98.5H83.3V45.1H102.4z"/>
		<path class="st8" d="M117.8,93.6c0-7.9-0.4-14.8-0.6-21.5h16.5l0.9,8.2h0.3c3.8-5.7,9.9-9.4,17.4-9.4c13.6,0,19,10.8,19,26.7v45.9
			h-19.1V98.9c0-6.1-1.5-11.8-7-11.8c-3.2,0-5.8,2.2-7.2,6.4c-0.6,1.5-1,3.8-1,6.6v43.5h-19.1V93.6z"/>
		<path class="st8" d="M28,215.3h-0.3l-16.1,8.3l-3.2-15.1l21.8-11.3H47v95H28V215.3z"/>
		<path class="st8" d="M74.9,277.6c3.7,0,5.6-0.1,8.8-0.7c3.7-0.7,7.9-2.6,11.1-5.7c4.1-3.9,7.6-10.7,9.2-19.1h-0.4
			c-3.1,3.4-7.5,5.8-13.6,5.8c-12.3,0-22.4-11-22.4-28.4c0-16.4,10.1-33.3,28.3-33.3c17.7,0,26.9,16.1,26.9,39
			c0,21.5-6.9,36.5-15.6,45.9c-5.8,6.3-14.2,10.5-23.4,12c-3.1,0.4-6,0.4-8.9,0.4V277.6z M86.5,227.9c0.1,9.2,3.1,16.8,8.9,16.8
			c3.4,0,6.3-2.5,7.3-5c0.7-1.9,0.9-3.8,0.9-10.1c0-12.6-3.5-19.6-8.6-19.6C90,210.1,86.3,216.4,86.5,227.9z"/>
		<path class="st8" d="M178.3,211.7c-2.3,0.1-5,0.4-7.9,1c-12.6,2.8-18.9,13.3-21.2,25.3h0.4c3.4-4.5,8.3-7.6,14.6-7.6
			c12.9,0,21.5,11.5,21.5,29.5c0,16.7-8.5,33.6-27,33.6c-18,0-28.9-15.6-28.9-39.2c0-20.7,6.9-34.9,15.6-44.3
			c6.1-6.9,15.3-11.4,23.2-12.9c4.5-0.9,7.6-0.9,9.6-1V211.7z M166.9,259.8c-0.1-8-2.8-15.6-8.9-15.6c-3.1,0-6,2-7.7,6.4
			c-0.6,1-1,3.9-1,8.3c0,12.4,3.5,20.7,9.2,20.7C164.8,279.6,166.9,271.2,166.9,259.8z"/>
		<path class="st8" d="M246.1,197.4v12.6l-29.8,82.4h-18.7l29.2-77.9v-0.3h-32.4v-16.8H246.1z"/>
	</g>
	<g class="st0">
		<path class="st8" d="M103,45.1v98.5H83.9V45.1H103z"/>
		<path class="st8" d="M118.3,93.6c0-7.9-0.4-14.8-0.6-21.5h16.5l0.9,8.2h0.3c3.8-5.7,9.9-9.4,17.4-9.4c13.6,0,19,10.8,19,26.7v45.9
			h-19.1V98.9c0-6.1-1.5-11.8-7-11.8c-3.2,0-5.8,2.2-7.2,6.4c-0.6,1.5-1,3.8-1,6.6v43.5h-19.1V93.6z"/>
		<path class="st8" d="M6,292.3v-12.9l9.5-12.1c12.3-15.6,22.4-28.6,22.4-42.2c0-7.6-4.2-13-12.1-13c-6,0-10.8,2.6-14.3,4.8L8,202
			c4.4-2.8,12.6-5.8,21.2-5.8c20.8,0,27.5,13.9,27.5,27.5c0,17.8-11.1,32.1-22.1,44.9l-5.7,6.7v0.3H58v16.8H6z"/>
		<path class="st8" d="M123.6,244.4c0,34-12.4,49.1-27.8,49.1c-20.7,0-27.8-23.8-27.8-48.2c0-27.3,8.8-49.1,28.5-49.1
			C118.5,196.2,123.6,221.8,123.6,244.4z M87.4,244.9c-0.3,22.2,2.5,32.3,8.9,32.3c6,0,8-10.5,8-32.3c0-20.3-1.9-32.3-8-32.3
			C90.3,212.6,87.2,222.8,87.4,244.9z"/>
		<path class="st8" d="M130.5,292.3v-12.9l9.5-12.1c12.3-15.6,22.4-28.6,22.4-42.2c0-7.6-4.2-13-12.1-13c-6,0-10.8,2.6-14.3,4.8
			l-3.4-14.9c4.4-2.8,12.6-5.8,21.2-5.8c20.8,0,27.5,13.9,27.5,27.5c0,17.8-11.1,32.1-22.1,44.9l-5.7,6.7v0.3h29.1v16.8H130.5z"/>
		<path class="st8" d="M241.1,211.7c-2.3,0.1-5,0.4-7.9,1c-12.6,2.8-18.9,13.3-21.2,25.3h0.4c3.4-4.5,8.3-7.6,14.6-7.6
			c12.9,0,21.5,11.5,21.5,29.5c0,16.7-8.5,33.6-27,33.6c-18,0-28.9-15.6-28.9-39.2c0-20.7,6.9-34.9,15.6-44.3
			c6.1-6.9,15.3-11.4,23.2-12.9c4.5-0.9,7.6-0.9,9.6-1V211.7z M229.7,259.8c-0.1-8-2.8-15.6-8.9-15.6c-3.1,0-6,2-7.7,6.4
			c-0.6,1-1,3.9-1,8.3c0,12.4,3.5,20.7,9.2,20.7C227.6,279.6,229.7,271.2,229.7,259.8z"/>
	</g>
	<circle class="st10" cx="126.9" cy="175" r="118"/>
	<g>
		<path class="st13" d="M55.1,240.8l5.2-37H44v-15.5h18.7l3.6-25.3H49.2v-15.3h19.3l5.2-36.2h14.9l-5,36.2h19.3l5.2-36.2H123
			l-5,36.2h16.1V163h-18.5l-3.4,25.3H129v15.3h-19.3l-5,37.2H89.4l5.2-37.2H75.4l-5.2,37.2H55.1z M97.1,188.3l3.4-25.3H81.2
			l-3.4,25.3H97.1z"/>
		<path class="st13" d="M173.3,133.6h-0.4l-23.7,11.9L145,127l31.4-15.5h20.5v129.3h-23.7V133.6z"/>
	</g>
	<circle class="st37" cx="126.9" cy="175" r="118"/>
	<g class="st0">
		<path class="st93" d="M55.1,240.8l5.2-37H44v-15.5h18.7l3.6-25.3H49.2v-15.3h19.3l5.2-36.2h14.9l-5,36.2h19.3l5.2-36.2H123
			l-5,36.2h16.1V163h-18.5l-3.4,25.3H129v15.3h-19.3l-5,37.2H89.4l5.2-37.2H75.4l-5.2,37.2H55.1z M97.1,188.3l3.4-25.3H81.2
			l-3.4,25.3H97.1z"/>
		<path class="st93" d="M173.3,133.6h-0.4l-23.7,11.9L145,127l31.4-15.5h20.5v129.3h-23.7V133.6z"/>
	</g>
</g>
<g id="Layer_9">
</g>
<g id="Layer_10">
</g>
<g id="Layer_11">
</g>
</svg>
