<svg xmlns="http://www.w3.org/2000/svg" xmlns:xlink="http://www.w3.org/1999/xlink" version="1.1" style="enable-background:new 0 0 252 340;" xml:space="preserve" width="252" height="340"><rect id="backgroundrect" width="100%" height="100%" x="0" y="0" fill="none" stroke="none"/>
<style type="text/css">
	.st0{opacity:opacity:0.1;fill:#37B34A;}
	.st1{fill:none;stroke:#CCCCCC;stroke-miterlimit:10;}
	.st2{display:none;}
	.st3{display:inline;}
	.st4{opacity:0.25;}
	.st5{fill:#9A9B9C;}
	.st6{fill:none;stroke:#9A9B9C;stroke-miterlimit:10;}
	.st7{display:none;fill:url(#SVGID_3_);}
	.st8{display:none;fill:#599F46;}
	.st9{display:inline;fill:#007D85;}
	.st10{display:inline;fill:#37B34A;}
	.st11{display:inline;fill:#797777;}
	.st12{fill:#37B34A;}
	.st13{display:none;opacity:0.65;fill:#F6F9D1;}
	.st14{fill:#00BCF1;}
	.st15{fill:#FFFFFF;}
	.st16{fill:#717073;}
	.st17{fill:none;stroke:#FFFFFF;stroke-width:1.8559;stroke-miterlimit:10;}
	.st18{fill:none;stroke:#B0ACAA;stroke-miterlimit:10;}
	.st19{fill:none;stroke:#616365;stroke-width:0.9947;stroke-miterlimit:10;}
	.st20{fill:none;stroke:#FFFFFF;stroke-width:0.9947;stroke-miterlimit:10;}
	.st21{fill:#616365;}
	.st22{fill:none;stroke:#9A9B9C;stroke-width:0.5;stroke-miterlimit:10;}
	.st23{fill:#49BA52;}
	.st24{fill:#20C4F3;}
	.st25{fill:none;}
	.st26{fill:#50BD61;}
	.st27{fill:#44BAEE;}
	.st28{fill:url(#SVGID_4_);}
	.st29{fill:#636466;}
	.st30{fill:#ECEA66;stroke:#ECEA66;stroke-width:3.1809;}
	.st31{fill:#59AD40;}
	.st32{fill:#37B34A;stroke:#FFFFFF;stroke-width:0.5;stroke-miterlimit:10;}
	.st33{display:none;fill:#403016;}
	.st34{display:none;fill:#21333A;}
	.st35{display:none;fill:#36A8DF;}
	.st36{fill:#2EAA66;}
	.st37{display:none;fill:#D50C51;}
	.st38{display:none;fill:#662582;}
	.st39{display:none;fill:#00BCF1;}
	.st40{opacity:0.5;}
	.st41{fill:none;stroke:#FFFFFF;stroke-width:2.2549;stroke-miterlimit:10;}
	.st42{fill:none;stroke:#616365;stroke-miterlimit:10;}
	.st43{fill:none;stroke:#FFFFFF;stroke-miterlimit:10;}
	.st44{fill:#797777;}
	.st45{fill:none;stroke:#37B34A;stroke-width:15;stroke-miterlimit:10;}
	.st46{fill:none;stroke:#37B34A;stroke-width:15;stroke-miterlimit:10;stroke-dasharray:6,6;}
	.st47{display:none;fill:none;stroke:#9A9B9C;stroke-miterlimit:10;}
	.st48{display:none;fill:#FFFFFF;}
	.st49{fill:url(#SVGID_5_);}
	.st50{fill:url(#SVGID_6_);}
	.st51{fill:url(#SVGID_7_);}
	.st52{opacity:0.25;fill:#007D85;}
	.st53{display:inline;fill:#D8F0CB;}
	.st54{display:inline;opacity:0.25;fill:#FFE617;}
	.st55{display:inline;opacity:0.25;fill:#EB8A35;}
	.st56{display:inline;opacity:0.25;fill:#4C7E77;}
	.st57{display:inline;opacity:0.25;fill:#D4505A;}
	.st58{display:inline;opacity:0.25;fill:#007D85;}
	.st59{display:inline;fill:#EDF6A3;}
	.st60{display:inline;fill:#D5E7D1;}
	.st61{fill:none;stroke:#43587F;stroke-width:3;stroke-linejoin:round;stroke-miterlimit:10;}
	.st62{fill:none;stroke:#43587F;stroke-width:3;stroke-miterlimit:10;}
	.st63{fill:#43587F;}
	.st64{display:inline;fill:#DBED48;}
	.st65{display:inline;fill:none;stroke:#B0ACAA;stroke-width:1.0299;stroke-miterlimit:10;}
	.st66{display:inline;fill:none;stroke:#B0ACAA;stroke-width:1.1118;stroke-miterlimit:10;}
	.st67{fill:none;stroke:#43587F;stroke-width:2.3234;stroke-linejoin:round;stroke-miterlimit:10;}
	.st68{fill:none;stroke:#43587F;stroke-width:2.3234;stroke-miterlimit:10;}
	.st69{fill:none;stroke:#43587F;stroke-width:2.55;stroke-miterlimit:10;}
	.st70{display:inline;fill:#406E55;}
	.st71{display:inline;fill:#43587F;}
	.st72{display:inline;fill:#D4505A;}
	.st73{display:inline;fill:#9C4364;}
	.st74{display:inline;fill:#00A9A1;}
	.st75{display:inline;fill:#EB8A35;}
	.st76{fill:#00A9A1;}
	.st77{display:inline;fill:#EBEAEA;}
	.st78{display:inline;fill:none;stroke:#B0ACAA;stroke-width:0.9947;stroke-miterlimit:10;}
	.st79{display:inline;fill:none;stroke:#FFFFFF;stroke-width:0.9947;stroke-miterlimit:10;}
	.st80{display:inline;fill:none;stroke:#B0ACAA;stroke-miterlimit:10;}
	.st81{display:inline;fill:none;stroke:#FFFFFF;stroke-miterlimit:10;}
	.st82{display:inline;fill:none;stroke:#62C530;stroke-width:2;stroke-miterlimit:10;}
	.st83{display:inline;fill:#89D464;}
	.st84{display:inline;fill:none;stroke:#43587F;stroke-miterlimit:10;}
	.st85{display:inline;fill:none;stroke:#FFFFFF;stroke-width:0.5;stroke-miterlimit:10;}
	.st86{display:inline;fill:none;stroke:#C4C1BF;stroke-width:0.5;stroke-miterlimit:10;}
	.st87{fill:url(#SVGID_8_);}
	.st88{fill:none;stroke:#62C530;stroke-width:2;stroke-miterlimit:10;}
	.st89{fill:none;stroke:#62C530;stroke-width:2;stroke-linecap:round;stroke-miterlimit:10;}
	.st90{fill:#62C530;}
	.st91{fill:none;stroke:#62C530;stroke-width:2;stroke-miterlimit:10;stroke-dasharray:1.9913,2.9869;}
	.st92{fill:none;stroke:#43587F;stroke-linejoin:round;stroke-miterlimit:10;}
	.st93{display:inline;fill:none;stroke:#B0ACAA;stroke-width:0.8872;stroke-miterlimit:10;}
	.st94{display:inline;fill:none;stroke:#62C530;stroke-width:1.8269;stroke-miterlimit:10;}
	.st95{display:inline;fill:#FFFFFF;}
	.st96{fill:url(#SVGID_9_);}
	.st97{fill:#F68921;}
	.st98{display:inline;fill:#F68921;}
	.st99{display:inline;fill:#00BCF1;}
	.st100{fill:none;stroke:#37B34A;stroke-width:10;stroke-miterlimit:10;}
	.st101{display:inline;fill:#37B34A;stroke:#FFFFFF;stroke-width:0.8803;stroke-miterlimit:10;}
	.st102{fill:#403016;}
	.st103{fill:#21333A;}
	.st104{fill:#36A8DF;}
	.st105{display:inline;fill:#2EAA66;}
	.st106{fill:#D50C51;}
	.st107{fill:#662582;}
	.st108{fill:#010002;}
	.st109{display:none;fill:#37B34A;}
	.st110{fill:none;stroke:#37B34A;stroke-width:28.1467;stroke-miterlimit:10;}
	.st111{display:inline;fill:none;stroke:#37B34A;stroke-width:28.1467;stroke-miterlimit:10;stroke-dasharray:11.2587,11.2587;}
	.st112{fill:none;stroke:#00BCF1;stroke-width:28.1467;stroke-miterlimit:10;}
	.st113{display:inline;fill:none;stroke:#00BCF1;stroke-width:28.1467;stroke-miterlimit:10;stroke-dasharray:11.2587,11.2587;}
	.st114{fill:none;stroke:#F68921;stroke-width:28.1467;stroke-miterlimit:10;}
	.st115{display:inline;fill:none;stroke:#F68921;stroke-width:28.1467;stroke-miterlimit:10;stroke-dasharray:11.2587,11.2587;}
	.st116{display:inline;opacity:0.25;}
	.st117{display:inline;fill:none;stroke:#00BCF1;stroke-width:6;stroke-miterlimit:10;}
	.st118{display:inline;fill:none;stroke:#37B34A;stroke-width:6;stroke-miterlimit:10;}
</style>








<g class="currentLayer" style=""><title>Layer 1</title><g id="Layer_1">
</g><g id="Layer_4">
</g><g id="Layer_6">
</g><g id="Layer_2" class="st2">
</g><g id="Layer_3" class="st2">
</g><g id="Layer_5">
</g><g id="Layer_7">
</g><g id="Layer_8" class="selected" fill="#dadada" fill-opacity="1" opacity="0.78">
	<g class="st2" id="svg_1" fill="#dadada" fill-opacity="1" opacity="0.78">
		<g class="st3" id="svg_2" fill="#dadada" fill-opacity="1" opacity="0.78">
			<path class="st12" d="M45.9,14.1c-12.4,0-22.4,10.1-22.4,22.4c0,12.4,10.1,22.4,22.4,22.4c12.4,0,22.4-10.1,22.4-22.4     C68.3,24.1,58.3,14.1,45.9,14.1z M10.7,162.5h70.4v-62.4c0-19.4-15.8-35.2-35.2-35.2c-19.4,0-35.2,15.8-35.2,35.2V162.5z" id="svg_3" fill="#dadada" fill-opacity="1" opacity="0.78"/>
		</g>
		<g class="st3" id="svg_4" fill="#dadada" fill-opacity="1" opacity="0.78">
			<path class="st12" d="M125,14.1c-12.4,0-22.4,10.1-22.4,22.4c0,12.4,10.1,22.4,22.4,22.4c12.4,0,22.4-10.1,22.4-22.4     C147.5,24.1,137.4,14.1,125,14.1z M89.8,162.5h70.4v-62.4c0-19.4-15.8-35.2-35.2-35.2c-19.4,0-35.2,15.8-35.2,35.2V162.5z" id="svg_5" fill="#dadada" fill-opacity="1" opacity="0.78"/>
		</g>
		<g class="st3" id="svg_6" fill="#dadada" fill-opacity="1" opacity="0.78">
			<path class="st12" d="M204.1,14.1c-12.4,0-22.4,10.1-22.4,22.4c0,12.4,10.1,22.4,22.4,22.4c12.4,0,22.4-10.1,22.4-22.4     C226.6,24.1,216.5,14.1,204.1,14.1z M168.9,162.5h70.4v-62.4c0-19.4-15.8-35.2-35.2-35.2c-19.4,0-35.2,15.8-35.2,35.2V162.5z" id="svg_7" fill="#dadada" fill-opacity="1" opacity="0.78"/>
		</g>
		<g class="st3" id="svg_8" fill="#dadada" fill-opacity="1" opacity="0.78">
			<path class="st12" d="M45.9,176.2c-12.4,0-22.4,10.1-22.4,22.4c0,12.4,10.1,22.4,22.4,22.4c12.4,0,22.4-10.1,22.4-22.4     C68.3,186.3,58.3,176.2,45.9,176.2z M10.7,324.7h70.4v-62.4c0-19.4-15.8-35.2-35.2-35.2c-19.4,0-35.2,15.8-35.2,35.2V324.7z" id="svg_9" fill="#dadada" fill-opacity="1" opacity="0.78"/>
		</g>
		<g class="st3" id="svg_10" fill="#dadada" fill-opacity="1" opacity="0.78">
			<path class="st12" d="M125,176.2c-12.4,0-22.4,10.1-22.4,22.4c0,12.4,10.1,22.4,22.4,22.4c12.4,0,22.4-10.1,22.4-22.4     C147.5,186.3,137.4,176.2,125,176.2z M89.8,324.7h70.4v-62.4c0-19.4-15.8-35.2-35.2-35.2c-19.4,0-35.2,15.8-35.2,35.2V324.7z" id="svg_11" fill="#dadada" fill-opacity="1" opacity="0.78"/>
		</g>
		<g class="st3" id="svg_12" fill="#dadada" fill-opacity="1" opacity="0.78">
			<path class="st12" d="M204.1,176.2c-12.4,0-22.4,10.1-22.4,22.4c0,12.4,10.1,22.4,22.4,22.4c12.4,0,22.4-10.1,22.4-22.4     C226.6,186.3,216.5,176.2,204.1,176.2z M168.9,324.7h70.4v-62.4c0-19.4-15.8-35.2-35.2-35.2c-19.4,0-35.2,15.8-35.2,35.2V324.7z" id="svg_13" fill="#dadada" fill-opacity="1" opacity="0.78"/>
		</g>
	</g>
	<g class="st2" id="svg_14" fill="#dadada" fill-opacity="1" opacity="0.78">
		<g class="st3" id="svg_15" fill="#dadada" fill-opacity="1" opacity="0.78">
			<path class="st14" d="M45.9,14.1c-12.4,0-22.4,10.1-22.4,22.4c0,12.4,10.1,22.4,22.4,22.4c12.4,0,22.4-10.1,22.4-22.4     C68.3,24.1,58.3,14.1,45.9,14.1z M10.7,162.5h70.4v-62.4c0-19.4-15.8-35.2-35.2-35.2c-19.4,0-35.2,15.8-35.2,35.2V162.5z" id="svg_16" fill="#dadada" fill-opacity="1" opacity="0.78"/>
		</g>
		<g class="st3" id="svg_17" fill="#dadada" fill-opacity="1" opacity="0.78">
			<path class="st14" d="M125,14.1c-12.4,0-22.4,10.1-22.4,22.4c0,12.4,10.1,22.4,22.4,22.4c12.4,0,22.4-10.1,22.4-22.4     C147.5,24.1,137.4,14.1,125,14.1z M89.8,162.5h70.4v-62.4c0-19.4-15.8-35.2-35.2-35.2c-19.4,0-35.2,15.8-35.2,35.2V162.5z" id="svg_18" fill="#dadada" fill-opacity="1" opacity="0.78"/>
		</g>
		<g class="st3" id="svg_19" fill="#dadada" fill-opacity="1" opacity="0.78">
			<path class="st14" d="M204.1,14.1c-12.4,0-22.4,10.1-22.4,22.4c0,12.4,10.1,22.4,22.4,22.4c12.4,0,22.4-10.1,22.4-22.4     C226.6,24.1,216.5,14.1,204.1,14.1z M168.9,162.5h70.4v-62.4c0-19.4-15.8-35.2-35.2-35.2c-19.4,0-35.2,15.8-35.2,35.2V162.5z" id="svg_20" fill="#dadada" fill-opacity="1" opacity="0.78"/>
		</g>
		<g class="st3" id="svg_21" fill="#dadada" fill-opacity="1" opacity="0.78">
			<path class="st14" d="M45.9,176.2c-12.4,0-22.4,10.1-22.4,22.4c0,12.4,10.1,22.4,22.4,22.4c12.4,0,22.4-10.1,22.4-22.4     C68.3,186.3,58.3,176.2,45.9,176.2z M10.7,324.7h70.4v-62.4c0-19.4-15.8-35.2-35.2-35.2c-19.4,0-35.2,15.8-35.2,35.2V324.7z" id="svg_22" fill="#dadada" fill-opacity="1" opacity="0.78"/>
		</g>
		<g class="st3" id="svg_23" fill="#dadada" fill-opacity="1" opacity="0.78">
			<path class="st14" d="M125,176.2c-12.4,0-22.4,10.1-22.4,22.4c0,12.4,10.1,22.4,22.4,22.4c12.4,0,22.4-10.1,22.4-22.4     C147.5,186.3,137.4,176.2,125,176.2z M89.8,324.7h70.4v-62.4c0-19.4-15.8-35.2-35.2-35.2c-19.4,0-35.2,15.8-35.2,35.2V324.7z" id="svg_24" fill="#dadada" fill-opacity="1" opacity="0.78"/>
		</g>
		<g class="st3" id="svg_25" fill="#dadada" fill-opacity="1" opacity="0.78">
			<path class="st14" d="M204.1,176.2c-12.4,0-22.4,10.1-22.4,22.4c0,12.4,10.1,22.4,22.4,22.4c12.4,0,22.4-10.1,22.4-22.4     C226.6,186.3,216.5,176.2,204.1,176.2z M168.9,324.7h70.4v-62.4c0-19.4-15.8-35.2-35.2-35.2c-19.4,0-35.2,15.8-35.2,35.2V324.7z" id="svg_26" fill="#dadada" fill-opacity="1" opacity="0.78"/>
		</g>
	</g>
	<g class="st2" id="svg_27" fill="#dadada" fill-opacity="1" opacity="0.78">
		<g class="st3" id="svg_28" fill="#dadada" fill-opacity="1" opacity="0.78">
			<g id="svg_29" fill="#dadada" fill-opacity="1" opacity="0.78">
				<line class="st110" x1="121.69999694824219" y1="222.1999969482422" x2="121.69999694824219" y2="68.5" id="svg_30" opacity="0.78"/>
				<g id="svg_31" fill="#dadada" fill-opacity="1" opacity="0.78">
					<polygon class="st12" points="163.8,80.8 121.7,7.9 79.6,80.8      " id="svg_32" fill="#dadada" fill-opacity="1" opacity="0.78"/>
				</g>
			</g>
		</g>
		<line class="st111" x1="121.69999694824219" y1="329.6000061035156" x2="121.69999694824219" y2="222.1999969482422" id="svg_33" opacity="0.78"/>
	</g>
	<g class="st2" id="svg_34" fill="#dadada" fill-opacity="1" opacity="0.78">
		<g class="st3" id="svg_35" fill="#dadada" fill-opacity="1" opacity="0.78">
			<g id="svg_36" fill="#dadada" fill-opacity="1" opacity="0.78">
				<line class="st112" x1="121.69999694824219" y1="222.1999969482422" x2="121.69999694824219" y2="68.5" id="svg_37" opacity="0.78"/>
				<g id="svg_38" fill="#dadada" fill-opacity="1" opacity="0.78">
					<polygon class="st14" points="163.8,80.8 121.7,7.9 79.6,80.8      " id="svg_39" fill="#dadada" fill-opacity="1" opacity="0.78"/>
				</g>
			</g>
		</g>
		<line class="st113" x1="121.69999694824219" y1="329.6000061035156" x2="121.69999694824219" y2="222.1999969482422" id="svg_40" opacity="0.78"/>
	</g>
	<g class="st2" id="svg_41" fill="#dadada" fill-opacity="1" opacity="0.78">
		<g class="st3" id="svg_42" fill="#dadada" fill-opacity="1" opacity="0.78">
			<g id="svg_43" fill="#dadada" fill-opacity="1" opacity="0.78">
				<line class="st114" x1="121.69999694824219" y1="115.30000305175781" x2="121.69999694824219" y2="269" id="svg_44" opacity="0.78"/>
				<g id="svg_45" fill="#dadada" fill-opacity="1" opacity="0.78">
					<polygon class="st97" points="79.6,256.7 121.7,329.6 163.8,256.7      " id="svg_46" fill="#dadada" fill-opacity="1" opacity="0.78"/>
				</g>
			</g>
		</g>
		<line class="st115" x1="121.69999694824219" y1="7.900000095367432" x2="121.69999694824219" y2="115.30000305175781" id="svg_47" opacity="0.78"/>
	</g>
	<g class="st2" id="svg_48" fill="#dadada" fill-opacity="1" opacity="0.78">
		<g class="st3" id="svg_49" fill="#dadada" fill-opacity="1" opacity="0.78">
			<path class="st14" d="M82.8,15.8c-12.3,0-22.3,10-22.3,22.3c0,12.3,10,22.3,22.3,22.3c12.3,0,22.3-10,22.3-22.3     C105.1,25.7,95.1,15.8,82.8,15.8z M47.9,163.2h69.9v-62c0-19.3-15.7-34.9-34.9-34.9c-19.3,0-34.9,15.7-34.9,34.9V163.2z" id="svg_50" fill="#dadada" fill-opacity="1" opacity="0.78"/>
		</g>
		<g class="st3" id="svg_51" fill="#dadada" fill-opacity="1" opacity="0.78">
			<path class="st12" d="M161.4,15.8c-12.3,0-22.3,10-22.3,22.3c0,12.3,10,22.3,22.3,22.3c12.3,0,22.3-10,22.3-22.3     C183.7,25.7,173.7,15.8,161.4,15.8z M126.4,163.2h69.9v-62c0-19.3-15.7-34.9-34.9-34.9c-19.3,0-34.9,15.7-34.9,34.9V163.2z" id="svg_52" fill="#dadada" fill-opacity="1" opacity="0.78"/>
		</g>
		<g class="st3" id="svg_53" fill="#dadada" fill-opacity="1" opacity="0.78">
			<path class="st12" d="M82.8,176.8c-12.3,0-22.3,10-22.3,22.3c0,12.3,10,22.3,22.3,22.3c12.3,0,22.3-10,22.3-22.3     C105.1,186.8,95.1,176.8,82.8,176.8z M47.9,324.2h69.9v-62c0-19.3-15.7-34.9-34.9-34.9c-19.3,0-34.9,15.7-34.9,34.9V324.2z" id="svg_54" fill="#dadada" fill-opacity="1" opacity="0.78"/>
		</g>
		<g class="st3" id="svg_55" fill="#dadada" fill-opacity="1" opacity="0.78">
			<path class="st12" d="M161.4,176.8c-12.3,0-22.3,10-22.3,22.3c0,12.3,10,22.3,22.3,22.3c12.3,0,22.3-10,22.3-22.3     C183.7,186.8,173.7,176.8,161.4,176.8z M126.4,324.2h69.9v-62c0-19.3-15.7-34.9-34.9-34.9c-19.3,0-34.9,15.7-34.9,34.9V324.2z" id="svg_56" fill="#dadada" fill-opacity="1" opacity="0.78"/>
		</g>
	</g>
	<g class="st2" id="svg_57" fill="#dadada" fill-opacity="1" opacity="0.78">
		<g class="st3" id="svg_58" fill="#dadada" fill-opacity="1" opacity="0.78">
			<path class="st14" d="M82.8,15.8c-12.3,0-22.3,10-22.3,22.3c0,12.3,10,22.3,22.3,22.3c12.3,0,22.3-10,22.3-22.3     C105.1,25.7,95.1,15.8,82.8,15.8z M47.9,163.2h69.9v-62c0-19.3-15.7-34.9-34.9-34.9c-19.3,0-34.9,15.7-34.9,34.9V163.2z" id="svg_59" fill="#dadada" fill-opacity="1" opacity="0.78"/>
		</g>
		<g class="st3" id="svg_60" fill="#dadada" fill-opacity="1" opacity="0.78">
			<path class="st12" d="M161.4,15.8c-12.3,0-22.3,10-22.3,22.3c0,12.3,10,22.3,22.3,22.3c12.3,0,22.3-10,22.3-22.3     C183.7,25.7,173.7,15.8,161.4,15.8z M126.4,163.2h69.9v-62c0-19.3-15.7-34.9-34.9-34.9c-19.3,0-34.9,15.7-34.9,34.9V163.2z" id="svg_61" fill="#dadada" fill-opacity="1" opacity="0.78"/>
		</g>
		<g class="st3" id="svg_62" fill="#dadada" fill-opacity="1" opacity="0.78">
			<path class="st12" d="M82.8,176.8c-12.3,0-22.3,10-22.3,22.3c0,12.3,10,22.3,22.3,22.3c12.3,0,22.3-10,22.3-22.3     C105.1,186.8,95.1,176.8,82.8,176.8z M47.9,324.2h69.9v-62c0-19.3-15.7-34.9-34.9-34.9c-19.3,0-34.9,15.7-34.9,34.9V324.2z" id="svg_63" fill="#dadada" fill-opacity="1" opacity="0.78"/>
		</g>
		<g class="st3" id="svg_64" fill="#dadada" fill-opacity="1" opacity="0.78">
			<path class="st97" d="M161.4,176.8c-12.3,0-22.3,10-22.3,22.3c0,12.3,10,22.3,22.3,22.3c12.3,0,22.3-10,22.3-22.3     C183.7,186.8,173.7,176.8,161.4,176.8z M126.4,324.2h69.9v-62c0-19.3-15.7-34.9-34.9-34.9c-19.3,0-34.9,15.7-34.9,34.9V324.2z" id="svg_65" fill="#dadada" fill-opacity="1" opacity="0.78"/>
		</g>
	</g>
	<g class="st2" id="svg_66" fill="#dadada" fill-opacity="1" opacity="0.78">
		<g class="st3" id="svg_67" fill="#dadada" fill-opacity="1" opacity="0.78">
			<g id="svg_68" fill="#dadada" fill-opacity="1" opacity="0.78">
				<path class="st14" d="M57.9,15.8c-12.2,0-22.2,10-22.2,22.2c0,12.2,10,22.2,22.2,22.2c12.3,0,22.2-10,22.2-22.2      C80.1,25.8,70.1,15.8,57.9,15.8z M23,162.8h69.7V101c0-19.2-15.6-34.8-34.9-34.8C38.6,66.2,23,81.8,23,101V162.8z" id="svg_69" fill="#dadada" fill-opacity="1" opacity="0.78"/>
			</g>
			<g id="svg_70" fill="#dadada" fill-opacity="1" opacity="0.78">
				<path class="st12" d="M122.8,91.1c-7.8,0-14.2,6.4-14.2,14.2c0,7.8,6.4,14.2,14.2,14.2c7.8,0,14.2-6.4,14.2-14.2      C136.9,97.5,130.6,91.1,122.8,91.1z M100.5,162.2H145v-16.7c0-12.3-10-22.2-22.2-22.2c-12.3,0-22.2,10-22.2,22.2V162.2z" id="svg_71" fill="#dadada" fill-opacity="1" opacity="0.78"/>
			</g>
			<g id="svg_72" fill="#dadada" fill-opacity="1" opacity="0.78">
				<path class="st14" d="M187.7,15.8c-12.2,0-22.2,10-22.2,22.2c0,12.2,10,22.2,22.2,22.2c12.3,0,22.2-10,22.2-22.2      C209.9,25.8,199.9,15.8,187.7,15.8z M152.8,162.8h69.7V101c0-19.2-15.6-34.8-34.9-34.8c-19.2,0-34.8,15.6-34.8,34.8V162.8z" id="svg_73" fill="#dadada" fill-opacity="1" opacity="0.78"/>
			</g>
		</g>
		<g class="st3" id="svg_74" fill="#dadada" fill-opacity="1" opacity="0.78">
			<g id="svg_75" fill="#dadada" fill-opacity="1" opacity="0.78">
				<path class="st12" d="M57.9,177.2c-12.2,0-22.2,10-22.2,22.2c0,12.2,10,22.2,22.2,22.2c12.3,0,22.2-10,22.2-22.2      C80.1,187.1,70.1,177.2,57.9,177.2z M23,324.2h69.7v-61.8c0-19.2-15.6-34.8-34.9-34.8c-19.2,0-34.8,15.6-34.8,34.8V324.2z" id="svg_76" fill="#dadada" fill-opacity="1" opacity="0.78"/>
			</g>
			<g id="svg_77" fill="#dadada" fill-opacity="1" opacity="0.78">
				<path class="st14" d="M122.8,252.5c-7.8,0-14.2,6.4-14.2,14.2c0,7.8,6.4,14.2,14.2,14.2c7.8,0,14.2-6.4,14.2-14.2      C136.9,258.8,130.6,252.5,122.8,252.5z M100.5,323.5H145v-16.7c0-12.3-10-22.2-22.2-22.2c-12.3,0-22.2,10-22.2,22.2V323.5z" id="svg_78" fill="#dadada" fill-opacity="1" opacity="0.78"/>
			</g>
			<g id="svg_79" fill="#dadada" fill-opacity="1" opacity="0.78">
				<path class="st12" d="M187.7,177.2c-12.2,0-22.2,10-22.2,22.2c0,12.2,10,22.2,22.2,22.2c12.3,0,22.2-10,22.2-22.2      C209.9,187.1,199.9,177.2,187.7,177.2z M152.8,324.2h69.7v-61.8c0-19.2-15.6-34.8-34.9-34.8c-19.2,0-34.8,15.6-34.8,34.8V324.2z      " id="svg_80" fill="#dadada" fill-opacity="1" opacity="0.78"/>
			</g>
		</g>
	</g>
	<g class="st2" id="svg_81" fill="#dadada" fill-opacity="1" opacity="0.78">
		<g class="st3" id="svg_82" fill="#dadada" fill-opacity="1" opacity="0.78">
			<g id="svg_83" fill="#dadada" fill-opacity="1" opacity="0.78">
				<path class="st14" d="M57.9,15.8c-12.2,0-22.2,10-22.2,22.2c0,12.2,10,22.2,22.2,22.2c12.3,0,22.2-10,22.2-22.2      C80.1,25.8,70.1,15.8,57.9,15.8z M23,162.8h69.7V101c0-19.2-15.6-34.8-34.9-34.8C38.6,66.2,23,81.8,23,101V162.8z" id="svg_84" fill="#dadada" fill-opacity="1" opacity="0.78"/>
			</g>
			<g id="svg_85" fill="#dadada" fill-opacity="1" opacity="0.78">
				<path class="st12" d="M122.8,91.1c-7.8,0-14.2,6.4-14.2,14.2c0,7.8,6.4,14.2,14.2,14.2c7.8,0,14.2-6.4,14.2-14.2      C136.9,97.5,130.6,91.1,122.8,91.1z M100.5,162.2H145v-16.7c0-12.3-10-22.2-22.2-22.2c-12.3,0-22.2,10-22.2,22.2V162.2z" id="svg_86" fill="#dadada" fill-opacity="1" opacity="0.78"/>
			</g>
			<g id="svg_87" fill="#dadada" fill-opacity="1" opacity="0.78">
				<path class="st97" d="M187.7,15.8c-12.2,0-22.2,10-22.2,22.2c0,12.2,10,22.2,22.2,22.2c12.3,0,22.2-10,22.2-22.2      C209.9,25.8,199.9,15.8,187.7,15.8z M152.8,162.8h69.7V101c0-19.2-15.6-34.8-34.9-34.8c-19.2,0-34.8,15.6-34.8,34.8V162.8z" id="svg_88" fill="#dadada" fill-opacity="1" opacity="0.78"/>
			</g>
		</g>
		<g class="st3" id="svg_89" fill="#dadada" fill-opacity="1" opacity="0.78">
			<g id="svg_90" fill="#dadada" fill-opacity="1" opacity="0.78">
				<path class="st97" d="M57.9,177.2c-12.2,0-22.2,10-22.2,22.2c0,12.2,10,22.2,22.2,22.2c12.3,0,22.2-10,22.2-22.2      C80.1,187.1,70.1,177.2,57.9,177.2z M23,324.2h69.7v-61.8c0-19.2-15.6-34.8-34.9-34.8c-19.2,0-34.8,15.6-34.8,34.8V324.2z" id="svg_91" fill="#dadada" fill-opacity="1" opacity="0.78"/>
			</g>
			<g id="svg_92" fill="#dadada" fill-opacity="1" opacity="0.78">
				<path class="st14" d="M122.8,252.5c-7.8,0-14.2,6.4-14.2,14.2c0,7.8,6.4,14.2,14.2,14.2c7.8,0,14.2-6.4,14.2-14.2      C136.9,258.8,130.6,252.5,122.8,252.5z M100.5,323.5H145v-16.7c0-12.3-10-22.2-22.2-22.2c-12.3,0-22.2,10-22.2,22.2V323.5z" id="svg_93" fill="#dadada" fill-opacity="1" opacity="0.78"/>
			</g>
			<g id="svg_94" fill="#dadada" fill-opacity="1" opacity="0.78">
				<path class="st12" d="M187.7,177.2c-12.2,0-22.2,10-22.2,22.2c0,12.2,10,22.2,22.2,22.2c12.3,0,22.2-10,22.2-22.2      C209.9,187.1,199.9,177.2,187.7,177.2z M152.8,324.2h69.7v-61.8c0-19.2-15.6-34.8-34.9-34.8c-19.2,0-34.8,15.6-34.8,34.8V324.2z      " id="svg_95" fill="#dadada" fill-opacity="1" opacity="0.78"/>
			</g>
		</g>
	</g>
	<g class="st2" id="svg_96" fill="#dadada" fill-opacity="1" opacity="0.78">
		<g class="st3" id="svg_97" fill="#dadada" fill-opacity="1" opacity="0.78">
			<path class="st14" d="M44.5,16.4c-12.2,0-22.2,10-22.2,22.2c0,12.2,10,22.2,22.2,22.2c12.2,0,22.2-10,22.2-22.2     C66.7,26.4,56.8,16.4,44.5,16.4z M9.7,163.2h69.6v-61.7c0-19.2-15.6-34.8-34.8-34.8c-19.2,0-34.8,15.6-34.8,34.8V163.2z" id="svg_98" fill="#dadada" fill-opacity="1" opacity="0.78"/>
		</g>
		<g class="st3" id="svg_99" fill="#dadada" fill-opacity="1" opacity="0.78">
			<path class="st12" d="M122.8,16.4c-12.2,0-22.2,10-22.2,22.2c0,12.2,10,22.2,22.2,22.2c12.2,0,22.2-10,22.2-22.2     C145,26.4,135,16.4,122.8,16.4z M88,163.2h69.6v-61.7c0-19.2-15.6-34.8-34.8-34.8c-19.2,0-34.8,15.6-34.8,34.8V163.2z" id="svg_100" fill="#dadada" fill-opacity="1" opacity="0.78"/>
		</g>
		<g class="st3" id="svg_101" fill="#dadada" fill-opacity="1" opacity="0.78">
			<path class="st14" d="M201,16.4c-12.2,0-22.2,10-22.2,22.2c0,12.2,10,22.2,22.2,22.2c12.2,0,22.2-10,22.2-22.2     C223.2,26.4,213.2,16.4,201,16.4z M166.2,163.2h69.6v-61.7c0-19.2-15.6-34.8-34.8-34.8c-19.2,0-34.8,15.6-34.8,34.8V163.2z" id="svg_102" fill="#dadada" fill-opacity="1" opacity="0.78"/>
		</g>
		<g class="st3" id="svg_103" fill="#dadada" fill-opacity="1" opacity="0.78">
			<path class="st12" d="M44.5,176.8c-12.2,0-22.2,10-22.2,22.2c0,12.2,10,22.2,22.2,22.2c12.2,0,22.2-10,22.2-22.2     C66.7,186.7,56.8,176.8,44.5,176.8z M9.7,323.6h69.6v-61.7c0-19.2-15.6-34.8-34.8-34.8c-19.2,0-34.8,15.6-34.8,34.8V323.6z" id="svg_104" fill="#dadada" fill-opacity="1" opacity="0.78"/>
		</g>
		<g class="st3" id="svg_105" fill="#dadada" fill-opacity="1" opacity="0.78">
			<path class="st14" d="M122.8,176.8c-12.2,0-22.2,10-22.2,22.2c0,12.2,10,22.2,22.2,22.2c12.2,0,22.2-10,22.2-22.2     C145,186.7,135,176.8,122.8,176.8z M88,323.6h69.6v-61.7c0-19.2-15.6-34.8-34.8-34.8c-19.2,0-34.8,15.6-34.8,34.8V323.6z" id="svg_106" fill="#dadada" fill-opacity="1" opacity="0.78"/>
		</g>
		<g class="st3" id="svg_107" fill="#dadada" fill-opacity="1" opacity="0.78">
			<path class="st12" d="M201,176.8c-12.2,0-22.2,10-22.2,22.2c0,12.2,10,22.2,22.2,22.2c12.2,0,22.2-10,22.2-22.2     C223.2,186.7,213.2,176.8,201,176.8z M166.2,323.6h69.6v-61.7c0-19.2-15.6-34.8-34.8-34.8c-19.2,0-34.8,15.6-34.8,34.8V323.6z" id="svg_108" fill="#dadada" fill-opacity="1" opacity="0.78"/>
		</g>
	</g>
	<g class="st2" id="svg_109" fill="#dadada" fill-opacity="1" opacity="0.78">
		<g class="st3" id="svg_110" fill="#dadada" fill-opacity="1" opacity="0.78">
			<path class="st14" d="M44.5,16.4c-12.2,0-22.2,10-22.2,22.2c0,12.2,10,22.2,22.2,22.2c12.2,0,22.2-10,22.2-22.2     C66.7,26.4,56.8,16.4,44.5,16.4z M9.7,163.2h69.6v-61.7c0-19.2-15.6-34.8-34.8-34.8c-19.2,0-34.8,15.6-34.8,34.8V163.2z" id="svg_111" fill="#dadada" fill-opacity="1" opacity="0.78"/>
		</g>
		<g class="st3" id="svg_112" fill="#dadada" fill-opacity="1" opacity="0.78">
			<path class="st97" d="M122.8,16.4c-12.2,0-22.2,10-22.2,22.2c0,12.2,10,22.2,22.2,22.2c12.2,0,22.2-10,22.2-22.2     C145,26.4,135,16.4,122.8,16.4z M88,163.2h69.6v-61.7c0-19.2-15.6-34.8-34.8-34.8c-19.2,0-34.8,15.6-34.8,34.8V163.2z" id="svg_113" fill="#dadada" fill-opacity="1" opacity="0.78"/>
		</g>
		<g class="st3" id="svg_114" fill="#dadada" fill-opacity="1" opacity="0.78">
			<path class="st14" d="M201,16.4c-12.2,0-22.2,10-22.2,22.2c0,12.2,10,22.2,22.2,22.2c12.2,0,22.2-10,22.2-22.2     C223.2,26.4,213.2,16.4,201,16.4z M166.2,163.2h69.6v-61.7c0-19.2-15.6-34.8-34.8-34.8c-19.2,0-34.8,15.6-34.8,34.8V163.2z" id="svg_115" fill="#dadada" fill-opacity="1" opacity="0.78"/>
		</g>
		<g class="st3" id="svg_116" fill="#dadada" fill-opacity="1" opacity="0.78">
			<path class="st12" d="M44.5,176.8c-12.2,0-22.2,10-22.2,22.2c0,12.2,10,22.2,22.2,22.2c12.2,0,22.2-10,22.2-22.2     C66.7,186.7,56.8,176.8,44.5,176.8z M9.7,323.6h69.6v-61.7c0-19.2-15.6-34.8-34.8-34.8c-19.2,0-34.8,15.6-34.8,34.8V323.6z" id="svg_117" fill="#dadada" fill-opacity="1" opacity="0.78"/>
		</g>
		<g class="st3" id="svg_118" fill="#dadada" fill-opacity="1" opacity="0.78">
			<path class="st97" d="M122.8,176.8c-12.2,0-22.2,10-22.2,22.2c0,12.2,10,22.2,22.2,22.2c12.2,0,22.2-10,22.2-22.2     C145,186.7,135,176.8,122.8,176.8z M88,323.6h69.6v-61.7c0-19.2-15.6-34.8-34.8-34.8c-19.2,0-34.8,15.6-34.8,34.8V323.6z" id="svg_119" fill="#dadada" fill-opacity="1" opacity="0.78"/>
		</g>
		<g class="st3" id="svg_120" fill="#dadada" fill-opacity="1" opacity="0.78">
			<path class="st12" d="M201,176.8c-12.2,0-22.2,10-22.2,22.2c0,12.2,10,22.2,22.2,22.2c12.2,0,22.2-10,22.2-22.2     C223.2,186.7,213.2,176.8,201,176.8z M166.2,323.6h69.6v-61.7c0-19.2-15.6-34.8-34.8-34.8c-19.2,0-34.8,15.6-34.8,34.8V323.6z" id="svg_121" fill="#dadada" fill-opacity="1" opacity="0.78"/>
		</g>
	</g>
	<g class="st2" id="svg_122" fill="#dadada" fill-opacity="1" opacity="0.78">
		<g class="st3" id="svg_123" fill="#dadada" fill-opacity="1" opacity="0.78">
			<path class="st14" d="M82.5,16.4c-12.2,0-22.2,10-22.2,22.2c0,12.2,10,22.2,22.2,22.2c12.2,0,22.2-10,22.2-22.2     C104.7,26.4,94.8,16.4,82.5,16.4z M47.7,163.2h69.6v-61.7c0-19.2-15.6-34.8-34.8-34.8c-19.2,0-34.8,15.6-34.8,34.8V163.2z" id="svg_124" fill="#dadada" fill-opacity="1" opacity="0.78"/>
		</g>
		<g class="st3" id="svg_125" fill="#dadada" fill-opacity="1" opacity="0.78">
			<path class="st14" d="M160.8,16.4c-12.2,0-22.2,10-22.2,22.2c0,12.2,10,22.2,22.2,22.2c12.2,0,22.2-10,22.2-22.2     C183,26.4,173,16.4,160.8,16.4z M126,163.2h69.6v-61.7c0-19.2-15.6-34.8-34.8-34.8c-19.2,0-34.8,15.6-34.8,34.8V163.2z" id="svg_126" fill="#dadada" fill-opacity="1" opacity="0.78"/>
		</g>
		<g class="st3" id="svg_127" fill="#dadada" fill-opacity="1" opacity="0.78">
			<path class="st12" d="M82.5,176.8c-12.2,0-22.2,10-22.2,22.2c0,12.2,10,22.2,22.2,22.2c12.2,0,22.2-10,22.2-22.2     C104.7,186.7,94.8,176.8,82.5,176.8z M47.7,323.6h69.6v-61.7c0-19.2-15.6-34.8-34.8-34.8c-19.2,0-34.8,15.6-34.8,34.8V323.6z" id="svg_128" fill="#dadada" fill-opacity="1" opacity="0.78"/>
		</g>
		<g class="st3" id="svg_129" fill="#dadada" fill-opacity="1" opacity="0.78">
			<path class="st12" d="M160.8,176.8c-12.2,0-22.2,10-22.2,22.2c0,12.2,10,22.2,22.2,22.2c12.2,0,22.2-10,22.2-22.2     C183,186.7,173,176.8,160.8,176.8z M126,323.6h69.6v-61.7c0-19.2-15.6-34.8-34.8-34.8c-19.2,0-34.8,15.6-34.8,34.8V323.6z" id="svg_130" fill="#dadada" fill-opacity="1" opacity="0.78"/>
		</g>
	</g>
	<g class="st2" id="svg_131" fill="#dadada" fill-opacity="1" opacity="0.78">
		<g class="st3" id="svg_132" fill="#dadada" fill-opacity="1" opacity="0.78">
			<path class="st14" d="M82.5,16.4c-12.2,0-22.2,10-22.2,22.2c0,12.2,10,22.2,22.2,22.2c12.2,0,22.2-10,22.2-22.2     C104.7,26.4,94.8,16.4,82.5,16.4z M47.7,163.2h69.6v-61.7c0-19.2-15.6-34.8-34.8-34.8c-19.2,0-34.8,15.6-34.8,34.8V163.2z" id="svg_133" fill="#dadada" fill-opacity="1" opacity="0.78"/>
		</g>
		<g class="st3" id="svg_134" fill="#dadada" fill-opacity="1" opacity="0.78">
			<path class="st14" d="M160.8,16.4c-12.2,0-22.2,10-22.2,22.2c0,12.2,10,22.2,22.2,22.2c12.2,0,22.2-10,22.2-22.2     C183,26.4,173,16.4,160.8,16.4z M126,163.2h69.6v-61.7c0-19.2-15.6-34.8-34.8-34.8c-19.2,0-34.8,15.6-34.8,34.8V163.2z" id="svg_135" fill="#dadada" fill-opacity="1" opacity="0.78"/>
		</g>
		<g class="st3" id="svg_136" fill="#dadada" fill-opacity="1" opacity="0.78">
			<path class="st97" d="M82.5,176.8c-12.2,0-22.2,10-22.2,22.2c0,12.2,10,22.2,22.2,22.2c12.2,0,22.2-10,22.2-22.2     C104.7,186.7,94.8,176.8,82.5,176.8z M47.7,323.6h69.6v-61.7c0-19.2-15.6-34.8-34.8-34.8c-19.2,0-34.8,15.6-34.8,34.8V323.6z" id="svg_137" fill="#dadada" fill-opacity="1" opacity="0.78"/>
		</g>
		<g class="st3" id="svg_138" fill="#dadada" fill-opacity="1" opacity="0.78">
			<path class="st97" d="M160.8,176.8c-12.2,0-22.2,10-22.2,22.2c0,12.2,10,22.2,22.2,22.2c12.2,0,22.2-10,22.2-22.2     C183,186.7,173,176.8,160.8,176.8z M126,323.6h69.6v-61.7c0-19.2-15.6-34.8-34.8-34.8c-19.2,0-34.8,15.6-34.8,34.8V323.6z" id="svg_139" fill="#dadada" fill-opacity="1" opacity="0.78"/>
		</g>
	</g>
	<g class="st2" id="svg_140" fill="#dadada" fill-opacity="1" opacity="0.78">
		<g class="st3" id="svg_141" fill="#dadada" fill-opacity="1" opacity="0.78">
			<path class="st14" d="M82.5,16.4c-12.2,0-22.2,10-22.2,22.2c0,12.2,10,22.2,22.2,22.2c12.2,0,22.2-10,22.2-22.2     C104.7,26.4,94.8,16.4,82.5,16.4z M47.7,163.2h69.6v-61.7c0-19.2-15.6-34.8-34.8-34.8c-19.2,0-34.8,15.6-34.8,34.8V163.2z" id="svg_142" fill="#dadada" fill-opacity="1" opacity="0.78"/>
		</g>
		<g class="st3" id="svg_143" fill="#dadada" fill-opacity="1" opacity="0.78">
			<path class="st12" d="M160.8,16.4c-12.2,0-22.2,10-22.2,22.2c0,12.2,10,22.2,22.2,22.2c12.2,0,22.2-10,22.2-22.2     C183,26.4,173,16.4,160.8,16.4z M126,163.2h69.6v-61.7c0-19.2-15.6-34.8-34.8-34.8c-19.2,0-34.8,15.6-34.8,34.8V163.2z" id="svg_144" fill="#dadada" fill-opacity="1" opacity="0.78"/>
		</g>
		<g class="st3" id="svg_145" fill="#dadada" fill-opacity="1" opacity="0.78">
			<path class="st12" d="M82.5,176.8c-12.2,0-22.2,10-22.2,22.2c0,12.2,10,22.2,22.2,22.2c12.2,0,22.2-10,22.2-22.2     C104.7,186.7,94.8,176.8,82.5,176.8z M47.7,323.6h69.6v-61.7c0-19.2-15.6-34.8-34.8-34.8c-19.2,0-34.8,15.6-34.8,34.8V323.6z" id="svg_146" fill="#dadada" fill-opacity="1" opacity="0.78"/>
		</g>
		<g class="st116" id="svg_147" fill="#dadada" fill-opacity="1" opacity="0.78">
			<path class="st14" d="M160.8,176.8c-12.2,0-22.2,10-22.2,22.2c0,12.2,10,22.2,22.2,22.2c12.2,0,22.2-10,22.2-22.2     C183,186.7,173,176.8,160.8,176.8z M126,323.6h69.6v-61.7c0-19.2-15.6-34.8-34.8-34.8c-19.2,0-34.8,15.6-34.8,34.8V323.6z" id="svg_148" fill="#dadada" fill-opacity="1" opacity="0.78"/>
		</g>
	</g>
	<g class="st2" id="svg_149" fill="#dadada" fill-opacity="1" opacity="0.78">
		<g class="st3" id="svg_150" fill="#dadada" fill-opacity="1" opacity="0.78">
			<path class="st14" d="M82.5,16.4c-12.2,0-22.2,10-22.2,22.2c0,12.2,10,22.2,22.2,22.2c12.2,0,22.2-10,22.2-22.2     C104.7,26.4,94.8,16.4,82.5,16.4z M47.7,163.2h69.6v-61.7c0-19.2-15.6-34.8-34.8-34.8c-19.2,0-34.8,15.6-34.8,34.8V163.2z" id="svg_151" fill="#dadada" fill-opacity="1" opacity="0.78"/>
		</g>
		<g class="st3" id="svg_152" fill="#dadada" fill-opacity="1" opacity="0.78">
			<path class="st12" d="M160.8,16.4c-12.2,0-22.2,10-22.2,22.2c0,12.2,10,22.2,22.2,22.2c12.2,0,22.2-10,22.2-22.2     C183,26.4,173,16.4,160.8,16.4z M126,163.2h69.6v-61.7c0-19.2-15.6-34.8-34.8-34.8c-19.2,0-34.8,15.6-34.8,34.8V163.2z" id="svg_153" fill="#dadada" fill-opacity="1" opacity="0.78"/>
		</g>
		<g class="st3" id="svg_154" fill="#dadada" fill-opacity="1" opacity="0.78">
			<path class="st12" d="M82.5,176.8c-12.2,0-22.2,10-22.2,22.2c0,12.2,10,22.2,22.2,22.2c12.2,0,22.2-10,22.2-22.2     C104.7,186.7,94.8,176.8,82.5,176.8z M47.7,323.6h69.6v-61.7c0-19.2-15.6-34.8-34.8-34.8c-19.2,0-34.8,15.6-34.8,34.8V323.6z" id="svg_155" fill="#dadada" fill-opacity="1" opacity="0.78"/>
		</g>
		<g class="st116" id="svg_156" fill="#dadada" fill-opacity="1" opacity="0.78">
			<path class="st97" d="M160.8,176.8c-12.2,0-22.2,10-22.2,22.2c0,12.2,10,22.2,22.2,22.2c12.2,0,22.2-10,22.2-22.2     C183,186.7,173,176.8,160.8,176.8z M126,323.6h69.6v-61.7c0-19.2-15.6-34.8-34.8-34.8c-19.2,0-34.8,15.6-34.8,34.8V323.6z" id="svg_157" fill="#dadada" fill-opacity="1" opacity="0.78"/>
		</g>
	</g>
	<g class="st2" id="svg_158" fill="#dadada" fill-opacity="1" opacity="0.78">
		<g class="st3" id="svg_159" fill="#dadada" fill-opacity="1" opacity="0.78">
			<path class="st14" d="M82.5,16.4c-12.2,0-22.2,10-22.2,22.2c0,12.2,10,22.2,22.2,22.2c12.2,0,22.2-10,22.2-22.2     C104.7,26.4,94.8,16.4,82.5,16.4z M47.7,163.2h69.6v-61.7c0-19.2-15.6-34.8-34.8-34.8c-19.2,0-34.8,15.6-34.8,34.8V163.2z" id="svg_160" fill="#dadada" fill-opacity="1" opacity="0.78"/>
		</g>
		<g class="st3" id="svg_161" fill="#dadada" fill-opacity="1" opacity="0.78">
			<path class="st12" d="M160.8,16.4c-12.2,0-22.2,10-22.2,22.2c0,12.2,10,22.2,22.2,22.2c12.2,0,22.2-10,22.2-22.2     C183,26.4,173,16.4,160.8,16.4z M126,163.2h69.6v-61.7c0-19.2-15.6-34.8-34.8-34.8c-19.2,0-34.8,15.6-34.8,34.8V163.2z" id="svg_162" fill="#dadada" fill-opacity="1" opacity="0.78"/>
		</g>
		<g class="st116" id="svg_163" fill="#dadada" fill-opacity="1" opacity="0.78">
			<path class="st12" d="M82.5,176.8c-12.2,0-22.2,10-22.2,22.2c0,12.2,10,22.2,22.2,22.2c12.2,0,22.2-10,22.2-22.2     C104.7,186.7,94.8,176.8,82.5,176.8z M47.7,323.6h69.6v-61.7c0-19.2-15.6-34.8-34.8-34.8c-19.2,0-34.8,15.6-34.8,34.8V323.6z" id="svg_164" fill="#dadada" fill-opacity="1" opacity="0.78"/>
		</g>
		<g class="st116" id="svg_165" fill="#dadada" fill-opacity="1" opacity="0.78">
			<path class="st14" d="M160.8,176.8c-12.2,0-22.2,10-22.2,22.2c0,12.2,10,22.2,22.2,22.2c12.2,0,22.2-10,22.2-22.2     C183,186.7,173,176.8,160.8,176.8z M126,323.6h69.6v-61.7c0-19.2-15.6-34.8-34.8-34.8c-19.2,0-34.8,15.6-34.8,34.8V323.6z" id="svg_166" fill="#dadada" fill-opacity="1" opacity="0.78"/>
		</g>
	</g>
	<g class="st2" id="svg_167" fill="#dadada" fill-opacity="1" opacity="0.78">
		<g class="st3" id="svg_168" fill="#dadada" fill-opacity="1" opacity="0.78">
			<path class="st14" d="M82.5,16.4c-12.2,0-22.2,10-22.2,22.2c0,12.2,10,22.2,22.2,22.2c12.2,0,22.2-10,22.2-22.2     C104.7,26.4,94.8,16.4,82.5,16.4z M47.7,163.2h69.6v-61.7c0-19.2-15.6-34.8-34.8-34.8c-19.2,0-34.8,15.6-34.8,34.8V163.2z" id="svg_169" fill="#dadada" fill-opacity="1" opacity="0.78"/>
		</g>
		<g class="st3" id="svg_170" fill="#dadada" fill-opacity="1" opacity="0.78">
			<path class="st12" d="M160.8,16.4c-12.2,0-22.2,10-22.2,22.2c0,12.2,10,22.2,22.2,22.2c12.2,0,22.2-10,22.2-22.2     C183,26.4,173,16.4,160.8,16.4z M126,163.2h69.6v-61.7c0-19.2-15.6-34.8-34.8-34.8c-19.2,0-34.8,15.6-34.8,34.8V163.2z" id="svg_171" fill="#dadada" fill-opacity="1" opacity="0.78"/>
		</g>
		<g class="st116" id="svg_172" fill="#dadada" fill-opacity="1" opacity="0.78">
			<path class="st12" d="M82.5,176.8c-12.2,0-22.2,10-22.2,22.2c0,12.2,10,22.2,22.2,22.2c12.2,0,22.2-10,22.2-22.2     C104.7,186.7,94.8,176.8,82.5,176.8z M47.7,323.6h69.6v-61.7c0-19.2-15.6-34.8-34.8-34.8c-19.2,0-34.8,15.6-34.8,34.8V323.6z" id="svg_173" fill="#dadada" fill-opacity="1" opacity="0.78"/>
		</g>
		<g class="st116" id="svg_174" fill="#dadada" fill-opacity="1" opacity="0.78">
			<path class="st97" d="M160.8,176.8c-12.2,0-22.2,10-22.2,22.2c0,12.2,10,22.2,22.2,22.2c12.2,0,22.2-10,22.2-22.2     C183,186.7,173,176.8,160.8,176.8z M126,323.6h69.6v-61.7c0-19.2-15.6-34.8-34.8-34.8c-19.2,0-34.8,15.6-34.8,34.8V323.6z" id="svg_175" fill="#dadada" fill-opacity="1" opacity="0.78"/>
		</g>
	</g>
	<g class="st2" id="svg_176" fill="#dadada" fill-opacity="1" opacity="0.78">
		<path class="st10" d="M99.4,46.1v98.5H80.3V46.1H99.4z" id="svg_177" fill="#dadada" fill-opacity="1" opacity="0.78"/>
		<path class="st10" d="M114.8,94.6c0-7.9-0.4-14.8-0.6-21.5h16.5l0.9,8.2h0.3c3.8-5.7,9.9-9.4,17.4-9.4c13.6,0,19,10.8,19,26.7    v45.9h-19.1V99.9c0-6.1-1.5-11.8-7-11.8c-3.2,0-5.8,2.2-7.2,6.4c-0.6,1.5-1,3.8-1,6.6v43.5h-19.1V94.6z" id="svg_178" fill="#dadada" fill-opacity="1" opacity="0.78"/>
		<path class="st10" d="M25,216.3h-0.3l-16.1,8.3l-3.2-15.1l21.8-11.3H44v95H25V216.3z" id="svg_179" fill="#dadada" fill-opacity="1" opacity="0.78"/>
		<path class="st10" d="M71.9,278.6c3.7,0,5.6-0.1,8.8-0.7c3.7-0.7,7.9-2.6,11.1-5.7c4.1-3.9,7.6-10.7,9.2-19.1h-0.4    c-3.1,3.4-7.5,5.8-13.6,5.8c-12.3,0-22.4-11-22.4-28.4c0-16.4,10.1-33.3,28.3-33.3c17.7,0,26.9,16.1,26.9,39    c0,21.5-6.9,36.5-15.6,45.9c-5.8,6.3-14.2,10.5-23.4,12c-3.1,0.4-6,0.4-8.9,0.4V278.6z M83.5,228.9c0.1,9.2,3.1,16.8,8.9,16.8    c3.4,0,6.3-2.5,7.3-5c0.7-1.9,0.9-3.8,0.9-10.1c0-12.6-3.5-19.6-8.6-19.6C87,211.1,83.3,217.4,83.5,228.9z" id="svg_180" fill="#dadada" fill-opacity="1" opacity="0.78"/>
		<path class="st10" d="M175.3,212.7c-2.3,0.1-5,0.4-7.9,1c-12.6,2.8-18.9,13.3-21.2,25.3h0.4c3.4-4.5,8.3-7.6,14.6-7.6    c12.9,0,21.5,11.5,21.5,29.5c0,16.7-8.5,33.6-27,33.6c-18,0-28.9-15.6-28.9-39.2c0-20.7,6.9-34.9,15.6-44.3    c6.1-6.9,15.3-11.4,23.2-12.9c4.5-0.9,7.6-0.9,9.6-1V212.7z M163.9,260.8c-0.1-8-2.8-15.6-8.9-15.6c-3.1,0-6,2-7.7,6.4    c-0.6,1-1,3.9-1,8.3c0,12.4,3.5,20.7,9.2,20.7C161.8,280.6,163.9,272.2,163.9,260.8z" id="svg_181" fill="#dadada" fill-opacity="1" opacity="0.78"/>
		<path class="st10" d="M243.1,198.4v12.6l-29.8,82.4h-18.7l29.2-77.9v-0.3h-32.4v-16.8H243.1z" id="svg_182" fill="#dadada" fill-opacity="1" opacity="0.78"/>
	</g>
	<g class="st2" id="svg_183" fill="#dadada" fill-opacity="1" opacity="0.78">
		<path class="st10" d="M100,46.1v98.5H80.9V46.1H100z" id="svg_184" fill="#dadada" fill-opacity="1" opacity="0.78"/>
		<path class="st10" d="M115.3,94.6c0-7.9-0.4-14.8-0.6-21.5h16.5l0.9,8.2h0.3c3.8-5.7,9.9-9.4,17.4-9.4c13.6,0,19,10.8,19,26.7    v45.9h-19.1V99.9c0-6.1-1.5-11.8-7-11.8c-3.2,0-5.8,2.2-7.2,6.4c-0.6,1.5-1,3.8-1,6.6v43.5h-19.1V94.6z" id="svg_185" fill="#dadada" fill-opacity="1" opacity="0.78"/>
		<path class="st10" d="M3,293.3v-12.9l9.5-12.1c12.3-15.6,22.4-28.6,22.4-42.2c0-7.6-4.2-13-12.1-13c-6,0-10.8,2.6-14.3,4.8L5,203    c4.4-2.8,12.6-5.8,21.2-5.8c20.8,0,27.5,13.9,27.5,27.5c0,17.8-11.1,32.1-22.1,44.9l-5.7,6.7v0.3H55v16.8H3z" id="svg_186" fill="#dadada" fill-opacity="1" opacity="0.78"/>
		<path class="st10" d="M120.6,245.4c0,34-12.4,49.1-27.8,49.1c-20.7,0-27.8-23.8-27.8-48.2c0-27.3,8.8-49.1,28.5-49.1    C115.5,197.2,120.6,222.8,120.6,245.4z M84.4,245.9c-0.3,22.2,2.5,32.3,8.9,32.3c6,0,8-10.5,8-32.3c0-20.3-1.9-32.3-8-32.3    C87.3,213.6,84.2,223.8,84.4,245.9z" id="svg_187" fill="#dadada" fill-opacity="1" opacity="0.78"/>
		<path class="st10" d="M127.5,293.3v-12.9l9.5-12.1c12.3-15.6,22.4-28.6,22.4-42.2c0-7.6-4.2-13-12.1-13c-6,0-10.8,2.6-14.3,4.8    l-3.4-14.9c4.4-2.8,12.6-5.8,21.2-5.8c20.8,0,27.5,13.9,27.5,27.5c0,17.8-11.1,32.1-22.1,44.9l-5.7,6.7v0.3h29.1v16.8H127.5z" id="svg_188" fill="#dadada" fill-opacity="1" opacity="0.78"/>
		<path class="st10" d="M238.1,212.7c-2.3,0.1-5,0.4-7.9,1c-12.6,2.8-18.9,13.3-21.2,25.3h0.4c3.4-4.5,8.3-7.6,14.6-7.6    c12.9,0,21.5,11.5,21.5,29.5c0,16.7-8.5,33.6-27,33.6c-18,0-28.9-15.6-28.9-39.2c0-20.7,6.9-34.9,15.6-44.3    c6.1-6.9,15.3-11.4,23.2-12.9c4.5-0.9,7.6-0.9,9.6-1V212.7z M226.7,260.8c-0.1-8-2.8-15.6-8.9-15.6c-3.1,0-6,2-7.7,6.4    c-0.6,1-1,3.9-1,8.3c0,12.4,3.5,20.7,9.2,20.7C224.6,280.6,226.7,272.2,226.7,260.8z" id="svg_189" fill="#dadada" fill-opacity="1" opacity="0.78"/>
	</g>
	<circle class="st109" cx="123.9000015258789" cy="176" r="118" id="svg_190" fill="#dadada" fill-opacity="1" opacity="0.78"/>
	<g class="st2" id="svg_191" fill="#dadada" fill-opacity="1" opacity="0.78">
		<path class="st95" d="M52.1,241.8l5.2-37H41v-15.5h18.7l3.6-25.3H46.2v-15.3h19.3l5.2-36.2h14.9l-5,36.2h19.3l5.2-36.2H120    l-5,36.2h16.1V164h-18.5l-3.4,25.3H126v15.3h-19.3l-5,37.2H86.4l5.2-37.2H72.4l-5.2,37.2H52.1z M94.1,189.3l3.4-25.3H78.2    l-3.4,25.3H94.1z" id="svg_192" fill="#dadada" fill-opacity="1" opacity="0.78"/>
		<path class="st95" d="M170.3,134.6h-0.4l-23.7,11.9L142,128l31.4-15.5h20.5v129.3h-23.7V134.6z" id="svg_193" fill="#dadada" fill-opacity="1" opacity="0.78"/>
	</g>
	<circle class="st39" cx="126.9000015258789" cy="175" r="118" id="svg_194" fill="#dadada" fill-opacity="1" opacity="0.78"/>
	<g class="st2" id="svg_195" fill="#dadada" fill-opacity="1" opacity="0.78">
		<path class="st95" d="M55.1,240.8l5.2-37H44v-15.5h18.7l3.6-25.3H49.2v-15.3h19.3l5.2-36.2h14.9l-5,36.2h19.3l5.2-36.2H123    l-5,36.2h16.1V163h-18.5l-3.4,25.3H129v15.3h-19.3l-5,37.2H89.4l5.2-37.2H75.4l-5.2,37.2H55.1z M97.1,188.3l3.4-25.3H81.2    l-3.4,25.3H97.1z" id="svg_196" fill="#dadada" fill-opacity="1" opacity="0.78"/>
		<path class="st95" d="M173.3,133.6h-0.4l-23.7,11.9L145,127l31.4-15.5h20.5v129.3h-23.7V133.6z" id="svg_197" fill="#dadada" fill-opacity="1" opacity="0.78"/>
	</g>
	<g class="st2" id="svg_198" fill="#dadada" fill-opacity="1" opacity="0.78">
		<path class="st99" d="M125.7,10.6c-26.1,0-47.5,21.3-47.5,47.5c0,26.2,21.3,47.5,47.5,47.5c26.2,0,47.5-21.3,47.5-47.5    C173.2,31.9,151.9,10.6,125.7,10.6z M51.3,324.7h148.9V192.6c0-41.1-33.4-74.4-74.5-74.4c-41.1,0-74.4,33.4-74.4,74.4V324.7z" id="svg_199" fill="#dadada" fill-opacity="1" opacity="0.78"/>
	</g>
	<g class="st2" id="svg_200" fill="#dadada" fill-opacity="1" opacity="0.78">
		<path class="st117" d="M125.7,10.6c-26.1,0-47.5,21.3-47.5,47.5c0,26.2,21.3,47.5,47.5,47.5c26.2,0,47.5-21.3,47.5-47.5    C173.2,31.9,151.9,10.6,125.7,10.6z M51.3,324.7h148.9V192.6c0-41.1-33.4-74.4-74.5-74.4c-41.1,0-74.4,33.4-74.4,74.4V324.7z" id="svg_201" fill="#dadada" fill-opacity="1" opacity="0.78"/>
	</g>
	<g id="svg_202" fill="#dadada" fill-opacity="1" opacity="0.78">
		<path class="st12" d="M125.7,10.6c-26.1,0-47.5,21.3-47.5,47.5c0,26.2,21.3,47.5,47.5,47.5c26.2,0,47.5-21.3,47.5-47.5    C173.2,31.9,151.9,10.6,125.7,10.6z M51.3,324.7h148.9V192.6c0-41.1-33.4-74.4-74.5-74.4c-41.1,0-74.4,33.4-74.4,74.4V324.7z" id="svg_203" fill="#dadada" fill-opacity="1" opacity="0.78"/>
	</g>
	<g class="st2" id="svg_204" fill="#dadada" fill-opacity="1" opacity="0.78">
		<path class="st118" d="M125.7,10.6c-26.1,0-47.5,21.3-47.5,47.5c0,26.2,21.3,47.5,47.5,47.5c26.2,0,47.5-21.3,47.5-47.5    C173.2,31.9,151.9,10.6,125.7,10.6z M51.3,324.7h148.9V192.6c0-41.1-33.4-74.4-74.5-74.4c-41.1,0-74.4,33.4-74.4,74.4V324.7z" id="svg_205" fill="#dadada" fill-opacity="1" opacity="0.78"/>
	</g>
</g></g></svg>