<svg xmlns="http://www.w3.org/2000/svg" viewBox="0 0 560 200">
  <defs>
    <style>
      .cls-1 {
        fill: #fff;
      }
    </style>
  </defs>
  <title>Artboard 12</title>
  <g id="Layer_4" data-name="Layer 4">
    <g>
      <g>
        <path class="cls-1" d="M35.59,154.9a24.55,24.55,0,0,1-.87-4c-.2-1.31-.37-2.61-.53-3.9-.3-2.56-.59-5.05-.87-7.5-.55-4.89-1.11-9.61-1.8-14.41-1.37-9.61-3.36-19.59-6.2-32.1-.58-2.6-1.39-6.19-2.34-11.2-.47-2.49-1-5.35-1.38-8.51-.2-1.56-.38-3.22-.44-4.77a14.88,14.88,0,0,1,0-1.94,1.76,1.76,0,0,0,0-.19s0,0,0,0v0l0,.14A2.35,2.35,0,0,1,21,67a3.32,3.32,0,0,1-.34.68l-.16.27-.21.31a5.76,5.76,0,0,1-.5.59l-.36.35c-.15.14-.31.28-.48.41a5.67,5.67,0,0,1-1.05.64l-3.72.9a3.44,3.44,0,0,1-1.44-.27c-.09-.07,0,0,0,0s.13.09.26.22a14.21,14.21,0,0,1,2,2.26,62.21,62.21,0,0,1,4.69,7.6c3.09,5.75,6,12.19,8.8,18.38s5.43,12.17,8.16,17.42a52.29,52.29,0,0,0,4.62,7.58c.27.33.51.64.79,1s.57.65,1,1l.55.53c.17.17.46.39.68.58A14.11,14.11,0,0,0,46,128.54a11.85,11.85,0,0,0,1.28.59l.7.25c.29.08.59.16.89.22a9.63,9.63,0,0,0,4,0A11.37,11.37,0,0,0,54.8,129a11.57,11.57,0,0,0,1.51-.85c.22-.15.49-.34.64-.47l.48-.42c.31-.29.61-.59.88-.89l.31-.34.27-.4a19.36,19.36,0,0,0,1.76-3.36l.29-.74.23-.68c.16-.46.3-.91.41-1.32a45.33,45.33,0,0,0,1.06-4.68c.51-2.92.8-5.56,1-8.1.47-5,.71-9.57.92-13.73.37-8.2.67-15,.91-20.35s.51-9.25.69-11.84l.3-3.85.2-2.22c.14-1.56.38-4,.82-7.46A107.63,107.63,0,0,1,70,33.94a37.53,37.53,0,0,1,2.88-7.88,11.25,11.25,0,0,1,2-2.75,4.13,4.13,0,0,1,.71-.54,4,4,0,0,1,.49-.16l-4-.48A4.69,4.69,0,0,1,73,23a17.11,17.11,0,0,1,2.24,3.32,62.11,62.11,0,0,1,4.59,12.29c2.76,9.9,4.78,22.21,6.34,34.51,3.06,24.67,4.41,49.54,5.1,59.67a250.26,250.26,0,0,0,3.92,32.84c.94,4.82,2,9.51,3.34,14.33A153,153,0,0,0,103.34,195c.53-5.58,1.38-10.61,2-15.52s1.25-9.64,1.67-14.52a229.63,229.63,0,0,0,.38-33.15c-.28-5.12-.79-13.94-1.58-24.67s-1.91-23.35-3.5-36.1-3.7-25.59-6.84-36.86c-.79-2.82-1.65-5.54-2.63-8.15a59.4,59.4,0,0,0-3.33-7.47,32.48,32.48,0,0,0-4.65-6.65,19.12,19.12,0,0,0-7-4.9l-2-.77-2,.28a18.9,18.9,0,0,0-5.87,1.84,20,20,0,0,0-4.45,3.21,26.74,26.74,0,0,0-5.06,6.85,53.54,53.54,0,0,0-4.26,11.39,124,124,0,0,0-2.85,15.41c-.48,3.79-.72,6.38-.87,8l-.21,2.36-.32,4c-.2,2.7-.47,6.77-.74,12.21S48.78,84,48.4,92.21c-.2,4-.44,8.43-.88,13-.22,2.27-.48,4.61-.88,6.8a28.86,28.86,0,0,1-.68,3,5.56,5.56,0,0,1-.19.61l-.09.28-.09.21a1.58,1.58,0,0,1-.13.3l0,.06s0,0,0,0a13.49,13.49,0,0,1,1.46,1L50,119.11a2.07,2.07,0,0,1,.42.37l.18.23c.06.1.08.09.12.15a1.11,1.11,0,0,1,.17.3.39.39,0,0,1,0,.09s0,0,0,0v-.08a3.32,3.32,0,0,1,0-.33,1.17,1.17,0,0,1,.06-.2c0-.07.07-.22.11-.33a4.3,4.3,0,0,1,.34-.68,4.86,4.86,0,0,1,.54-.87l.15-.2.19-.28c.13-.19.27-.37.41-.54s.29-.35.44-.52.31-.32.5-.56.38-.43.58-.64l.25-.25h0s-.07-.09-.11-.12l-.23-.28a38.58,38.58,0,0,1-3.06-5.17c-2.35-4.51-4.94-10.36-7.75-16.59s-5.81-12.92-9.3-19.43a77.88,77.88,0,0,0-6-9.68,30.09,30.09,0,0,0-4.46-4.85A18.76,18.76,0,0,0,22,57.4a16.4,16.4,0,0,0-2-1.18,13.16,13.16,0,0,0-5.76-1.4h-2l-1.68.91a10.23,10.23,0,0,0-1.39.89c-.22.17-.43.34-.63.52l-.3.28L8,57.63c-.26.29-.51.59-.75.91L6.89,59a3.82,3.82,0,0,0-.27.43,13.12,13.12,0,0,0-.69,1.41c-.17.43-.26.72-.37,1.09l-.16.53-.09.41-.16.82c-.08.5-.13.91-.18,1.37a32.27,32.27,0,0,0-.07,4.1c.1,2.36.33,4.36.57,6.22.49,3.7,1,6.77,1.56,9.46,1,5.35,1.89,9.08,2.52,11.77a172.81,172.81,0,0,0,10.57,31.81c2,4.52,4.22,8.84,6.68,13.22,1.24,2.18,2.54,4.39,3.95,6.62.71,1.11,1.45,2.24,2.23,3.36A22.34,22.34,0,0,0,35.59,154.9Z"/>
        <path class="cls-1" d="M181.17,131.54a6.36,6.36,0,0,1-1.91-.82,3.54,3.54,0,0,0-1.25-.54c-.13,0-.36-.1-.6-.13s-.6-.18-1-.37a17.09,17.09,0,0,1-3.18-1.82,48.7,48.7,0,0,1-8.4-8c-2.77-3.2-5.27-6.58-7-9.12s-2.9-4.26-2.9-4.26-1.1-1.69-2.76-4.38-3.83-6.4-6-10.37C141.72,83.86,137.43,74.91,136,72c-.16-.34-.33-.66-.5-1a14.52,14.52,0,0,0,1.23-1.59c1.63-2.44,6.39-9.83,11.06-16.29,2.32-3.24,4.62-6.25,6.34-8.42S157,41.17,157,41.17s1.14-1.37,3-3.38a90.65,90.65,0,0,1,7.08-7,35.21,35.21,0,0,1,7.91-5.5,11.18,11.18,0,0,1,2.55-.87,8.37,8.37,0,0,1,1-.08,2.38,2.38,0,0,0,1-.3,8.2,8.2,0,0,1,2-.47,22.1,22.1,0,0,1,7.76.72c1.2-3.23,1.57-6.36.36-9.38a10.09,10.09,0,0,0-3.21-4.19,12.56,12.56,0,0,0-6.13-2.46,20.32,20.32,0,0,0-5.44.12,26.66,26.66,0,0,0-6.7,2.09,50.11,50.11,0,0,0-11.89,8.1,103.47,103.47,0,0,0-8.36,8.39c-2.05,2.3-3.3,3.81-3.3,3.81s-1.28,1.49-3.17,3.84-4.38,5.57-6.86,9c-3.61,5-7.19,10.33-9.5,13.92-2-13.44-4.32-27.39-5.29-32.21C118,15.83,114.17,10.92,107.48,4.2c-3.42,8.89-5.12,14.59-3.59,23.93.89,5,3.43,20.24,5.48,34.24.53,3.49,1,6.92,1.45,10.08s.86,6.07,1.17,8.54c.65,4.94,1.06,8.13,1.06,8.13s1.57,12.76,3,26.8c.32,3.51.65,7.1,1,10.59s.55,6.87.79,10c.39,6.2.75,11.29.84,13.81a37.62,37.62,0,0,0,.84,6.33,29.51,29.51,0,0,0,1.62,5.41,82.44,82.44,0,0,0,5.77,10.84c2.65-3.85,4.85-7.3,6.1-10.91a31.85,31.85,0,0,0,1.5-5.73,38.6,38.6,0,0,0,.33-6.63c0-2.65-.36-7.88-.75-14.27-.25-3.18-.52-6.65-.8-10.22s-.68-7.21-1-10.79c-.66-6.5-1.36-12.71-1.93-17.55.52,1,1.05,1.92,1.58,2.87,2.31,4.18,4.66,8.12,6.45,11s3,4.72,3,4.72,1.18,1.86,3.14,4.69a128,128,0,0,0,8,10.47,62.87,62.87,0,0,0,11.4,10.69,32.55,32.55,0,0,0,6.43,3.53,23.17,23.17,0,0,0,3,1,23.55,23.55,0,0,0,2.47.47,13.4,13.4,0,0,0,7.16-1,10.92,10.92,0,0,0,4.7-3.77c2.11-3,2.35-6.48,1.67-10.05A18.15,18.15,0,0,1,181.17,131.54Z"/>
      </g>
      <g>
        <path class="cls-1" d="M214.74,123.73H202.55V28.14h12.19Z"/>
        <path class="cls-1" d="M272.86,123.73V77.39c0-7.15-2.52-13-11.78-13-11.92,0-13.64,10.59-13.64,19.73v39.59H236.58v-53c0-4.64-.26-9.27-.66-13.9h11.52v8.6H248c4.23-7.54,9.27-9.93,17.87-9.93,14.3,0,17.88,8.61,17.88,21.85v46.34Z"/>
        <path class="cls-1" d="M322.51,125.05c-14.43,0-23.43-6.35-23-21.71h12.32c0,3.84.13,12.84,11.12,12.84,6.48,0,11.52-3.31,11.52-10.19,0-11.92-33.37-12.18-33.37-32.18,0-7,4.24-18.27,23-18.27,11.91,0,22.11,5.7,21.18,18.94h-12c.14-7-3.57-10.73-10.46-10.73-5.82,0-10.32,3.18-10.32,9,0,11.79,33.36,11.52,33.36,31.91C345.81,119.36,335.75,125.05,322.51,125.05Z"/>
        <path class="cls-1" d="M360.64,28.14h12.18V39.79H360.64Zm11.52,95.59H361.3V56.87h10.86Z"/>
        <path class="cls-1" d="M426.31,56.87h10.85v73.61c0,15-9.93,18.54-24.62,18.54-11.12,0-21.19-5.56-20.26-17.88h12.18c.13,6.23,4.24,9.67,10.2,9.67,7.54,0,11.65-4.64,11.65-11.52v-13.9h-.4c-2.78,5.29-8.87,8.34-14.7,8.34-18.13,0-21.71-15.62-21.71-35.49,0-30.71,15.49-32.7,20.92-32.7,7,0,12.58,3.05,15.62,9.53h.27ZM413.6,64.55c-12.32,0-12.71,14.82-12.71,23.69,0,21.45,4.9,26.49,13,26.49,13.11,0,12.71-15.5,12.71-24.76C426.57,80,427.23,64.55,413.6,64.55Z"/>
        <path class="cls-1" d="M493.44,123.73V78.45c0-8.21-2.65-14-11.92-14-10.86,0-13.64,8.74-13.64,20v39.33H457V28.14h10.85V65.47h.53c4.37-7.81,9.4-9.93,18.14-9.93,11.39,0,17.74,5.7,17.74,20.79v47.4Z"/>
        <path class="cls-1" d="M524.55,56.87V44l10.86-4.9V56.87H550v8.2H535.41V106c0,4.23,0,9.66,9.93,9.66.79,0,2.51-.26,4.9-.53v8.34c-3.58.27-7.15,1.06-10.73,1.06-10.33,0-15-4.23-15-11.91V65.07h-11v-8.2Z"/>
      </g>
    </g>
  </g>
</svg>
